<svg width="60" height="60" viewBox="0 0 60 60" fill="none" xmlns="http://www.w3.org/2000/svg">
<mask id="mask0_7256_8401" style="mask-type:luminance" maskUnits="userSpaceOnUse" x="1" y="1" width="58" height="58">
<path d="M13.6869 1.12781H46.3133C53.2494 1.12781 58.8723 6.75067 58.8723 13.6868V46.3132C58.8723 53.2493 53.2494 58.8722 46.3133 58.8722H13.6869C6.75079 58.8722 1.12793 53.2493 1.12793 46.3132V13.6868C1.12793 6.75067 6.75079 1.12781 13.6869 1.12781Z" fill="white"/>
</mask>
<g mask="url(#mask0_7256_8401)">
<path d="M13.6869 1.12781H46.3133C53.2494 1.12781 58.8723 6.75067 58.8723 13.6868V46.3132C58.8723 53.2493 53.2494 58.8722 46.3133 58.8722H13.6869C6.75079 58.8722 1.12793 53.2493 1.12793 46.3132V13.6868C1.12793 6.75067 6.75079 1.12781 13.6869 1.12781Z" fill="url(#paint0_linear_7256_8401)"/>
</g>
<mask id="mask1_7256_8401" style="mask-type:luminance" maskUnits="userSpaceOnUse" x="1" y="1" width="58" height="58">
<path d="M13.6869 1.12781H46.3133C53.2494 1.12781 58.8723 6.75067 58.8723 13.6868V46.3132C58.8723 53.2493 53.2494 58.8722 46.3133 58.8722H13.6869C6.75079 58.8722 1.12793 53.2493 1.12793 46.3132V13.6868C1.12793 6.75067 6.75079 1.12781 13.6869 1.12781Z" fill="white"/>
</mask>
<g mask="url(#mask1_7256_8401)">
<path d="M16.2441 32.8624V45.6762C16.2441 47.2222 17.4974 48.4754 19.0434 48.4754H43.1945C43.7192 48.4754 43.9556 47.8182 43.5514 47.4839C42.5386 46.647 41.9517 45.4015 41.9517 44.0873V32.8624H16.2441Z" fill="white"/>
<path d="M16.2441 31.32H41.9517V29.2949C41.9517 26.5989 39.7659 24.4132 37.07 24.4132H33.382C32.2226 24.4132 31.3046 23.4329 31.3813 22.2758L32.0602 11.981C32.173 10.2685 30.8147 8.81726 29.0981 8.81726C27.382 8.81726 26.0232 10.2685 26.136 11.981L26.815 22.2758C26.8912 23.4324 25.9736 24.4132 24.8142 24.4132H21.1262C18.4303 24.4132 16.2446 26.5989 16.2446 29.2949L16.2441 31.32Z" fill="white"/>
</g>
<defs>
<linearGradient id="paint0_linear_7256_8401" x1="47.4227" y1="-0.176854" x2="12.5776" y2="60.1768" gradientUnits="userSpaceOnUse">
<stop stop-color="#FFBB21"/>
<stop offset="0.2649" stop-color="#D87D64"/>
<stop offset="0.3937" stop-color="#C86380"/>
<stop offset="0.6549" stop-color="#7096D6"/>
<stop offset="0.6884" stop-color="#649DE1"/>
<stop offset="0.9348" stop-color="#8FD884"/>
</linearGradient>
</defs>
</svg>
