<svg width="60" height="60" viewBox="0 0 60 60" fill="none" xmlns="http://www.w3.org/2000/svg">
<g clip-path="url(#clip0_7256_9121)">
<path d="M10.7063 30.0094C10.7063 32.3625 11.1187 34.6125 11.8594 36.6938L1.69687 39.9657C0.6 36.8532 0 33.4969 0 30.0094C0 16.7344 8.61563 5.47505 20.5594 1.5188L23.8594 11.4844C16.2094 14.0813 10.7063 21.3938 10.7063 30.0094Z" fill="#494A5A"/>
<path d="M58.4533 20.4938L48.3283 23.8969C45.7877 16.0969 38.5502 10.4719 30.0002 10.4719C27.8439 10.4719 25.7814 10.8281 23.8502 11.4844L20.5596 1.51875C23.5221 0.534375 26.7096 0 30.0096 0C43.2471 0 54.4877 8.57813 58.4533 20.4938Z" fill="#F95353"/>
<path d="M60 30.0093C60 43.2936 51.3656 54.5624 39.3938 58.4905L36.1875 48.5155C43.8094 45.9093 49.3031 38.5968 49.3031 30.0093C49.3031 27.8718 48.9656 25.8187 48.3375 23.8968L58.4625 20.4937C59.4563 23.4749 60 26.6718 60 30.0093Z" fill="#FFD550"/>
<path d="M39.3937 58.4907C36.4405 59.4657 33.2811 60.0001 30.0093 60.0001C16.9312 60.0001 5.80303 51.6376 1.69678 39.9657L11.8593 36.6938H11.8687C14.5687 44.1938 21.6749 49.5376 30.0093 49.5376C32.1655 49.5376 34.2561 49.1813 36.1874 48.5157L39.3937 58.4907Z" fill="#178BFF"/>
<path d="M16.8936 39.9468H43.0967V41.2312H16.8936V39.9468Z" fill="#494A5A"/>
<path d="M23.4469 34.1251V39.9469H19.5469V34.1251C19.5469 33.7501 19.8469 33.4407 20.2312 33.4407H22.7719C23.1469 33.4407 23.4469 33.7501 23.4469 34.1251Z" fill="#00CB6E"/>
<path d="M29.0812 27.1687V39.9469H25.1812V27.1687C25.1812 26.7937 25.4812 26.4844 25.8655 26.4844H28.4062C28.7718 26.4844 29.0812 26.7937 29.0812 27.1687Z" fill="#EDC750"/>
<path d="M34.8937 31.8001V39.9376H30.9937V31.8001C30.9937 31.4251 31.303 31.1157 31.678 31.1157H34.2187C34.5843 31.1251 34.8937 31.4251 34.8937 31.8001Z" fill="#F95353"/>
<path d="M40.4908 27.9188V39.9375H36.5908V27.9188C36.5908 27.5438 36.9002 27.2344 37.2752 27.2344H39.8158C40.1814 27.2437 40.4908 27.5438 40.4908 27.9188Z" fill="#1889FB"/>
<path d="M38.5405 19.5562C37.3499 19.5562 36.3843 20.5218 36.3843 21.7124C36.3843 22.0499 36.4593 22.3593 36.5999 22.6405C36.7874 23.0249 37.0874 23.353 37.4436 23.5687C37.7624 23.7655 38.1468 23.8687 38.5405 23.8687C39.7312 23.8687 40.6968 22.903 40.6968 21.7124C40.6968 20.5218 39.7312 19.5562 38.5405 19.5562ZM38.5405 22.8749C37.8937 22.8749 37.378 22.3499 37.378 21.7124C37.378 21.0655 37.903 20.5499 38.5405 20.5499C39.1874 20.5499 39.7124 21.0749 39.7124 21.7124C39.703 22.3593 39.1874 22.8749 38.5405 22.8749Z" fill="#1889FB"/>
<path d="M39.703 21.7123C39.703 22.3592 39.178 22.8748 38.5312 22.8748C37.8843 22.8748 37.3687 22.3498 37.3687 21.7123C37.3687 21.0654 37.8937 20.5498 38.5312 20.5498C39.1874 20.5498 39.703 21.0654 39.703 21.7123Z" fill="#1E88E0"/>
<path d="M23.2783 26.8406C23.0627 26.5218 22.7533 26.2593 22.3971 26.1C22.1252 25.9687 21.8158 25.9031 21.4971 25.9031C20.3064 25.9031 19.3408 26.8687 19.3408 28.0593C19.3408 29.25 20.3064 30.2156 21.4971 30.2156C22.6877 30.2156 23.6533 29.25 23.6533 28.0593C23.6627 27.6093 23.5127 27.1875 23.2783 26.8406ZM21.4971 29.2312C20.8502 29.2312 20.3346 28.7062 20.3346 28.0593C20.3346 27.4125 20.8596 26.8968 21.4971 26.8968C22.1439 26.8968 22.6596 27.4218 22.6596 28.0593C22.6689 28.7062 22.1439 29.2312 21.4971 29.2312Z" fill="#00CB6E"/>
<path d="M22.6687 28.0595C22.6687 28.7063 22.1437 29.2313 21.5062 29.2313C20.8594 29.2313 20.3438 28.7063 20.3438 28.0595C20.3438 27.4126 20.8687 26.897 21.5062 26.897C22.1437 26.897 22.6687 27.4126 22.6687 28.0595Z" fill="#06C168"/>
<path d="M27.1313 18.7688C25.9407 18.7688 24.9751 19.7344 24.9751 20.925C24.9751 21.4125 25.1438 21.8719 25.4157 22.2282C25.6407 22.5282 25.9501 22.7625 26.297 22.9125C26.5501 23.025 26.8313 23.0813 27.1313 23.0813C27.5626 23.0813 27.9657 22.9594 28.2938 22.7438C28.6313 22.5282 28.9032 22.2188 29.0813 21.8532C29.2126 21.5719 29.2876 21.2532 29.2876 20.925C29.2876 19.7344 28.322 18.7688 27.1313 18.7688ZM27.1313 22.0969C26.4845 22.0969 25.9688 21.5719 25.9688 20.9344C25.9688 20.2875 26.4938 19.7719 27.1313 19.7719C27.7782 19.7719 28.2938 20.2969 28.2938 20.9344C28.2938 21.5719 27.7688 22.0969 27.1313 22.0969Z" fill="#EDC750"/>
<path d="M28.2937 20.925C28.2937 21.5718 27.7687 22.0875 27.1312 22.0875C26.4844 22.0875 25.9688 21.5625 25.9688 20.925C25.9688 20.2781 26.4937 19.7625 27.1312 19.7625C27.7687 19.7625 28.2937 20.2875 28.2937 20.925Z" fill="#DBB54B"/>
<path d="M34.9877 25.4624C34.8564 25.078 34.6221 24.7499 34.3127 24.4968C33.9377 24.1874 33.4689 24.0093 32.9439 24.0093C32.4658 24.0093 32.0252 24.1593 31.6689 24.4312C31.3689 24.6468 31.1252 24.9468 30.9752 25.2843C30.8533 25.5468 30.7783 25.8562 30.7783 26.1655C30.7783 27.3562 31.7439 28.3218 32.9346 28.3218C34.1252 28.3218 35.0908 27.3562 35.0908 26.1655C35.1002 25.9218 35.0627 25.6874 34.9877 25.4624ZM32.9439 27.3374C32.2971 27.3374 31.7814 26.8124 31.7814 26.1749C31.7814 25.528 32.3064 25.0124 32.9439 25.0124C33.5908 25.0124 34.1158 25.5374 34.1158 26.1749C34.1158 26.8124 33.5908 27.3374 32.9439 27.3374Z" fill="#F95353"/>
<path d="M34.1156 26.1751C34.1156 26.8219 33.5906 27.3376 32.9437 27.3376C32.2969 27.3376 31.7812 26.8126 31.7812 26.1751C31.7812 25.5282 32.3062 25.0126 32.9437 25.0126C33.5906 25.0032 34.1156 25.5282 34.1156 26.1751Z" fill="#F24E4E"/>
<path d="M39.703 21.7125C39.703 22.3594 39.178 22.875 38.5312 22.875C37.8843 22.875 37.3687 22.35 37.3687 21.7125C37.3687 21.0657 37.8937 20.55 38.5312 20.55C39.178 20.55 39.703 21.0657 39.703 21.7125Z" fill="#1485E2"/>
<path d="M26.2969 22.9219L23.2875 26.8407C23.0719 26.5219 22.7625 26.2594 22.4062 26.1L25.4156 22.2375C25.6406 22.5375 25.9406 22.7719 26.2969 22.9219Z" fill="#494A5A"/>
<path d="M31.6689 24.4312C31.3689 24.6468 31.1252 24.9468 30.9752 25.2843L28.2939 22.7437C28.6314 22.528 28.9033 22.2187 29.0814 21.853L31.6689 24.4312Z" fill="#494A5A"/>
<path d="M37.4345 23.5685L34.9782 25.4623C34.847 25.0779 34.6126 24.7498 34.3032 24.4966L36.5813 22.6404C36.7782 23.0248 37.0688 23.3529 37.4345 23.5685Z" fill="#494A5A"/>
</g>
<defs>
<clipPath id="clip0_7256_9121">
<rect width="60" height="60" fill="white"/>
</clipPath>
</defs>
</svg>
