<svg width="61" height="60" viewBox="0 0 61 60" fill="none" xmlns="http://www.w3.org/2000/svg">
<path d="M34.1221 33.75H26.6221C25.6275 33.75 24.6737 34.1451 23.9704 34.8484C23.2672 35.5516 22.8721 36.5054 22.8721 37.5V52.5C22.8721 53.4946 23.2672 54.4484 23.9704 55.1516C24.6737 55.8549 25.6275 56.25 26.6221 56.25H34.1221C35.1166 56.25 36.0705 55.8549 36.7737 55.1516C37.477 54.4484 37.8721 53.4946 37.8721 52.5V37.5C37.8721 36.5054 37.477 35.5516 36.7737 34.8484C36.0705 34.1451 35.1166 33.75 34.1221 33.75ZM26.6221 52.5V37.5H34.1221V52.5H26.6221ZM15.3721 39.375H7.87207C6.87751 39.375 5.92368 39.7701 5.22042 40.4734C4.51716 41.1766 4.12207 42.1304 4.12207 43.125V52.5C4.12207 53.4946 4.51716 54.4484 5.22042 55.1516C5.92368 55.8549 6.87751 56.25 7.87207 56.25H15.3721C16.3666 56.25 17.3205 55.8549 18.0237 55.1516C18.727 54.4484 19.1221 53.4946 19.1221 52.5V43.125C19.1221 42.1304 18.727 41.1766 18.0237 40.4734C17.3205 39.7701 16.3666 39.375 15.3721 39.375ZM7.87207 52.5V43.125H15.3721V52.5H7.87207ZM52.8721 24.375H45.3721C44.3775 24.375 43.4237 24.7701 42.7204 25.4734C42.0172 26.1766 41.6221 27.1304 41.6221 28.125V52.5C41.6221 53.4946 42.0172 54.4484 42.7204 55.1516C43.4237 55.8549 44.3775 56.25 45.3721 56.25H52.8721C53.8666 56.25 54.8205 55.8549 55.5237 55.1516C56.227 54.4484 56.6221 53.4946 56.6221 52.5V28.125C56.6221 27.1304 56.227 26.1766 55.5237 25.4734C54.8205 24.7701 53.8666 24.375 52.8721 24.375ZM45.3721 52.5V28.125H52.8721V52.5H45.3721ZM9.8052 30.4631C9.68237 29.9813 9.756 29.4703 10.0099 29.0428C10.2638 28.6152 10.6771 28.306 11.1589 28.1831C17.5513 26.5583 23.7022 24.0997 29.4533 20.8706C35.8016 17.2729 41.5913 12.7687 46.6396 7.5H41.6221C41.1248 7.5 40.6479 7.30246 40.2962 6.95083C39.9446 6.59919 39.7471 6.12228 39.7471 5.625C39.7471 5.12772 39.9446 4.65081 40.2962 4.29917C40.6479 3.94754 41.1248 3.75 41.6221 3.75H50.9971C51.4944 3.75 51.9713 3.94754 52.3229 4.29917C52.6745 4.65081 52.8721 5.12772 52.8721 5.625V15C52.8721 15.4973 52.6745 15.9742 52.3229 16.3258C51.9713 16.6775 51.4944 16.875 50.9971 16.875C50.4998 16.875 50.0229 16.6775 49.6712 16.3258C49.3196 15.9742 49.1221 15.4973 49.1221 15V10.3556C43.8687 15.7788 37.8636 20.4193 31.2908 24.135C25.2535 27.5282 18.7963 30.1128 12.0852 31.8225C11.6033 31.9453 11.0924 31.8717 10.6648 31.6178C10.2372 31.3639 9.92803 30.9506 9.8052 30.4688V30.4631Z" fill="url(#paint0_linear_7256_8432)"/>
<defs>
<linearGradient id="paint0_linear_7256_8432" x1="20.2189" y1="63.9581" x2="54.1096" y2="5.2575" gradientUnits="userSpaceOnUse">
<stop stop-color="#1075FF"/>
<stop offset="1" stop-color="#87BFFF"/>
</linearGradient>
</defs>
</svg>
