<svg width="60" height="60" viewBox="0 0 60 60" fill="none" xmlns="http://www.w3.org/2000/svg">
<path d="M6.56249 1.87451H53.4375C56.0344 1.87451 58.125 3.96513 58.125 6.56201V12.7135C58.125 15.3103 56.0344 17.401 53.4375 17.401H6.56249C3.96562 17.401 1.875 15.3103 1.875 12.7135V6.56201C1.875 3.96513 3.96562 1.87451 6.56249 1.87451Z" fill="url(#paint0_linear_7256_8423)"/>
<path d="M2.68066 13.4449V13.9119H3.61817V13.4449H2.68066ZM5.02624 13.4449V13.9119H5.96375V13.4449H5.02624ZM7.36908 13.4449V13.9119H8.30659V13.4449H7.36908ZM9.71191 13.4449V13.9119H10.6494V13.4449H9.71191ZM12.0575 13.4449V13.9119H12.995V13.4449H12.0575ZM14.4003 13.4449V13.9119H15.3378V13.4449H14.4003ZM16.7432 13.4449V13.9119H17.6807V13.4449H16.7432ZM19.0887 13.4449V13.9119H20.0263V13.4449H19.0887ZM21.4316 13.4449V13.9119H22.3691V13.4449H21.4316ZM23.7744 13.4449V13.9119H24.7119V13.4449H23.7744ZM26.12 13.4449V13.9119H27.0575V13.4449H26.12ZM28.4628 13.4449V13.9119H29.4003V13.4449H28.4628ZM30.8057 13.4449V13.9119H31.7432V13.4449H30.8057ZM33.1512 13.4449V13.9119H34.0888V13.4449H33.1512ZM35.4941 13.4449V13.9119H36.4316V13.4449H35.4941ZM37.8369 13.4449V13.9119H38.7744V13.4449H37.8369ZM40.1825 13.4449V13.9119H41.1173V13.4449H40.1825ZM42.5253 13.4449V13.9119H43.4628V13.4449H42.5253ZM44.8682 13.4449V13.9119H45.8057V13.4449H44.8682ZM47.2101 13.4449V13.9119H48.1485V13.4449H47.2101ZM49.3506 13.4449V13.9119H50.2881V13.4449H49.3506ZM51.6962 13.4449V13.9119H52.6337V13.4449H51.6962ZM54.039 13.4449V13.9119H54.9765V13.4449H54.039ZM56.3818 13.4449V13.9119H57.3193V13.4449H56.3818Z" fill="#024292"/>
<path d="M4.22102 26.2701C2.92612 26.2713 1.87553 25.2223 1.875 23.9274C1.87571 22.6326 2.92612 21.5836 4.22102 21.5848H55.9054C57.1989 21.5855 58.2474 22.6339 58.2479 23.9274C58.2474 25.221 57.1989 26.2694 55.9054 26.2701H4.22102Z" fill="url(#paint1_linear_7256_8423)"/>
<path d="M4.22005 37.5117C2.92515 37.5104 1.87455 38.5595 1.87402 39.8543C1.87473 41.1492 2.92515 42.1982 4.22005 42.1969H55.7838C57.0773 42.1963 58.1258 41.1479 58.1263 39.8543C58.1258 38.5608 57.0773 37.5124 55.7838 37.5117H4.22005Z" fill="url(#paint2_linear_7256_8423)"/>
<path d="M4.22005 45.4752C2.92515 45.4739 1.87455 46.523 1.87402 47.8178C1.87473 49.1127 2.92515 50.1617 4.22005 50.1604H55.7838C57.0773 50.16 58.1258 49.1114 58.1263 47.8178C58.1258 46.5243 57.0773 45.4759 55.7838 45.4752H4.22005Z" fill="url(#paint3_linear_7256_8423)"/>
<path d="M4.22005 53.4386C2.92515 53.4373 1.87455 54.4864 1.87402 55.7812C1.87473 57.0761 2.92515 58.1251 4.22005 58.1238H55.7838C57.0773 58.1233 58.1258 57.0747 58.1263 55.7812C58.1258 54.4877 57.0773 53.4393 55.7838 53.4386H4.22005Z" fill="url(#paint4_linear_7256_8423)"/>
<path d="M4.22102 29.5483C2.92612 29.5471 1.87553 30.5961 1.875 31.891C1.87571 33.1858 2.92612 34.2348 4.22102 34.2335H55.9054C57.1989 34.2329 58.2474 33.1845 58.2479 31.891C58.2474 30.5974 57.1989 29.549 55.9054 29.5483H4.22102Z" fill="url(#paint5_linear_7256_8423)"/>
<defs>
<linearGradient id="paint0_linear_7256_8423" x1="28.8053" y1="17.6758" x2="28.8053" y2="1.76632" gradientUnits="userSpaceOnUse">
<stop stop-color="#1E88E5"/>
<stop offset="1" stop-color="#A2D2FA"/>
</linearGradient>
<linearGradient id="paint1_linear_7256_8423" x1="38.56" y1="26.1655" x2="38.56" y2="21.483" gradientUnits="userSpaceOnUse">
<stop stop-color="#FF7E3F"/>
<stop offset="1" stop-color="#FFBE3F"/>
</linearGradient>
<linearGradient id="paint2_linear_7256_8423" x1="8.67772" y1="37.6175" x2="8.67772" y2="42.2999" gradientUnits="userSpaceOnUse">
<stop stop-color="#F5F8FF"/>
<stop offset="1" stop-color="#A0C9FF"/>
</linearGradient>
<linearGradient id="paint3_linear_7256_8423" x1="8.67772" y1="45.5793" x2="8.67772" y2="50.2618" gradientUnits="userSpaceOnUse">
<stop stop-color="#F5F8FF"/>
<stop offset="1" stop-color="#A0C9FF"/>
</linearGradient>
<linearGradient id="paint4_linear_7256_8423" x1="8.67772" y1="53.5429" x2="8.67772" y2="58.2253" gradientUnits="userSpaceOnUse">
<stop stop-color="#F5F8FF"/>
<stop offset="1" stop-color="#A0C9FF"/>
</linearGradient>
<linearGradient id="paint5_linear_7256_8423" x1="38.56" y1="29.6539" x2="38.56" y2="34.3364" gradientUnits="userSpaceOnUse">
<stop stop-color="#F5F8FF"/>
<stop offset="1" stop-color="#A0C9FF"/>
</linearGradient>
</defs>
</svg>
