<svg width="511" height="377" viewBox="0 0 511 377" fill="none" xmlns="http://www.w3.org/2000/svg">
<path opacity="0.5" d="M457.473 72.4509V207.986C411.082 200.302 336.071 195.319 251.425 195.319C166.779 195.319 91.7681 200.302 45.377 207.986V72.4509C91.7681 80.135 166.779 85.1181 251.425 85.1181C336.071 85.1181 411.082 80.135 457.473 72.4509Z" fill="#B1DCFB"/>
<g opacity="0.5">
<path d="M247.059 108.523V117.784C256.143 117.784 263.508 125.148 263.508 134.232C263.508 143.316 256.143 150.681 247.059 150.681C242.352 150.681 238.107 148.696 235.109 145.532L228.56 152.103C233.234 156.943 239.794 159.952 247.048 159.952C261.248 159.952 272.768 148.443 272.768 134.232C272.768 120.021 261.259 108.523 247.059 108.523Z" fill="#0072FF"/>
<path d="M247.059 108.523V117.784C237.975 117.784 230.61 125.148 230.61 134.232C230.61 138.609 232.319 142.589 235.108 145.532L228.56 152.103C224.084 147.473 221.339 141.178 221.339 134.232C221.339 120.033 232.848 108.523 247.048 108.523H247.059Z" fill="#F7F7F7"/>
</g>
<path d="M275.524 165.85H225.804V169.213H275.524V165.85Z" fill="#F7F7F7"/>
<path d="M257.334 171.792H225.804V175.155H257.334V171.792Z" fill="#F7F7F7"/>
<g opacity="0.5">
<path d="M326.998 108.523V117.795C335.597 117.795 342.564 125.159 342.564 134.243C342.564 143.327 335.597 150.681 326.998 150.681V159.952C340.436 159.952 351.34 148.443 351.34 134.243C351.34 120.044 340.447 108.523 326.998 108.523Z" fill="#F99595"/>
<path d="M315.985 122.612C313.162 125.589 311.421 129.701 311.421 134.243C311.421 138.785 313.03 142.6 315.676 145.543C318.52 148.707 322.533 150.681 326.998 150.681V159.952C320.119 159.952 313.912 156.943 309.48 152.103C305.247 147.473 302.645 141.178 302.645 134.243C302.645 120.033 313.548 108.523 326.998 108.523V117.795C322.688 117.795 318.796 119.636 315.985 122.612Z" fill="#F7F7F7"/>
</g>
<path d="M353.953 165.85H306.878V169.213H353.953V165.85Z" fill="#F7F7F7"/>
<path d="M336.732 171.792H306.878V175.155H336.732V171.792Z" fill="#F7F7F7"/>
<g opacity="0.5">
<path d="M395.691 108.523V117.795C403.199 117.795 409.274 125.159 409.274 134.243C409.274 138.664 407.84 142.655 405.492 145.609L411.026 152.015C414.676 147.406 416.925 141.144 416.925 134.243C416.925 120.033 407.421 108.523 395.691 108.523Z" fill="#FCC13D"/>
<path d="M411.027 152.015C407.168 156.909 401.722 159.952 395.692 159.952C389.661 159.952 384.281 156.943 380.423 152.103C376.73 147.473 374.458 141.178 374.458 134.243C374.458 120.033 383.962 108.523 395.692 108.523V117.795C391.943 117.795 388.548 119.636 386.089 122.612C383.631 125.589 382.11 129.701 382.11 134.243C382.11 138.785 383.521 142.6 385.825 145.543C388.305 148.707 391.8 150.681 395.692 150.681C399.583 150.681 403.023 148.74 405.492 145.609L411.027 152.015Z" fill="#F7F7F7"/>
</g>
<path d="M419.207 165.85H378.151V169.213H419.207V165.85Z" fill="#F7F7F7"/>
<path d="M404.191 171.792H378.151V175.155H404.191V171.792Z" fill="#F7F7F7"/>
<path d="M194.494 168.331V175.111C178.189 174.725 170.56 174.471 140.816 174.471C111.072 174.471 84.7012 174.725 68.396 175.111V168.331C84.7012 168.717 111.072 168.97 140.816 168.97C170.56 168.97 178.189 168.717 194.494 168.331Z" fill="#F7F7F7"/>
<path d="M194.494 151.276V158.056C184.561 157.67 187.251 157.417 169.138 157.417C151.024 157.417 134.973 157.67 125.04 158.056V151.276C134.973 151.662 151.024 151.915 169.138 151.915C187.251 151.915 184.561 151.662 194.494 151.276Z" fill="#F7F7F7"/>
<path d="M194.494 134.21V140.99C184.561 140.604 187.251 140.351 169.138 140.351C151.024 140.351 134.973 140.604 125.04 140.99V134.21C134.973 134.596 151.024 134.849 169.138 134.849C187.251 134.849 184.561 134.596 194.494 134.21Z" fill="#F7F7F7"/>
<path d="M85.7708 152.051L92.1862 151.948L92.2225 154.208C92.2466 155.707 91.0535 156.939 89.5544 156.963L88.5513 156.979C87.0521 157.003 85.8201 155.81 85.7961 154.311L85.7598 152.052L85.7708 152.051Z" fill="#262528"/>
<path d="M83.7847 145.105L94.0141 144.941L94.1332 152.36C94.1513 153.484 93.2511 154.413 92.1267 154.432L85.9758 154.53C84.8515 154.548 83.9219 153.648 83.9038 152.524L83.7847 145.105Z" fill="#9F98A2"/>
<path d="M94.1272 149.302L83.7641 149.468C83.0806 149.468 82.5183 148.938 82.5073 148.255C82.5073 147.571 83.0365 147.009 83.72 146.998L94.0831 146.833C94.7666 146.822 95.3288 147.362 95.3399 148.045C95.3399 148.729 94.8107 149.291 94.1272 149.302Z" fill="#BDB6BF"/>
<path d="M87.9091 149.401L85.7373 149.434C85.0537 149.434 84.4915 148.905 84.4805 148.222C84.4805 147.538 85.0097 146.976 85.6932 146.965L87.865 146.932C88.5485 146.932 89.1108 147.461 89.1218 148.145C89.1218 148.828 88.5926 149.39 87.9091 149.401Z" fill="#D7D3D9"/>
<path d="M94.1823 153.028L83.8193 153.194C83.1358 153.194 82.5735 152.665 82.5625 151.981C82.5625 151.298 83.0917 150.735 83.7752 150.724L94.1382 150.559C94.8217 150.548 95.384 151.088 95.395 151.772C95.395 152.455 94.8658 153.017 94.1823 153.028Z" fill="#BDB6BF"/>
<path d="M86.9498 153.15H86.8286C86.1451 153.161 85.5828 152.621 85.5718 151.937C85.5718 151.254 86.101 150.691 86.7845 150.68H86.9057C87.5893 150.669 88.1515 151.21 88.1625 151.893C88.1625 152.577 87.6334 153.139 86.9498 153.15Z" fill="#D7D3D9"/>
<path d="M103.179 127.849C103.057 120.429 96.4536 114.509 88.4168 114.641C80.3799 114.774 73.9747 120.892 74.0959 128.312C74.1731 132.755 76.5654 136.668 80.2145 139.05C80.2145 139.05 81.9233 139.954 82.1438 142.467L82.1769 144.275C82.1879 145.124 82.9486 145.797 83.8636 145.786L94.0062 145.62C94.9212 145.609 95.6599 144.904 95.6488 144.055L95.6158 142.236C95.7701 139.722 97.4017 138.785 97.4017 138.785C100.974 136.282 103.256 132.292 103.179 127.849Z" fill="#EEC542"/>
<path d="M99.3306 129.172C99.4187 134.97 94.7995 139.755 89.0006 139.843C83.2017 139.931 78.4171 135.312 78.3289 129.513C78.2407 123.714 82.8599 118.93 88.6588 118.842C94.4577 118.753 99.2424 123.373 99.3306 129.172Z" fill="#F3D372"/>
<path d="M87.3913 145.73L87.1487 130.583C87.1267 129.458 86.2116 128.565 85.0871 128.587C83.9626 128.609 83.0697 129.524 83.0917 130.649L83.1138 131.784C83.1358 132.909 84.0508 133.802 85.1753 133.78L88.6811 133.736" stroke="white" stroke-width="0.418931" stroke-miterlimit="10"/>
<path d="M90.379 145.686L90.1365 130.539C90.1144 129.414 91.0074 128.499 92.1319 128.477C93.2564 128.455 94.1714 129.348 94.1935 130.472L94.2155 131.608C94.2376 132.732 93.3446 133.647 92.2201 133.67L88.4497 133.736" stroke="white" stroke-width="0.418931" stroke-miterlimit="10"/>
<path d="M79.8726 121.851C80.8096 120.661 81.9893 119.657 83.3232 118.919" stroke="white" stroke-width="2.49154" stroke-linecap="round" stroke-linejoin="round"/>
<path d="M77.7004 131.42C77.535 130.671 77.4358 129.888 77.4248 129.094" stroke="white" stroke-width="1.7088" stroke-linecap="round" stroke-linejoin="round"/>
<path d="M100.213 128.719C100.235 129.789 100.102 130.825 99.8379 131.806" stroke="white" stroke-width="1.7088" stroke-linecap="round" stroke-linejoin="round"/>
<path opacity="0.5" d="M194.494 117.155V123.935C184.561 123.549 187.251 123.296 169.138 123.296C151.024 123.296 134.973 123.549 125.04 123.935V117.155C134.973 117.541 151.024 117.794 169.138 117.794C187.251 117.794 184.561 117.541 194.494 117.155Z" fill="#0072FF"/>
<path d="M506.863 189.476L473.337 189.553C471.11 189.553 469.302 187.756 469.291 185.518C469.291 183.291 471.088 181.483 473.326 181.472L506.852 181.395C509.078 181.395 510.886 183.192 510.898 185.43C510.898 187.657 509.101 189.465 506.863 189.476Z" fill="#B1DCFB"/>
<path d="M282.095 8.12296L213.534 8.20013C211.307 8.20013 209.499 6.40314 209.488 4.16516C209.488 1.93821 211.285 0.130196 213.523 0.119172L282.084 0.0419922C284.311 0.0419922 286.119 1.83899 286.13 4.07696C286.13 6.30391 284.333 8.11193 282.095 8.12296Z" fill="#B1DCFB"/>
<path d="M435.237 6.96386L428.831 6.9728C427.151 6.97515 425.79 8.33934 425.793 10.0198L425.801 16.0282C425.804 17.7086 427.168 19.069 428.848 19.0667L435.253 19.0577C436.934 19.0554 438.294 17.6912 438.292 16.0107L438.284 10.0024C438.281 8.3219 436.917 6.96151 435.237 6.96386Z" fill="#B1DCFB"/>
<path d="M23.8718 237.972L17.4666 237.981C15.7861 237.983 14.4257 239.348 14.4281 241.028L14.4365 247.036C14.4388 248.717 15.803 250.077 17.4835 250.075L23.8887 250.066C25.5692 250.064 26.9296 248.699 26.9272 247.019L26.9188 241.011C26.9165 239.33 25.5523 237.97 23.8718 237.972Z" fill="#B1DCFB"/>
<path d="M15.5726 287.021L9.96118 287.028C8.48163 287.031 7.2839 288.232 7.28597 289.711L7.29332 294.981C7.29539 296.46 8.49647 297.658 9.97602 297.656L15.5875 297.648C17.067 297.646 18.2648 296.445 18.2627 294.966L18.2553 289.696C18.2533 288.216 17.0522 287.019 15.5726 287.021Z" fill="white"/>
<path d="M244.368 44.9232L238.756 44.9311C237.277 44.9331 236.079 46.1342 236.081 47.6138L236.088 52.8835C236.09 54.363 237.291 55.5608 238.771 55.5587L244.382 55.5508C245.862 55.5488 247.06 54.3477 247.058 52.8682L247.05 47.5985C247.048 46.1189 245.847 44.9212 244.368 44.9232Z" fill="white"/>
<path d="M58.5513 62.5177H25.147C22.9532 62.5177 21.1782 60.7428 21.1782 58.5489C21.1782 56.355 22.9532 54.5801 25.147 54.5801H58.5513C60.7452 54.5801 62.5201 56.355 62.5201 58.5489C62.5201 60.7428 60.7452 62.5177 58.5513 62.5177Z" fill="white"/>
<path d="M334.219 70.1027H300.815C298.621 70.1027 296.846 68.3277 296.846 66.1339C296.846 63.94 298.621 62.165 300.815 62.165H334.219C336.413 62.165 338.188 63.94 338.188 66.1339C338.188 68.3277 336.413 70.1027 334.219 70.1027Z" fill="#0072FF"/>
<path d="M419.085 285.202C419.085 285.202 408.535 281.872 399.164 276.911L398.679 273.009L395.614 274.905C388.382 270.539 382.936 265.214 385.681 259.879C388.47 254.466 394.721 253.462 401.071 256.163L401.534 260.904L404.687 258.093C411.941 262.778 418.468 272.193 419.085 285.202Z" fill="#FC8D2A"/>
<path d="M387.699 260.904C387.699 260.904 415.227 263.891 422.735 295.851" stroke="#080808" stroke-width="0.970156" stroke-miterlimit="10"/>
<path d="M424.851 272.248C424.851 272.248 415.095 260.628 402.891 247.597L405.217 241.853C405.217 241.853 401.479 242.283 398.404 242.691C387.765 229.881 393.079 220.885 395.361 218.371C397.389 216.144 407.841 210.213 418.534 220.708L417.884 226.364H423.165C423.738 227.202 424.3 228.084 424.851 229.032C437.375 250.342 424.851 272.259 424.851 272.259V272.248Z" fill="#FC8D2A"/>
<path d="M398.029 218.36C398.029 218.36 422.084 237.168 424.025 260.893C425.965 284.628 426.02 301.408 426.02 301.408" stroke="#080808" stroke-width="0.970156" stroke-miterlimit="10"/>
<path d="M454.066 264.906L450.494 264.299L451.464 267.122C438.257 278.058 436.669 276.934 431.356 283.769C431.356 283.769 425.336 261.852 438.93 249.538L442.909 250.894L442.391 246.892C459.27 236.022 468.034 252.371 454.077 264.906H454.066Z" fill="#FC8D2A"/>
<path d="M457.836 247.178C457.836 247.178 431.686 257.585 429.503 297.307" stroke="#080808" stroke-width="0.970156" stroke-miterlimit="10"/>
<path d="M449.855 291.563H402.075C402.075 291.563 399.958 309.82 404.17 325.055V346.09C404.17 348.119 405.349 349.982 407.179 350.842C408.116 351.283 408.998 351.514 409.814 351.514C410.63 351.514 411.335 351.305 411.964 350.886C413.772 349.684 414.83 346.807 415.117 342.298C418.06 344.194 421.632 345.307 425.954 345.318C430.97 345.318 434.994 343.896 438.202 341.482C438.412 346.465 439.492 349.607 441.399 350.886C442.039 351.305 442.766 351.514 443.549 351.514C444.376 351.514 445.258 351.294 446.195 350.842C448.014 349.982 449.194 348.108 449.194 346.09V319.808H449.161C451.652 305.928 449.833 291.552 449.833 291.552L449.855 291.563ZM411.424 350.092C410.432 350.754 409.131 350.721 407.587 349.982C406.099 349.276 405.129 347.744 405.129 346.101V328.175C407.036 333.666 409.913 338.538 414.18 341.658C413.915 347.171 412.603 349.309 411.424 350.092ZM448.235 346.101C448.235 347.744 447.275 349.276 445.787 349.982C444.233 350.721 442.954 350.743 441.94 350.092C440.694 349.254 439.305 346.939 439.161 340.721C443.77 336.786 446.57 330.744 448.235 324.218V346.101Z" fill="#070707"/>
<path d="M452.435 287.539H399.484V295.609H452.435V287.539Z" fill="#2A2832"/>
<path d="M159.524 308.717C159.524 308.717 155.986 304.528 148.213 299.181V296.734L146.493 297.935C140.11 292.875 140.408 287.815 146.648 287.098C148.434 286.9 150.143 287.153 151.708 287.958L151.565 290.339L154.111 289.755C157.154 292.886 159.26 298.905 159.524 308.717Z" fill="#0072FF"/>
<path d="M183.657 282.678C182.941 283.703 181.816 284.849 180.482 286.073L176.767 284.96L177.351 288.697C170.637 293.978 161.696 299.369 161.696 299.369C161.299 290.273 163.096 279.392 170.924 274.619L173.669 275.931L172.82 273.626C173.382 273.384 173.989 273.163 174.606 272.965C185.564 269.647 187.968 276.614 183.668 282.667L183.657 282.678Z" fill="#0072FF"/>
<path d="M159.337 278.709C159.337 278.709 153.219 275.666 148.225 271.598V268.621L146.13 269.768C142.955 266.725 140.86 263.33 142.393 260.287C144.123 256.847 148.026 256.583 151.697 258.776L151.852 261.654L154.012 260.529C157.827 264.09 160.704 270.473 159.348 278.698L159.337 278.709Z" fill="#0072FF"/>
<path d="M182.18 265.975L178.476 264.862V267.397C172.511 269.547 165.18 271.642 165.18 271.642C166.503 264.708 169.722 258.49 176.315 256.483L177.781 257.894L178.773 255.954C179.225 255.888 179.699 255.855 180.185 255.822C189.401 255.37 188.177 263.418 182.18 265.964V265.975Z" fill="#0072FF"/>
<path d="M162.424 263.737C162.424 263.737 156.14 256.748 148.742 249.372L149.779 245.602L145.821 246.506C145.744 246.429 145.666 246.363 145.589 246.285C136.913 237.907 141.191 226.485 154.122 231.513C155.346 231.987 156.437 232.571 157.397 233.266L156.934 236.463L160.131 235.779C166.293 243.166 164.673 256.108 162.424 263.737Z" fill="#0072FF"/>
<path d="M186.898 243.507C186.248 244.907 185.134 246.252 183.745 247.52L180.305 247.895L180.658 249.946C174.936 253.903 167.715 256.582 167.715 256.582C167.715 256.582 167.859 246.032 174.936 239.285C175.036 239.186 175.135 239.097 175.234 239.009L178.089 239.968L177.847 237.102C184.043 233.629 189.786 237.289 186.898 243.507Z" fill="#0072FF"/>
<path d="M177.792 310.195H142.393L148.103 346.586V360.091C148.103 360.091 148.103 361.26 148.985 362.065C149.547 362.583 150.308 362.848 151.256 362.848C151.389 362.848 151.532 362.848 151.675 362.837C154.575 362.616 154.475 356.916 154.398 352.33C154.398 351.856 154.387 351.404 154.376 350.963H167.793C167.793 351.404 167.782 351.856 167.771 352.33C167.694 356.916 167.584 362.616 170.494 362.837C170.637 362.837 170.781 362.848 170.913 362.848C171.872 362.848 172.633 362.583 173.184 362.065C174.055 361.26 174.066 360.136 174.066 360.091V347.138L177.792 310.195ZM153.483 352.352C153.549 356.112 153.649 361.778 151.609 361.933C150.727 361.999 150.055 361.822 149.614 361.414C149.04 360.885 149.018 360.102 149.018 360.102V350.963H153.461C153.461 351.404 153.472 351.867 153.483 352.352ZM172.567 361.403C172.126 361.811 171.442 361.988 170.56 361.922C168.521 361.767 168.62 356.101 168.686 352.341C168.686 351.867 168.697 351.404 168.708 350.952H173.151V360.091C173.151 360.091 173.14 360.874 172.567 361.403Z" fill="#070707"/>
<path d="M179.611 307.339H140.331V313.05H179.611V307.339Z" fill="#252728"/>
<path d="M185.785 239.285C185.785 239.285 161.343 249.328 160.098 284.959C158.841 320.591 160.098 326.07 160.098 326.07" stroke="#252728" stroke-width="0.915034" stroke-miterlimit="10"/>
<path d="M143.605 289.38C143.605 289.38 157.64 292.886 159.525 308.717" stroke="#252728" stroke-width="0.915034" stroke-miterlimit="10"/>
<path d="M183.646 274.299C183.646 274.299 159.767 286.481 159.524 311.749" stroke="#252728" stroke-width="0.915034" stroke-miterlimit="10"/>
<path d="M143.605 260.981C143.605 260.981 159.756 266.085 160.087 284.959" stroke="#252728" stroke-width="0.915034" stroke-miterlimit="10"/>
<path d="M145.59 233.354C145.59 233.354 164.982 246.815 162.424 269.239" stroke="#252728" stroke-width="0.915034" stroke-miterlimit="10"/>
<path d="M185.785 259.383C185.785 259.383 161.344 261.819 160.098 288.002" stroke="#252728" stroke-width="0.915034" stroke-miterlimit="10"/>
<path d="M57.6141 182.178H11.2119C5.01615 182.178 0 177.162 0 170.966C0 164.77 5.01615 159.754 11.2119 159.754H57.603C63.7988 159.754 68.8149 164.77 68.8149 170.966C68.8149 177.162 63.7988 182.178 57.603 182.178H57.6141Z" fill="#FF8403"/>
<path d="M24.971 170.999C24.971 172.587 23.6922 173.877 22.1157 173.877C20.5392 173.877 19.2383 172.598 19.2383 171.021C19.2383 169.434 20.5171 168.144 22.0936 168.144C23.6812 168.144 24.971 169.423 24.971 170.999Z" fill="white"/>
<path d="M37.285 170.955C37.285 172.543 36.0061 173.833 34.4296 173.833C32.8421 173.833 31.5522 172.554 31.5522 170.977C31.5522 169.39 32.8311 168.1 34.4076 168.1C35.9951 168.1 37.285 169.379 37.285 170.955Z" fill="white"/>
<path d="M49.5887 170.922C49.5887 172.51 48.3099 173.799 46.7334 173.799C45.1458 173.799 43.856 172.521 43.856 170.944C43.856 169.368 45.1348 168.067 46.7113 168.067C48.2878 168.067 49.5887 169.345 49.5887 170.922Z" fill="white"/>
<path d="M441.157 115.777H479.301C481.848 115.777 483.91 117.839 483.91 120.386V153.272C483.91 155.818 481.848 157.88 479.301 157.88H442.446C439.183 157.88 436.548 155.234 436.548 151.982V120.397C436.548 117.85 438.61 115.788 441.157 115.788V115.777Z" fill="#0072FF"/>
<path d="M456.315 145.907C460.328 145.974 464.396 146.029 468.09 145.775C469.258 145.698 470.272 143.835 468.85 143.25C469.446 142.942 470.052 142.644 470.316 141.983C470.559 141.343 470.261 140.483 469.611 140.318C471 140.66 471.551 138.455 470.471 137.738C471.044 137.253 471.529 136.603 471.65 135.853C471.772 135.103 471.463 134.265 470.802 133.902C470.372 133.67 469.853 133.659 469.357 133.648C467.682 133.637 466.017 133.626 464.341 133.615C464.793 131.002 464.926 128.147 463.603 125.854C463.206 125.159 462.125 124.332 461.276 124.862C460.472 125.358 460.703 126.603 460.736 127.386C460.902 130.638 459.049 133.913 456.183 135.445C456.183 135.445 456.371 142.368 456.326 145.907H456.315Z" fill="#F9F9F9"/>
<path d="M454.86 135.445H448.786V145.896H454.86V135.445Z" fill="#F9F9F9"/>
<path d="M166.845 11.1106H123.827C119.51 11.1106 116.011 14.6101 116.011 18.927V51.8902C116.011 56.2071 119.51 59.7066 123.827 59.7066H166.845C171.162 59.7066 174.661 56.2071 174.661 51.8902V18.927C174.661 14.6101 171.162 11.1106 166.845 11.1106Z" fill="#F99595"/>
<path d="M132.558 39.2119H125.547V48.4394H132.558V39.2119Z" fill="#F7F7F7"/>
<path d="M143.418 32.9392H136.406V48.4397H143.418V32.9392Z" fill="#F7F7F7"/>
<path d="M154.265 28.1436H147.254V48.4397H154.265V28.1436Z" fill="#F7F7F7"/>
<path d="M165.125 20.9446H158.113V48.4287H165.125V20.9446Z" fill="#F7F7F7"/>
<path d="M371.217 60.9999L407.056 61.2501C411.55 61.2815 415.218 57.6643 415.249 53.171L415.495 18.0037C415.526 13.5104 411.909 9.84237 407.416 9.811L371.576 9.56079C367.083 9.52942 363.415 13.1465 363.383 17.6399L363.138 52.8072C363.106 57.3005 366.723 60.9685 371.217 60.9999Z" fill="#FF8403"/>
<path d="M370.402 34.5266V36.0039C370.391 36.6544 370.854 37.2166 371.493 37.3269L373.235 37.6466C373.433 38.4073 373.731 39.1349 374.117 39.8184L373.092 41.2626C372.717 41.7918 372.772 42.5084 373.224 42.9714L374.26 44.0187C374.712 44.4818 375.44 44.5479 375.969 44.1841L377.391 43.2029C378.064 43.5998 378.791 43.9085 379.552 44.1179L379.85 45.8488C379.96 46.4882 380.511 46.9623 381.161 46.9623H382.661C383.311 46.9733 383.873 46.5103 383.984 45.8708L384.303 44.14C385.064 43.9415 385.792 43.6439 386.475 43.258L387.908 44.2833C388.438 44.6581 389.154 44.603 389.617 44.151L390.665 43.1147C391.128 42.6627 391.194 41.9351 390.83 41.4059L389.827 39.9507C390.224 39.2782 390.532 38.5506 390.742 37.7899L392.473 37.4922C393.112 37.382 393.586 36.8308 393.586 36.1803V34.703C393.597 34.0526 393.134 33.4903 392.495 33.3801L390.764 33.0604C390.565 32.2997 390.268 31.5721 389.882 30.8885L390.907 29.4554C391.282 28.9262 391.227 28.2096 390.775 27.7466L389.739 26.6992C389.287 26.2362 388.559 26.1701 388.03 26.5339L386.586 27.493C385.913 27.0961 385.185 26.7874 384.425 26.578L384.127 24.8471C384.017 24.2077 383.466 23.7336 382.815 23.7336H381.316C380.676 23.7336 380.136 24.1967 380.015 24.8251L379.706 26.6C378.946 26.7985 378.218 27.0961 377.534 27.482L376.101 26.4567C375.583 26.0708 374.855 26.1149 374.392 26.5669L373.345 27.6032C372.882 28.0552 372.816 28.7829 373.18 29.312L374.183 30.7673C373.786 31.4398 373.477 32.1674 373.268 32.9281L371.526 33.2257C370.887 33.336 370.413 33.8872 370.413 34.5266H370.402ZM378.019 35.3424C378.019 35.3424 378.019 35.3314 378.019 35.3204C378.031 33.1265 379.827 31.3516 382.021 31.3736C384.215 31.3846 385.99 33.1816 385.968 35.3755C385.957 37.5694 384.16 39.3443 381.966 39.3223C379.783 39.3113 378.008 37.5253 378.019 35.3424Z" fill="white"/>
<path d="M393.839 44.0299V44.7685C393.839 45.0993 394.06 45.3749 394.379 45.43L395.25 45.5844C395.349 45.9592 395.493 46.334 395.691 46.6758L395.184 47.4034C394.997 47.668 395.03 48.0318 395.25 48.2633L395.768 48.7925C396 49.024 396.353 49.0571 396.628 48.8697L397.334 48.3736C397.676 48.572 398.039 48.7263 398.414 48.8256L398.558 49.6965C398.613 50.0162 398.888 50.2587 399.208 50.2587H399.958C400.288 50.2587 400.564 50.0383 400.619 49.7185L400.774 48.8476C401.148 48.7484 401.523 48.6051 401.865 48.4066L402.582 48.9138C402.846 49.1012 403.21 49.0681 403.441 48.8476L403.971 48.3295C404.202 48.0979 404.235 47.7452 404.048 47.4695L403.541 46.7419C403.739 46.4002 403.893 46.0364 403.993 45.6615L404.864 45.5182C405.183 45.4631 405.426 45.1875 405.426 44.8678V44.1291C405.426 43.7984 405.205 43.5228 404.886 43.4677L404.015 43.3133C403.916 42.9385 403.772 42.5636 403.574 42.2219L404.081 41.5053C404.268 41.2407 404.235 40.8769 404.015 40.6454L403.497 40.1162C403.265 39.8847 402.912 39.8516 402.637 40.039L401.909 40.5241C401.567 40.3257 401.203 40.1713 400.829 40.0721L400.685 39.2012C400.63 38.8815 400.355 38.6389 400.035 38.6389H399.285C398.966 38.6389 398.69 38.8704 398.635 39.1791L398.48 40.0721C398.106 40.1713 397.731 40.3146 397.389 40.5131L396.672 40.006C396.408 39.8185 396.055 39.8406 395.813 40.0611L395.283 40.5792C395.052 40.8107 395.019 41.1635 395.206 41.4391L395.713 42.1668C395.515 42.5085 395.361 42.8723 395.261 43.2472L394.39 43.3905C394.071 43.4456 393.839 43.7212 393.828 44.0409L393.839 44.0299ZM397.643 44.4268C397.643 44.4268 397.643 44.4268 397.643 44.4158C397.643 43.3133 398.547 42.4313 399.649 42.4424C400.752 42.4424 401.633 43.3464 401.622 44.4488C401.622 45.5513 400.718 46.4332 399.616 46.4222C398.525 46.4222 397.643 45.5292 397.643 44.4268Z" fill="white"/>
<path d="M392.483 24.329V25.2661C392.483 25.685 392.77 26.0378 393.178 26.115L394.28 26.3134C394.402 26.7985 394.6 27.2615 394.842 27.6915L394.192 28.6176C393.95 28.9593 393.994 29.4113 394.28 29.709L394.942 30.3815C395.228 30.6791 395.691 30.7232 396.033 30.4807L396.937 29.8523C397.367 30.1059 397.83 30.3043 398.315 30.4366L398.503 31.5391C398.569 31.947 398.922 32.2446 399.341 32.2556H400.289C400.708 32.2556 401.06 31.969 401.137 31.5611L401.336 30.4587C401.821 30.3374 402.284 30.1389 402.714 29.8964L403.629 30.5469C403.971 30.7894 404.423 30.7453 404.72 30.4587L405.393 29.7972C405.691 29.5106 405.735 29.0475 405.492 28.7058L404.853 27.7797C405.106 27.3497 405.305 26.8867 405.437 26.4016L406.54 26.2142C406.947 26.1481 407.245 25.7953 407.256 25.3764V24.4393C407.256 24.0203 406.969 23.6676 406.562 23.5904L405.459 23.3919C405.338 22.9069 405.139 22.4438 404.897 22.0139L405.547 21.0989C405.79 20.7571 405.746 20.3051 405.459 20.0074L404.798 19.3349C404.511 19.0373 404.048 18.9932 403.706 19.2357L402.78 19.8421C402.35 19.5885 401.887 19.3901 401.402 19.2578L401.215 18.1553C401.149 17.7474 400.796 17.4497 400.377 17.4387H399.418C399.01 17.4387 398.668 17.7254 398.591 18.1333L398.392 19.2688C397.907 19.3901 397.444 19.5885 397.003 19.831L396.088 19.1806C395.758 18.938 395.295 18.9711 394.997 19.2467L394.324 19.9082C394.027 20.1948 393.983 20.6579 394.225 20.9996L394.865 21.9257C394.611 22.3556 394.413 22.8187 394.28 23.3038L393.167 23.4912C392.759 23.5573 392.461 23.9101 392.45 24.318L392.483 24.329ZM397.334 24.8472C397.334 24.8472 397.334 24.8472 397.334 24.8362C397.334 23.436 398.481 22.3116 399.881 22.3226C401.281 22.3226 402.405 23.4691 402.394 24.8692C402.394 26.2693 401.248 27.3938 399.848 27.3828C398.459 27.3828 397.334 26.2363 397.334 24.8472Z" fill="white"/>
<path d="M116 218.504H93.8735V248.645H116V218.504Z" fill="#455157"/>
<path d="M97.2354 232.318C97.2354 235.36 94.766 237.83 91.7232 237.83C88.6804 237.83 86.2109 235.36 86.2109 232.318C86.2109 229.275 88.6804 226.805 91.7232 226.805C94.766 226.805 97.2354 229.275 97.2354 232.318Z" fill="#E5B498"/>
<path d="M111.987 234.136C111.843 237.179 114.192 239.759 117.234 239.902C120.277 240.046 122.857 237.697 123 234.655C123.143 231.612 120.795 229.032 117.753 228.889C114.71 228.745 112.13 231.094 111.987 234.136Z" fill="#E5B498"/>
<path d="M89.8384 356.938L90.7975 365.681L98.4375 364.997L97.9634 354.182L89.8384 356.938Z" fill="#EBBA9A"/>
<path d="M59.6538 354.524L59.72 364.391L67.371 364.997L68.6057 354.524H59.6538Z" fill="#EBBA9A"/>
<path d="M72.0556 371.7C71.7028 369.947 71.2067 368.238 70.5342 366.673C69.509 365.967 68.5388 365.152 67.712 364.104C67.3261 363.619 66.9623 363.068 66.4552 362.836C66.0693 362.66 65.6504 362.693 65.2425 362.726C63.0376 362.892 60.8217 363.002 58.6168 363.101C58.6168 364.887 58.5727 366.816 58.2419 368.58C58.1207 369.209 57.6686 371.215 58.0325 372.053L72.0667 371.7H72.0556Z" fill="black"/>
<path d="M86.8064 246.77C86.8064 246.77 86.7623 246.715 86.7403 246.693C83.9731 243.551 79.5854 242.272 75.7819 243.496C65.7937 246.726 66.1575 262.183 65.3417 271.278C64.4818 280.902 63.5668 290.516 62.6187 300.118C60.8107 318.375 60.0169 338.142 57.8892 356.354C59.4546 357.17 63.666 357.545 65.4189 357.721C68.4727 358.03 69.4759 357.721 70.4461 356.927C73.0038 340.346 76.3662 322.266 79.3318 305.774C80.8863 297.108 82.088 292.897 83.7637 284.254C85.0094 277.804 85.3733 271.157 86.9387 264.773C87.6443 261.863 89.5405 259.107 89.7941 256.218C90.0917 252.834 88.9342 249.218 86.8064 246.759V246.77Z" fill="#304573"/>
<path d="M76.7082 318.727L72.8496 317.967" stroke="#122B72" stroke-width="0.804789" stroke-linecap="round" stroke-linejoin="round"/>
<path d="M76.675 318.716L72.1108 320.976" stroke="#122B72" stroke-width="0.804789" stroke-linecap="round" stroke-linejoin="round"/>
<path d="M89.6952 371.8C89.6952 371.8 89.8055 371.822 89.8606 371.833C90.3016 371.833 90.7425 371.833 91.1945 371.833C91.3048 371.833 91.415 371.833 91.5253 371.833C92.0545 371.844 92.5836 371.866 93.1128 371.899C97.247 372.119 101.48 372.759 105.548 372.737C106.971 372.737 108.47 372.649 109.738 372.119C113.034 370.741 108.933 369.132 107.599 368.415C106.188 367.655 104.975 366.949 103.476 366.321C101.58 365.527 99.7496 364.535 98.0187 363.366C95.6595 364.005 93.2231 364.303 90.7866 364.248C89.5409 364.215 87.8651 371.249 89.6842 371.789L89.6952 371.8Z" fill="black"/>
<path d="M99.3528 264.675C98.6693 260.629 95.2737 246.705 90.6434 246.054C87.6117 245.635 83.7531 246.837 81.7136 249.439C80.1371 251.456 79.3102 254.102 78.9905 256.748C78.4503 261.202 78.8693 265.909 79.1559 270.374C79.6079 277.452 81.3718 290.814 81.3718 290.814C81.3718 290.814 88.3283 342.331 88.1739 356.861C90.9411 360.511 99.9261 357.148 99.9481 356.729C100.599 345.275 100.356 326.257 100.356 317.405C100.356 307.869 100.951 274.111 99.3418 264.675H99.3528Z" fill="#344B7E"/>
<path d="M80.8425 287.231C80.17 280.054 79.4865 272.888 78.814 265.711" stroke="#122B72" stroke-width="0.804789" stroke-miterlimit="10"/>
<path d="M71.6041 270.462C74.7792 271.322 78.1196 271.984 81.3829 272.325C87.7771 272.998 93.9508 271.973 99.893 269.911C99.7497 267.783 99.5733 265.986 99.3418 264.674C98.6583 260.628 95.2627 246.704 90.6324 246.054C89.3205 245.867 87.8543 245.988 86.4431 246.396C83.6649 243.463 79.4426 242.306 75.7604 243.485C66.9187 246.341 66.1911 258.787 65.5737 267.905C67.3817 269.095 69.4764 269.867 71.5931 270.44L71.6041 270.462Z" fill="#1E3356"/>
<path d="M89.0998 190.237C89.1439 190.645 89.1769 191.053 89.199 191.439C89.2872 192.993 89.3644 194.547 89.4526 196.091C89.5408 197.645 89.7943 199.321 89.7061 200.876C89.5628 203.103 89.0887 205.241 87.0161 206.333C85.7153 206.972 84.1828 206.917 82.8709 206.355C81.8567 205.914 80.5778 205.23 80.181 204.095C79.9164 203.356 79.9164 202.54 79.9274 201.747C79.9384 199.156 79.8833 196.565 79.9825 193.974C80.0487 192.31 79.9274 190.513 80.644 188.969C81.6252 186.852 84.1498 184.78 86.498 185.706C88.3391 186.433 88.9124 188.374 89.1108 190.237H89.0998Z" fill="#E5B498"/>
<path d="M94.7444 187.569L94.7664 187.536C94.7003 187.448 94.6341 187.371 94.579 187.293C94.1821 186.632 93.8955 185.882 93.5537 185.199C93.5758 185.243 93.2451 185.64 93.212 185.717C93.1017 185.981 93.0687 186.312 93.0356 186.599C92.9474 187.216 92.9143 187.845 92.9584 188.473C92.9694 188.705 93.0025 188.958 93.1458 189.146C93.4766 189.586 94.6341 189.179 95.0972 189.112C95.2515 189.09 95.4279 189.046 95.472 188.903C95.6263 188.473 95.009 187.889 94.7554 187.547L94.7444 187.569Z" fill="#E5B498"/>
<path d="M79.4206 178.573C80.6664 177.669 83.5217 176.346 86.4983 176.423C89.7395 176.379 91.5255 177.735 92.2752 179.598C93.4107 182.454 93.8737 185.54 93.8848 188.605C93.8848 190.138 93.7745 191.681 93.5761 193.202C93.3886 194.614 92.7492 195.606 91.2389 195.87C89.8388 196.113 88.4166 196.212 86.9944 196.234C85.7266 196.256 84.2052 196.377 82.9925 196.003C80.9089 195.363 79.7072 193.313 78.9906 191.394C78.7922 190.865 78.3953 189.112 78.263 188.561C77.4803 185.221 78.1087 179.51 79.4206 178.562V178.573Z" fill="#E5B498"/>
<path d="M91.1281 174.406C90.5438 172.973 89.0335 171.958 87.479 171.969" stroke="#1F2326" stroke-width="0.804789" stroke-linecap="round" stroke-linejoin="round"/>
<path d="M92.5065 174.229C92.1096 174.02 91.5804 174.163 91.3379 174.538" stroke="#1F2326" stroke-width="0.804789" stroke-linecap="round" stroke-linejoin="round"/>
<path d="M86.6742 193.103C86.8065 193.07 86.9167 193.026 86.9829 192.938C87.1813 192.673 87.1372 191.758 87.1813 191.417C87.3026 190.435 87.4349 189.454 87.5561 188.473C87.6333 187.856 87.5672 187.326 88.0743 186.941C88.5373 186.588 89.1216 186.455 89.6949 186.455C91.7234 186.455 92.2416 186.687 91.9439 184.504C91.8006 183.468 91.558 182.398 91.7565 181.351C91.8888 180.679 92.0431 180.557 92.44 180.094C93.0684 179.367 93.7629 179.124 93.9283 178.308C92.6936 174.075 88.6806 171.639 83.9511 172.84C81.8895 173.369 79.7177 174.108 78.1412 175.387C77.4136 175.982 76.8072 176.699 76.4214 177.548C76.3222 177.757 76.245 177.989 76.256 178.22C76.267 178.408 76.3222 178.573 76.3883 178.716C75.1425 180.624 75.9143 183.159 76.2891 185.221C76.5537 186.665 76.9947 188.065 77.5679 189.41C77.8546 190.083 78.1743 190.744 78.516 191.383C78.6594 191.648 79.3429 193.214 79.5413 193.225C81.6139 193.324 83.6865 193.291 85.7481 193.158C85.9907 193.147 86.3765 193.169 86.6521 193.103H86.6742Z" fill="#1F2326"/>
<path d="M88.4273 188.495C89.1991 189.366 90.4779 189.542 91.2276 188.55C91.5693 188.098 91.6796 187.514 91.7126 186.941C91.7347 186.433 91.7126 185.915 91.5032 185.452C91.2276 184.824 90.6433 184.438 89.9818 184.306C87.7548 183.832 87.2918 187.216 88.4273 188.495Z" fill="#E5B498"/>
<path d="M89.3647 185.717C89.4088 185.419 89.8057 185.287 90.0703 185.408C90.3459 185.53 90.5113 185.805 90.6215 186.081C90.82 186.533 90.9412 187.018 90.9743 187.514C90.7208 187.426 90.4121 187.58 90.3239 187.823C90.2357 188.076 90.39 188.385 90.6436 188.462" stroke="#1F2326" stroke-width="0.518152" stroke-miterlimit="10" stroke-linecap="round"/>
<path d="M92.4072 182.751C92.9254 182.542 93.4987 182.454 94.0499 182.498" stroke="#1F2326" stroke-width="0.518152" stroke-miterlimit="10" stroke-linecap="round"/>
<path d="M94.0825 185.199C94.1266 185.585 93.851 185.937 93.4651 185.981C93.0792 186.026 92.7265 185.75 92.6824 185.364C92.6383 184.978 92.9139 184.625 93.2997 184.581C93.6856 184.537 94.0384 184.813 94.0825 185.199Z" fill="#1F2326"/>
<path d="M92.4399 191.24C92.6935 191.24 93.2668 191.163 93.5093 191.141" stroke="#1F2326" stroke-width="0.518152" stroke-miterlimit="10" stroke-linecap="round"/>
<path d="M72.9488 242.096H66.1577C62.2991 242.096 59.1792 238.976 59.1792 235.118C59.1792 231.259 62.2991 228.139 66.1577 228.139H72.9488C76.8074 228.139 79.9273 231.259 79.9273 235.118C79.9273 238.976 76.8074 242.096 72.9488 242.096Z" fill="#DD7314"/>
<path d="M69.1457 205.781C64.0083 211.757 59.3339 224.799 58.8488 232.571C58.7276 234.5 59.0803 236.529 60.2159 238.094C61.3514 239.66 63.3579 240.674 65.243 240.288C67.2495 239.88 68.6606 238.094 69.6749 236.319C71.3175 233.442 73.7209 226.155 74.3603 223.013C75.0879 219.496 76.6755 216.177 77.3039 212.583C77.7007 210.345 79.7954 199.85 74.68 201.228C73.8091 201.46 73.0704 202.011 72.3759 202.584C71.1963 203.565 70.1159 204.635 69.1347 205.77L69.1457 205.781Z" fill="#DD7314"/>
<path d="M77.7007 200.424L79.6079 197.403L89.8497 197.094L92.3082 200.589L77.7007 200.424Z" fill="white"/>
<path d="M99.7936 245.426L97.721 204.866C97.4233 204.866 97.743 201.735 96.7398 201.129C95.3176 200.269 91.426 199.663 90.3346 199.453L79.5636 199.553C78.2297 199.718 76.4106 200.236 74.8562 200.732C72.96 201.339 71.5819 202.992 71.3724 204.933L69.8731 225.67L67.8115 245.073L62.9497 259.724C64.7247 261.466 66.7532 262.943 69.0242 264.101C69.7077 264.443 70.4023 264.751 71.1078 265.038C71.1078 265.038 81.063 269.04 90.3346 266.989C92.0654 266.758 93.7852 266.46 95.461 266.074C99.055 265.27 99.7605 264.752 103.189 263.307L99.7936 245.415V245.426Z" fill="#FF8403"/>
<path d="M112.571 242.096H105.78C101.921 242.096 98.8013 238.977 98.8013 235.118C98.8013 231.259 101.921 228.139 105.78 228.139H112.571C116.429 228.139 119.549 231.259 119.549 235.118C119.549 238.977 116.429 242.096 112.571 242.096Z" fill="#FF8403"/>
<path d="M101.789 206.41C104.369 210.213 105.901 215.208 107.489 219.496C109.054 223.752 111.722 229.308 111.623 233.916C111.59 235.636 110.906 237.411 109.528 238.436C108.095 239.506 106.122 239.616 104.391 239.197C99.2314 237.973 97.7982 233.552 96.1776 229.187C94.2152 223.862 92.8482 217.909 92.5174 212.253C92.3851 209.927 91.4921 198.979 96.6075 201.052C97.4785 201.405 98.173 202.066 98.8234 202.739C99.9259 203.885 100.907 205.12 101.789 206.41Z" fill="#FF8403"/>
<path d="M99.4409 235.978C95.4721 227.864 94.987 224.931 94.1602 222.065" stroke="#D87012" stroke-width="0.892985" stroke-miterlimit="10"/>
<path d="M95.1416 225.78C94.5573 224.854 93.973 223.928 93.3887 222.991" stroke="#D87012" stroke-width="0.892985" stroke-miterlimit="10"/>
<path d="M388.503 241.798C379.088 243.661 378.824 254.487 379.651 262.238C381.381 278.598 386.133 317.349 386.133 317.349L395.184 364.876L401.512 365.229L398.15 317.14C398.15 317.14 399.759 282.104 401.369 269.9C403.982 252.801 401.016 239.34 388.503 241.809V241.798Z" fill="#2354C1"/>
<path d="M401.898 363.619C399.373 363.906 397.576 363.884 395.062 363.553C394.522 363.487 393.982 363.74 393.684 364.203C393.497 364.479 393.332 364.744 393.155 364.964C392.218 366.144 390.983 366.805 389.539 367.147C389.484 367.169 389.44 367.191 389.396 367.213C387.676 367.422 386.111 368.304 385.912 369.947H401.743C402.295 367.808 402.559 365.559 401.909 363.619H401.898Z" fill="black"/>
<path d="M402.03 369.694H385.901V371.777H402.03V369.694Z" fill="#9F98A2"/>
<path d="M390.157 242.074C380.565 241.523 377.622 251.941 376.475 259.647C374.061 275.919 370.114 314.792 370.114 314.792L373.609 364.92L380.213 364.655L383.906 315.045C383.906 315.045 390.995 283.89 395.614 272.48C402.405 256.582 402.912 242.802 390.168 242.063L390.157 242.074Z" fill="#365FE5"/>
<path d="M380.764 363.619C378.239 363.906 376.442 363.884 373.929 363.553C373.598 363.509 373.256 363.465 372.937 363.542C372.639 363.608 372.385 363.773 372.121 363.928C369.695 365.405 366.256 366.43 363.467 366.948C361.857 367.246 360.137 367.412 358.858 368.426C358.406 368.79 358.02 369.396 358.076 369.936H380.588C381.139 367.797 381.403 365.548 380.753 363.608L380.764 363.619Z" fill="black"/>
<path d="M380.554 369.694H357.557V371.777H380.554V369.694Z" fill="#9F98A2"/>
<path d="M391.358 189.741C391.414 188.66 391.336 187.569 391.127 186.521C392.725 187.062 394.401 187.106 396.044 186.665C396.849 186.444 397.62 186.124 398.37 185.772C398.635 185.65 399.12 185.254 399.572 185C398.591 188.616 398.668 192.386 400.906 195.495C399.219 196.962 397.014 197.711 394.809 198.086C392.924 198.406 388.393 198.703 389.484 195.528C389.837 194.492 390.609 193.687 390.906 192.607C391.171 191.681 391.303 190.7 391.347 189.741H391.358Z" fill="#E5B498"/>
<path d="M395.735 186.742C394.192 187.095 392.626 187.04 391.127 186.532C391.337 187.58 391.414 188.66 391.359 189.752C391.314 190.711 391.171 191.692 390.918 192.618C390.896 192.717 390.851 192.805 390.818 192.905C391.006 192.883 391.193 192.85 391.381 192.816C393.519 191.372 394.986 189.189 395.735 186.753V186.742Z" fill="#AE6E59"/>
<path d="M386.783 182.949C386.916 182.983 387.048 182.994 387.169 183.005C387.566 183.016 387.522 182.519 387.5 182.233C387.445 181.472 387.434 180.678 387.312 179.929C387.037 180.215 386.927 180.557 386.695 180.877C386.397 181.285 386.1 181.704 385.802 182.112C385.758 182.167 385.714 182.233 385.714 182.299C385.692 182.464 385.857 182.586 386.001 182.663C386.232 182.784 386.508 182.883 386.783 182.949Z" fill="#E5B498"/>
<path d="M401.027 182.652C401.7 181.086 402.052 179.378 401.997 177.68C401.942 175.839 401.336 173.987 400.156 172.564C398.436 170.492 395.504 169.511 392.891 170.128C392.219 170.282 391.568 170.547 390.973 170.9C389.518 171.749 387.82 173.446 387.588 175.21C387.533 175.607 387.61 175.982 387.544 176.379C387.434 176.974 387.302 177.558 387.213 178.154C387.026 179.344 386.927 180.546 386.982 181.748C387.048 183.159 387.225 184.581 387.776 185.871C388.327 187.172 389.209 188.043 390.278 188.594C392.285 189.641 394.71 189.311 396.584 188.054C398.547 186.753 400.101 184.824 401.027 182.641V182.652Z" fill="#E5B498"/>
<path d="M387.555 184.471C387.83 184.592 388.106 184.713 388.382 184.835" stroke="#373B44" stroke-width="0.518152" stroke-miterlimit="10" stroke-linecap="round"/>
<path d="M363.257 208.262C363.39 207.556 363.919 206.939 364.591 206.707C365.286 206.465 366.476 206.465 366.708 205.759C366.829 205.406 366.939 205.274 366.653 205.042C366.366 204.8 365.991 204.701 365.628 204.679C364.492 204.613 363.346 205.252 362.805 206.244C362.64 206.553 362.397 206.95 362.067 206.862C361.912 206.817 361.802 206.663 361.736 206.509C361.339 205.583 361.89 204.546 362.419 203.697C362.838 203.025 363.279 202.319 363.963 201.934C364.735 201.493 365.672 201.526 366.565 201.581C368.351 201.702 370.225 201.845 371.735 202.904C372.132 203.179 372.496 203.51 372.893 203.786C373.907 204.502 375.109 204.91 376.288 205.296C375.924 206.575 375.55 207.854 375.186 209.133C375.164 209.199 375.142 209.276 375.087 209.309C375.02 209.342 374.943 209.331 374.877 209.309C372.705 208.78 370.203 208.339 368.031 207.997C366.476 207.799 364.823 207.997 363.279 208.262H363.257Z" fill="#E5B498"/>
<path d="M389.572 208.692C388.437 208.152 387.224 207.678 385.978 207.248C383.829 206.509 381.569 205.903 379.408 205.34C378.592 205.12 375.45 204.337 374.612 204.205C372.264 206.123 371.603 207.402 371.603 210.224C374.083 211.878 380.102 215.273 382.837 216.574C384.369 217.302 385.89 218.074 387.566 218.57C389.242 219.077 391.127 219.297 392.858 218.923C393.762 218.724 394.655 218.316 395.052 217.666C395.294 217.258 395.327 216.795 395.316 216.343C395.217 213.278 392.979 210.312 389.572 208.692Z" fill="#C47A7A"/>
<path d="M348.738 221.623C347.812 219.97 347.592 217.908 348.275 216.133C348.529 215.483 348.959 214.821 349.62 214.612C350.425 214.358 351.307 214.843 351.814 215.516C352.321 216.188 352.564 217.015 352.883 217.798C353.236 218.636 353.699 219.43 354.25 220.157C354.824 220.907 355.529 221.634 355.695 222.572C355.827 223.31 355.573 224.104 355.033 224.633C353.049 226.595 349.697 223.332 348.738 221.623Z" fill="#E5B498"/>
<path d="M371.14 220.422L359.123 226.243L343.226 211.812L355.242 205.991L371.14 220.422Z" fill="#E1AB3D"/>
<path d="M369.177 219.816L358.858 224.821L345.122 212.352L355.441 207.347L369.177 219.816Z" fill="white"/>
<path d="M357.006 209.982L348.429 214.149L347.591 213.388L356.168 209.232L357.006 209.982Z" fill="#CCDBF5"/>
<path d="M361.394 213.962L352.817 218.118L351.979 217.368L360.556 213.201L361.394 213.962Z" fill="#CCDBF5"/>
<path d="M362.838 215.285L354.261 219.441L353.423 218.68L362 214.524L362.838 215.285Z" fill="#CCDBF5"/>
<path d="M364.293 216.596L355.716 220.764L354.878 220.003L363.455 215.836L364.293 216.596Z" fill="#CCDBF5"/>
<path d="M365.748 217.919L357.171 222.076L356.333 221.315L364.911 217.159L365.748 217.919Z" fill="#CCDBF5"/>
<path d="M367.193 219.231L358.616 223.399L357.778 222.638L366.366 218.482L367.193 219.231Z" fill="#CCDBF5"/>
<path d="M354.922 208.527L347.712 212.021L344.647 209.232L351.857 205.737L354.922 208.527Z" fill="#373B44"/>
<path d="M349.983 220.3C349.862 220.444 349.752 220.587 349.652 220.741C348.748 222.197 350.501 223.553 351.626 224.346C354.173 226.132 357.27 226.992 360.225 227.852C361.89 228.337 366.707 227.147 365.373 224.534C364.469 222.748 361.779 221.723 360.004 221.248C358.174 220.907 356.598 220.135 355.914 218.283C355.606 217.456 355.484 216.574 355.22 215.736C355.154 215.527 355.077 215.317 354.911 215.174C354.746 215.031 354.492 214.976 354.316 215.108C354.217 215.185 354.173 215.306 354.128 215.417C353.61 216.85 354.536 217.919 352.772 218.757C352.188 219.033 351.538 219.187 350.975 219.507C350.601 219.716 350.27 219.981 349.994 220.311L349.983 220.3Z" fill="#E5B498"/>
<path d="M403.21 255.601C403.21 255.601 403.618 255.436 403.926 255.281C405.646 254.399 406.22 252.161 406.396 250.199C406.782 245.679 405.349 241.412 405.525 236.639C405.712 231.579 406.892 226.375 407.609 220.929C408.226 216.177 408.469 211.051 407.41 206.156C406.616 202.507 405.525 198.439 403.287 195.584C402.207 194.205 400.255 193.654 398.745 193.29C396.86 192.838 394.897 192.883 393.012 193.445C390.576 194.183 388.327 195.782 386.574 197.976C385.24 199.641 384.589 202.474 383.906 204.591C382.374 209.375 381.315 214.314 380.753 219.077C380.158 224.082 380.885 222.472 380.621 227.4C380.367 232.328 381.778 236.242 379.254 240.343C377.92 242.504 376.233 244.378 375.384 246.726C374.557 249.03 374.822 252.04 376.773 253.528C376.663 254.399 376.531 255.27 376.453 256.141C380.367 258.048 385.549 258.456 389.738 258.842C393.563 259.184 397.411 259.206 401.259 258.897C402.372 258.897 403.232 258.666 403.232 258.666V255.623L403.21 255.601Z" fill="#F99595"/>
<path d="M402.979 255.667C397.466 256.295 391.888 256.053 386.464 254.928" stroke="#373B44" stroke-width="0.319711" stroke-miterlimit="10" stroke-linecap="round"/>
<path d="M391.656 209.32C391.38 208.791 391.05 208.284 390.565 207.953C390.035 207.6 389.385 207.512 388.757 207.534C386.011 207.655 383.829 209.904 382.362 212.231C380.896 214.557 379.761 217.192 377.666 218.978C374.017 222.098 361.702 221.205 357.612 220.301C355.485 220.488 353.037 223.31 354.294 226.243C359.773 228.646 376.299 237.433 382.285 234.588C384.369 233.596 385.923 231.865 387.202 229.914C387.941 228.778 388.591 227.577 389.198 226.386C390.565 223.729 391.865 220.995 392.494 218.074C393.122 215.152 393.012 211.977 391.645 209.32H391.656Z" fill="#EFAFAF"/>
<path d="M394.081 199.431C392.251 197.491 389.12 197.281 386.915 198.659C385.625 199.464 384.975 201.14 384.302 202.463C383.486 204.084 382.792 205.77 382.23 207.49C381.645 209.276 381.193 211.095 380.642 212.892C379.738 215.836 378.569 218.702 377.897 221.701C377.224 224.699 377.07 227.93 378.206 230.785C379.815 234.875 385.195 232.703 387.599 230.432C389.66 228.47 390.652 225.67 391.567 222.98C392.493 220.279 393.419 217.567 394.335 214.866C395.117 212.583 396.01 209.563 396.165 206.641C396.319 203.94 395.834 201.316 394.07 199.442L394.081 199.431Z" fill="#EFAFAF"/>
<path d="M379.419 217.688C380.422 211.646 383.311 204.558 386.177 199.134" stroke="#D18484" stroke-width="1.10245" stroke-miterlimit="10"/>
<path d="M395.945 211.283C394.765 214.458 393.585 217.633 392.406 220.808C391.557 223.09 390.752 226 389.142 227.886C387.544 229.76 386.045 231.81 384.082 233.354C382.175 234.853 380.554 235.305 378.129 235.063" stroke="#D18484" stroke-width="1.10245" stroke-miterlimit="10"/>
<path d="M397.234 212.12C396.176 212.727 395.283 213.631 394.699 214.7" stroke="#D18484" stroke-width="1.10245" stroke-miterlimit="10"/>
<path d="M360.226 210.731L358.814 211.503L359.531 210.059L368.075 201.206C368.262 201.019 368.571 201.008 368.759 201.195C368.946 201.382 368.957 201.691 368.77 201.879L360.226 210.731Z" fill="#373B44"/>
<path d="M387.886 180.822C387.422 180.447 386.981 180.039 386.607 179.576C384.236 176.599 385.769 173.303 387.665 170.657C389.782 167.703 393.806 166.093 397.356 166.292C399.384 166.402 401.313 167.063 402.747 168.53C403.408 169.213 403.904 169.93 404.114 170.878C404.18 171.164 404.378 173.369 403.915 173.413C407.421 173.072 407.245 180.679 407.211 182.773C407.123 188.098 407.046 193.423 406.958 198.748C406.925 200.666 406.848 202.739 405.657 204.249C404.488 205.737 402.394 206.322 400.531 205.947C398.678 205.572 397.058 204.359 395.911 202.849C394.941 201.57 393.762 199.652 393.74 197.987C393.706 196.124 393.96 194.206 393.949 192.331C393.949 189.079 393.299 185.584 391.005 183.291C390.068 182.354 388.9 181.671 387.874 180.833L387.886 180.822Z" fill="#1F2326"/>
<path d="M303.185 326.004L304.21 344.26L311.144 343.897L310.902 325.408L303.185 326.004Z" fill="#EBBA9A"/>
<path d="M303.692 342.232L291.058 349.221C290.231 349.729 289.79 350.853 290.011 351.944H312.302L311.475 342.111L303.703 342.221L303.692 342.232Z" fill="black"/>
<path d="M312.688 351.944H289.724V354.855H312.688V351.944Z" fill="#BDB6BF"/>
<path d="M325.764 326.004L326.789 344.26L333.723 343.897L333.481 325.408L325.764 326.004Z" fill="#EBBA9A"/>
<path d="M326.27 342.232L313.636 349.221C312.809 349.729 312.368 350.853 312.589 351.944H334.88L334.053 342.111L326.281 342.221L326.27 342.232Z" fill="black"/>
<path d="M335.256 351.944H312.292V354.855H335.256V351.944Z" fill="#BDB6BF"/>
<path d="M307.186 240.266L333.788 242.725L337.316 333.39H322.753L318.023 265.005L311.706 294.231L313.856 334.504L301.443 334.548L297.165 290.02L307.186 240.266Z" fill="#FC8D2A"/>
<path d="M312.082 261.069L318.024 265.005" stroke="#E56E0C" stroke-width="1.10245" stroke-miterlimit="10"/>
<path d="M307.54 212.606L307.706 221.502L303.549 221.569L303.847 211.988L307.54 212.606Z" fill="#EAA99B"/>
<path d="M307.275 197.502C307.275 197.502 300.605 202.298 301.565 217.545L307.76 215.858L307.286 197.502H307.275Z" fill="#0072FF"/>
<path d="M320.692 192.486C327.384 192.486 334.98 195.297 334.98 195.297L334.693 246.969L306.415 244.334L306.713 199.145C306.713 198.34 307.077 197.612 307.661 197.226L315.477 193.169C315.477 193.169 319.325 192.497 320.692 192.497V192.486Z" fill="#0072FF"/>
<path d="M306.603 216.166V206.2" stroke="#2C5796" stroke-width="0.804789" stroke-miterlimit="10"/>
<path d="M331.628 212.704L333.447 238.259C333.447 238.259 335.454 243.397 339.015 238.05C342.565 232.703 339.522 211.823 339.522 211.823L331.628 212.704Z" fill="#EBBA9A"/>
<path d="M330.68 218.085C330.68 218.085 328.376 196.366 333.304 195.264C338.408 194.117 343.215 208.736 343.215 220.83L330.68 218.096V218.085Z" fill="#0072FF"/>
<path d="M332.036 218.217L330.14 217.544L329.787 207.281" stroke="#2C5796" stroke-width="0.804789" stroke-miterlimit="10"/>
<path d="M319.546 214.336C319.546 214.336 318.52 209.827 314.805 209.386C311.09 208.945 309.998 212.484 310.693 214.821C311.387 217.158 313.813 220.951 317.473 219.011C321.133 217.07 319.546 214.336 319.546 214.336Z" fill="#EBBA9A"/>
<path d="M313.57 209.397C313.57 209.397 309.921 209.904 307.198 211.514C306.922 211.679 306.768 212.043 306.812 212.418C306.867 212.914 307.253 213.256 307.661 213.167L312.699 212.021L313.57 209.397Z" fill="#EBBA9A"/>
<path d="M334.23 239.571L317.484 219.011L319.545 214.336L335.851 226.893L334.23 239.571Z" fill="#EBBA9A"/>
<path d="M332.456 224.28L335.851 226.893" stroke="#DCA686" stroke-width="0.705568" stroke-miterlimit="10"/>
<path d="M296.669 219.507L303.714 244.885C303.957 245.756 304.673 246.296 305.423 246.186L322.544 243.452C323.547 243.298 324.165 242.063 323.834 240.906L316.58 215.56C316.337 214.7 315.621 214.16 314.871 214.281L297.948 216.982C296.956 217.137 296.328 218.36 296.647 219.507H296.669Z" fill="#121314"/>
<path d="M296.967 217.622L296.074 219.033L322.754 244.037L323.713 242.515L296.967 217.622Z" fill="#121314"/>
<path d="M295.865 220.764L302.909 246.142C303.152 247.013 303.869 247.553 304.618 247.443L321.739 244.709C322.742 244.555 323.36 243.32 323.029 242.162L315.775 216.817C315.532 215.957 314.816 215.417 314.066 215.538L297.144 218.239C296.151 218.394 295.523 219.617 295.843 220.764H295.865Z" fill="#455157"/>
<path d="M296.659 228.139L298.268 233.387C298.467 234.026 298.996 234.423 299.558 234.335C301.201 234.07 302.259 232.075 301.763 230.157L301.311 228.393C300.947 226.982 299.845 226.045 298.632 226.111L297.739 226.166C296.924 226.21 296.383 227.213 296.67 228.139H296.659Z" fill="#EBBA9A"/>
<path d="M316.646 185.607L316.889 192.541C316.966 194.978 318.211 196.289 320.141 196.289C321.783 196.289 323.558 195.352 323.404 193.203L323.294 182.365L316.646 185.618V185.607Z" fill="#EBBA9A"/>
<path d="M316.613 191.935C316.613 191.935 323.393 191.075 324.253 184.162C324.506 182.101 317.285 185.265 317.285 185.265L316.613 191.935Z" fill="#DCA686"/>
<path d="M314.739 194.272L317.506 192.718L322.379 192.883L325.234 193.368C325.234 193.368 326.304 198.561 319.072 198.847C313.295 199.079 314.739 194.272 314.739 194.272Z" fill="#EBBA9A"/>
<path d="M313.956 177.052C313.956 177.052 309.171 172.024 311.784 168.419C314.397 164.814 318.377 168.882 318.377 168.882L313.956 177.052Z" fill="#1F2326"/>
<path d="M318.751 167.868C318.751 167.868 333.271 167.747 326.038 179.29L324.771 173.976L318.74 167.868H318.751Z" fill="#1F2326"/>
<path d="M314.143 170.624C314.143 170.624 311.575 172.52 314.231 177.934L315.499 171.727L314.154 170.624H314.143Z" fill="#1F2326"/>
<path d="M316.216 179.709C316.26 181.087 315.334 182.189 314.143 182.178C312.964 182.156 311.971 181.02 311.927 179.642C311.883 178.264 312.809 177.162 314 177.173C315.18 177.195 316.172 178.331 316.216 179.709Z" fill="#D19B7E"/>
<path d="M318.961 187.58C315.94 187.304 313.537 184.295 313.537 181.417L313.559 175.398C313.559 171.793 316.007 168.971 319.093 169.015C322.258 169.059 325.466 172.102 325.576 175.795L325.51 180.48C325.455 184.692 322.588 187.624 318.972 187.569L318.961 187.58Z" fill="#EBBA9A"/>
<path d="M313.636 173.987C313.636 173.987 313.548 172.388 316.304 172.421C319.06 172.454 322.555 173.237 324.297 176.269L324.032 180.579L326.667 178.242L325.851 171.639L318.762 167.868L314.154 170.624L313.647 173.987H313.636Z" fill="#1F2326"/>
<path d="M328.266 180.646C328.31 182.013 327.395 183.104 326.215 183.093C325.047 183.071 324.066 181.946 324.022 180.579C323.977 179.212 324.892 178.121 326.072 178.132C327.241 178.154 328.222 179.278 328.266 180.646Z" fill="#EBBA9A"/>
<path d="M316.503 168.783C316.503 168.783 315.984 166.821 318.355 166.126C320.383 165.531 322.39 166.215 326.535 170.216L316.503 168.783Z" fill="#1F2326"/>
<path d="M313.856 184.107C313.878 183.721 314.121 183.413 314.441 183.302C314.882 183.148 315.62 182.972 316.712 182.95C318.046 182.916 319.92 183.677 320.923 184.129C321.353 184.328 321.838 184.162 322.07 183.732C322.863 182.31 324.374 178.915 323.723 174.604L325.157 176.07L324.771 178.661C324.771 178.661 323.382 181.318 325.146 182.861C325.146 182.861 324.804 188.748 319.887 189.079C318.487 189.178 316.866 188.66 315.653 187.789C314.628 187.051 313.757 185.606 313.867 184.085L313.856 184.107Z" fill="#1F2326"/>
<path d="M324.076 177.526C324.076 177.526 320.956 176.214 322.434 172.906C323.911 169.599 325.091 174.262 325.091 174.262L324.076 177.526Z" fill="#1F2326"/>
<path d="M321.089 177.867C321.056 178.374 320.781 178.749 320.483 178.705C320.185 178.661 319.976 178.209 320.009 177.702C320.042 177.195 320.318 176.82 320.615 176.864C320.913 176.908 321.122 177.36 321.089 177.867Z" fill="#1F2326"/>
<path d="M316.382 177.162C316.349 177.669 316.073 178.044 315.775 178C315.478 177.956 315.268 177.504 315.301 176.996C315.334 176.489 315.61 176.114 315.908 176.159C316.205 176.203 316.415 176.655 316.382 177.162Z" fill="#1F2326"/>
<path d="M320.438 184.317C320.438 184.317 318.024 185.981 315.257 183.534L320.438 184.317Z" fill="white"/>
<path d="M317.858 178C317.858 178 315.973 180.811 317.351 181.307C318.729 181.814 319.688 181.726 318.751 180.756C317.814 179.785 317.715 178.363 317.858 178Z" fill="#D19B7E"/>
<path d="M314.518 175.618C314.518 175.618 316.271 175.199 317.131 175.993C317.131 175.993 316.447 174.207 314.518 175.618Z" fill="#1F2326"/>
<path d="M319.667 176.379C319.667 176.379 320.967 176.048 322.037 176.688C322.037 176.688 321.695 175.1 319.667 176.379Z" fill="#1F2326"/>
<path d="M342.08 332.442V364.093C342.08 371.204 294.079 376.959 234.833 376.959C175.588 376.959 127.609 371.193 127.609 364.093V332.442H342.069H342.08Z" fill="#E2A213"/>
<path d="M234.844 345.319C294.069 345.319 342.08 339.554 342.08 332.442C342.08 325.33 294.069 319.565 234.844 319.565C175.62 319.565 127.609 325.33 127.609 332.442C127.609 339.554 175.62 345.319 234.844 345.319Z" fill="#FCC13D"/>
<path opacity="0.2" d="M238.626 339.751C272.278 339.751 299.558 336.479 299.558 332.442C299.558 328.405 272.278 325.133 238.626 325.133C204.974 325.133 177.693 328.405 177.693 332.442C177.693 336.479 204.974 339.751 238.626 339.751Z" fill="#3A3429"/>
<path d="M196.39 330.369C200.679 322.95 207.867 314.307 219.145 310.856L210.094 275.236C210.094 275.236 201.891 292.688 188.508 328.639C187.802 330.546 190.283 332.244 192.124 332.244H193.336C194.571 332.244 195.718 331.538 196.39 330.38V330.369Z" fill="#E28BD9"/>
<path d="M210.094 275.225C210.094 275.225 201.892 292.677 188.508 328.628C187.946 330.138 189.379 331.505 190.922 332.012C195.795 314.483 203.799 298.343 211.88 282.247L210.094 275.225Z" fill="#F9ACAC"/>
<path d="M190.923 332.023C191.331 332.155 191.739 332.233 192.125 332.233H193.337C194.572 332.233 195.719 331.527 196.391 330.369C200.68 322.95 207.868 314.307 219.146 310.856L211.88 282.259C203.788 298.354 195.796 314.494 190.923 332.023Z" fill="#F99595"/>
<path d="M282.944 330.369C278.655 322.95 271.468 314.307 260.189 310.856L269.241 275.236C269.241 275.236 277.443 292.688 290.827 328.639C291.532 330.546 289.052 332.244 287.211 332.244H285.998C284.763 332.244 283.617 331.538 282.944 330.38V330.369Z" fill="#F77C7C"/>
<path d="M249.981 321.373H228.494C227.645 321.373 226.906 320.723 226.719 319.797L225.539 313.987C225.286 312.719 226.146 311.506 227.314 311.506H251.16C252.329 311.506 253.189 312.719 252.935 313.987L251.755 319.797C251.568 320.723 250.829 321.373 249.981 321.373Z" fill="#344B7E"/>
<path d="M208.297 261.532C208.297 261.532 211.593 295.366 221.791 316.798C221.791 316.798 237.975 308.089 257.168 316.798C257.168 316.798 268.865 298.707 271.258 258.853C272.636 235.889 270.993 209.662 264.18 187.062H216.631C210.303 205.473 205.794 230.179 208.308 261.532H208.297Z" fill="white"/>
<path d="M269.726 213.939C268.513 204.734 266.672 195.672 264.103 187.139H216.554C210.226 205.539 205.717 230.256 208.231 261.609C208.231 261.609 209.355 273.064 212.288 286.856C240.632 274.982 261.38 246.429 269.726 213.951V213.939Z" fill="white"/>
<path d="M235.902 150.483C231.118 156.524 222.915 168.651 216.554 187.139H264.103C259.748 172.686 253.277 159.71 244.126 150.031C241.767 147.539 238.041 147.76 235.891 150.483H235.902Z" fill="#E28BD9"/>
<path d="M240.61 148.344C238.89 148.212 237.137 148.928 235.902 150.483C231.118 156.524 222.915 168.651 216.554 187.139H244.402C245.152 185.97 245.725 184.592 246.056 183.082C247.257 170.294 245.218 158.729 240.61 148.344Z" fill="#F99595"/>
<path d="M233.576 172.08C236.916 166.435 238.184 160.802 236.398 159.49C234.612 158.178 230.478 161.684 227.137 167.328C223.797 172.973 222.529 178.606 224.315 179.918C226.09 181.23 230.235 177.724 233.576 172.08Z" fill="#F9ACAC"/>
<path d="M244.138 150.03C243.134 148.972 241.889 148.432 240.61 148.344C245.218 158.729 247.258 170.294 246.056 183.082C245.714 184.592 245.152 185.97 244.402 187.139H264.103C259.748 172.686 253.277 159.71 244.127 150.03H244.138Z" fill="#F77C7C"/>
<path d="M242.627 329.245C246.177 314.946 249.529 289.105 238.879 259.967C238.879 259.967 226.851 290.527 235.583 329.135C235.99 330.943 237.446 332.232 239.121 332.232C240.764 332.232 242.197 331.009 242.627 329.245Z" fill="#E28BD9"/>
<path d="M238.537 260.882C236.796 265.81 228.946 290.549 234.161 321.925C240.114 302.4 240.279 281.641 238.537 260.882Z" fill="#F99595"/>
<path d="M238.879 259.967C238.879 259.967 238.758 260.287 238.549 260.882C240.29 281.641 240.125 302.4 234.172 321.925C234.569 324.295 235.032 326.709 235.583 329.146C235.991 330.954 237.446 332.243 239.122 332.243C240.798 332.243 242.198 331.02 242.628 329.256C246.178 314.957 249.529 289.116 238.879 259.978V259.967Z" fill="#F77C7C"/>
<path d="M240.379 246.032C251.698 246.032 260.873 236.856 260.873 225.537C260.873 214.218 251.698 205.043 240.379 205.043C229.06 205.043 219.884 214.218 219.884 225.537C219.884 236.856 229.06 246.032 240.379 246.032Z" fill="#0072FF"/>
<path d="M254.611 225.537C254.611 233.398 248.239 239.77 240.378 239.77C232.518 239.77 226.146 233.398 226.146 225.537C226.146 217.677 232.518 211.305 240.378 211.305C248.239 211.305 254.611 217.677 254.611 225.537Z" fill="#344B7E"/>
<path d="M241.415 211.36C237.479 219.342 233.995 227.412 230.048 235.305C231.801 237.157 234.039 238.524 236.553 239.23C239.849 230.344 243.73 221.833 247.809 213.41C245.924 212.253 243.752 211.525 241.415 211.36Z" fill="#47649F"/>
<path d="M247.809 213.41C243.741 221.833 239.861 230.333 236.553 239.23C237.766 239.572 239.045 239.77 240.379 239.77C248.239 239.77 254.611 233.398 254.611 225.537C254.611 220.4 251.888 215.913 247.809 213.41Z" fill="#344B7E"/>
<path d="M240.378 211.305C232.518 211.305 226.146 217.677 226.146 225.537C226.146 229.33 227.634 232.758 230.048 235.305C233.995 227.4 237.479 219.331 241.414 211.36C241.073 211.338 240.731 211.305 240.378 211.305Z" fill="#344B7E"/>
<path d="M220.259 189.807C220.259 190.512 219.686 191.086 218.98 191.086C218.274 191.086 217.701 190.512 217.701 189.807C217.701 189.101 218.274 188.528 218.98 188.528C219.686 188.528 220.259 189.101 220.259 189.807Z" fill="#344B7E"/>
<path d="M225.419 189.807C225.419 190.512 224.845 191.086 224.14 191.086C223.434 191.086 222.861 190.512 222.861 189.807C222.861 189.101 223.434 188.528 224.14 188.528C224.845 188.528 225.419 189.101 225.419 189.807Z" fill="#344B7E"/>
<path d="M230.589 189.807C230.589 190.512 230.016 191.086 229.31 191.086C228.605 191.086 228.031 190.512 228.031 189.807C228.031 189.101 228.605 188.528 229.31 188.528C230.016 188.528 230.589 189.101 230.589 189.807Z" fill="#344B7E"/>
<path d="M235.759 189.807C235.759 190.512 235.186 191.086 234.481 191.086C233.775 191.086 233.202 190.512 233.202 189.807C233.202 189.101 233.775 188.528 234.481 188.528C235.186 188.528 235.759 189.101 235.759 189.807Z" fill="#344B7E"/>
<path d="M240.93 189.807C240.93 190.512 240.356 191.086 239.651 191.086C238.945 191.086 238.372 190.512 238.372 189.807C238.372 189.101 238.945 188.528 239.651 188.528C240.356 188.528 240.93 189.101 240.93 189.807Z" fill="#344B7E"/>
<path d="M246.089 189.807C246.089 190.512 245.516 191.086 244.811 191.086C244.105 191.086 243.532 190.512 243.532 189.807C243.532 189.101 244.105 188.528 244.811 188.528C245.516 188.528 246.089 189.101 246.089 189.807Z" fill="#344B7E"/>
<path d="M251.26 189.807C251.26 190.512 250.687 191.086 249.981 191.086C249.275 191.086 248.702 190.512 248.702 189.807C248.702 189.101 249.275 188.528 249.981 188.528C250.687 188.528 251.26 189.101 251.26 189.807Z" fill="#344B7E"/>
<path d="M256.43 189.807C256.43 190.512 255.857 191.086 255.151 191.086C254.446 191.086 253.873 190.512 253.873 189.807C253.873 189.101 254.446 188.528 255.151 188.528C255.857 188.528 256.43 189.101 256.43 189.807Z" fill="#344B7E"/>
<path d="M261.601 189.807C261.601 190.512 261.027 191.086 260.322 191.086C259.616 191.086 259.043 190.512 259.043 189.807C259.043 189.101 259.616 188.528 260.322 188.528C261.027 188.528 261.601 189.101 261.601 189.807Z" fill="#344B7E"/>
<path d="M266.539 259.283C267.726 259.283 268.689 257.605 268.689 255.535C268.689 253.465 267.726 251.787 266.539 251.787C265.352 251.787 264.389 253.465 264.389 255.535C264.389 257.605 265.352 259.283 266.539 259.283Z" fill="#C5D9EF"/>
<path d="M267.576 259.283C268.763 259.283 269.725 257.605 269.725 255.535C269.725 253.465 268.763 251.787 267.576 251.787C266.388 251.787 265.426 253.465 265.426 255.535C265.426 257.605 266.388 259.283 267.576 259.283Z" fill="#0072FF"/>
<path d="M303.724 216.067C303.724 216.067 299.237 203.224 289.547 206.2C276.836 210.103 294.442 257.641 266.88 255.469" stroke="#455157" stroke-width="1.10245" stroke-miterlimit="10"/>
</svg>
