<svg width="30" height="41" viewBox="0 0 30 41" fill="none" xmlns="http://www.w3.org/2000/svg">
<g id="Frame 1261155434">
<path id="&#60;Path&#62;" d="M15.0262 19.9839V18.953C15.0262 13.3345 8.27226 8.69531 0 8.69531V30.2417C0 35.9118 6.70155 40.4994 15.0262 40.4994C23.2984 40.4994 30 35.9118 30 30.2417C30 24.5716 23.2984 19.9839 15.0262 19.9839Z" fill="url(#paint0_linear_21478_28785)"/>
<path id="&#60;Path&#62;_2" d="M15.0262 30.2417V31.2726C20.2618 31.2726 24.8691 33.1283 27.5393 35.9118C29.11 34.2623 30 32.3551 30 30.2417C30 24.5716 23.2984 19.9839 15.0262 19.9839V18.953C15.0262 13.3345 8.27226 8.69531 0 8.69531V19.9839C8.27226 19.9839 15.0262 24.5716 15.0262 30.2417Z" fill="url(#paint1_linear_21478_28785)"/>
<path id="&#60;Path&#62;_3" d="M29.9994 0.5C21.7272 0.5 15.0256 5.08764 15.0256 10.7577V18.9536V19.9845V30.2423C15.0256 34.0567 11.989 37.3557 7.48633 39.1082C9.68528 39.9845 12.2507 40.5 15.0256 40.5C23.2979 40.5 29.9994 35.9124 29.9994 30.2423V0.5Z" fill="url(#paint2_linear_21478_28785)"/>
<g id="Dashboard">
<path d="M1.31155 0.5V7.36422H0V0.5H1.31155ZM4.1111 3.46538V4.48842H0.968159V3.46538H4.1111ZM4.47833 0.5V1.52303H0.968159V0.5H4.47833Z" fill="#FA6F5A"/>
<path d="M6.0705 3.35224V7.36422H4.81142V2.2632H5.99419L6.0705 3.35224ZM5.87019 4.62985H5.49819C5.50137 4.25898 5.55224 3.92268 5.65081 3.62096C5.74937 3.31923 5.88768 3.05994 6.06573 2.84308C6.24697 2.62621 6.46158 2.45964 6.70958 2.34335C6.95758 2.22706 7.2342 2.16891 7.53943 2.16891C7.78744 2.16891 8.01159 2.20348 8.2119 2.27263C8.41221 2.34177 8.5839 2.45178 8.72698 2.60264C8.87324 2.7535 8.98452 2.95151 9.06083 3.19666C9.14032 3.43867 9.18006 3.73725 9.18006 4.0924V7.36422H7.91144V4.08297C7.91144 3.85039 7.87646 3.66653 7.80651 3.53138C7.73974 3.39624 7.64118 3.30038 7.51082 3.2438C7.38364 3.18723 7.22625 3.15894 7.03866 3.15894C6.84471 3.15894 6.67461 3.19823 6.52835 3.2768C6.38527 3.35224 6.26445 3.45753 6.16589 3.59267C6.0705 3.72782 5.99737 3.8834 5.9465 4.0594C5.89563 4.23541 5.87019 4.42556 5.87019 4.62985Z" fill="#FA6F5A"/>
<path d="M12.6084 4.30455H10.8342L10.8247 3.38995H12.3461C12.6068 3.38995 12.8246 3.35381 12.9995 3.28152C13.1743 3.20923 13.3063 3.10394 13.3953 2.96565C13.4875 2.82736 13.5336 2.65921 13.5336 2.46121C13.5336 2.2412 13.4907 2.06205 13.4049 1.92376C13.3222 1.78547 13.1918 1.6849 13.0138 1.62204C12.8357 1.55603 12.61 1.52303 12.3365 1.52303H11.2587V7.36422H9.94715V0.5H12.3365C12.7308 0.5 13.0821 0.537716 13.3906 0.613147C13.7021 0.685435 13.966 0.798581 14.1822 0.952586C14.3985 1.10659 14.5622 1.29988 14.6735 1.53246C14.7879 1.76504 14.8452 2.04162 14.8452 2.3622C14.8452 2.64507 14.7784 2.90594 14.6449 3.1448C14.5145 3.38052 14.3126 3.57224 14.0392 3.71996C13.7689 3.86768 13.4255 3.95254 13.009 3.97454L12.6084 4.30455ZM12.5512 7.36422H10.4479L10.9964 6.3459H12.5512C12.8119 6.3459 13.0265 6.30347 13.195 6.21862C13.3667 6.13376 13.4939 6.01747 13.5766 5.86975C13.6624 5.71888 13.7053 5.54602 13.7053 5.35116C13.7053 5.13744 13.6672 4.952 13.5909 4.79485C13.5177 4.63771 13.4001 4.5167 13.2379 4.43184C13.079 4.34698 12.8691 4.30455 12.6084 4.30455H11.2444L11.2539 3.38995H12.9899L13.2904 3.74353C13.691 3.74668 14.0169 3.82525 14.2681 3.97926C14.5225 4.13326 14.71 4.33127 14.8309 4.57328C14.9517 4.81528 15.0121 5.07615 15.0121 5.35587C15.0121 5.79589 14.9151 6.16518 14.7212 6.46377C14.5304 6.76235 14.2506 6.98707 13.8818 7.13793C13.5161 7.28879 13.0726 7.36422 12.5512 7.36422Z" fill="#FA6F5A"/>
</g>
</g>
<defs>
<linearGradient id="paint0_linear_21478_28785" x1="1.5" y1="15" x2="9" y2="37.5" gradientUnits="userSpaceOnUse">
<stop offset="0.0390542" stop-color="#EC9C00"/>
<stop offset="1" stop-color="#FC6767"/>
<stop offset="1" stop-color="#FCC067"/>
</linearGradient>
<linearGradient id="paint1_linear_21478_28785" x1="-12" y1="-3" x2="13" y2="25.5" gradientUnits="userSpaceOnUse">
<stop offset="0.1157" stop-color="#C8BC4E"/>
<stop offset="1" stop-color="#F15F79"/>
</linearGradient>
<linearGradient id="paint2_linear_21478_28785" x1="26" y1="6.5" x2="7" y2="50.5" gradientUnits="userSpaceOnUse">
<stop stop-color="#ED4242"/>
<stop offset="1" stop-color="#FFEDBC"/>
</linearGradient>
</defs>
</svg>
