<svg xmlns="http://www.w3.org/2000/svg" viewBox="0 0 406.5 120.8"><defs><style>.cls-1{fill:#004c73;}.cls-2{fill:#3cbdff;}</style></defs><g id="Layer_2" data-name="Layer 2"><g id="Layer_1-2" data-name="Layer 1"><polygon class="cls-1" points="126.6 12.9 94.5 68.9 115.4 105.4 117.8 109.6 98.7 120.7 95.9 116 71.6 73.5 108.9 8.1 113.6 0 130.7 6 126.6 12.9"/><polygon class="cls-1" points="59.6 45 43.3 73.5 46.7 79.4 26.7 83.3 27.2 82.5 47 49.9 34.8 28.3 31.6 22.6 60.3 25.4 63.1 30.3 65.6 34.6 59.6 45"/><polygon class="cls-2" points="108.9 8.1 71.6 73.5 95.9 116 98.7 120.7 98.7 120.8 70.4 120.8 47.2 80.3 46.7 79.4 43.3 73.5 59.6 45 65.6 34.6 85.3 0 113.6 0 108.9 8.1"/><polygon class="cls-2" points="47 49.9 27.2 82.5 26.7 83.3 0 83.3 20.3 49.9 4.9 22.6 31.6 22.6 34.8 28.3 47 49.9"/><path class="cls-2" d="M249.5,39.1a200.75,200.75,0,0,1-19.1,37,299.22,299.22,0,0,1-28.5,37.1h-15l-3.6-26c-2.4,4.3-4.9,8.7-7.4,13s-5.1,8.7-7.7,13H148.5L135.9,46.3v-.2l-1.2-6.2h0l-.1-.8h22l7.3,53.6c1.8-3,3.5-6,5.2-9s3.3-6,4.9-9l-6.8-35.6h19l2.6,22.4c1.8-3.8,3.6-7.5,5.3-11.3s3.4-7.5,5-11.1h17.6c-2.6,6.7-5.3,12.8-8.1,18.5a142.17,142.17,0,0,1-10.1,16.9l2.4,13.1c3-4,5.7-7.5,8-10.8s4.3-6.3,6.1-9.2,3.4-5.7,4.9-8.6,2.9-5.9,4.4-9.1,3-6.8,4.6-10.9h20.6v.1Z"/><path class="cls-2" d="M307.1,40.4a40.9,40.9,0,0,0-14.8-2.5,49,49,0,0,0-18.9,3.6,48.37,48.37,0,0,0-15.3,9.8,47,47,0,0,0-10.3,14.4,41.45,41.45,0,0,0-3.7,17.6,34,34,0,0,0,3.8,16.2,26.62,26.62,0,0,0,10.8,11,34.2,34.2,0,0,0,16.8,3.9,45.25,45.25,0,0,0,14.9-2.5,53.11,53.11,0,0,0,13.6-7,37.93,37.93,0,0,0,10.1-10.3l-18-5.7a19,19,0,0,1-7.1,6.7,19.43,19.43,0,0,1-9.5,2.4,15,15,0,0,1-7.4-1.7,9,9,0,0,1-4.2-4.8,18.81,18.81,0,0,1-1.3-7.4v-1c3.1.1,6,.2,8.7.2,14.7,0,25.9-2.1,33.3-6.3s11.2-10.2,11.2-18.2a19.08,19.08,0,0,0-3.4-11.5A19.35,19.35,0,0,0,307.1,40.4ZM295.9,65.7c-1.4,1.3-3.8,2.2-7.1,2.8a77.45,77.45,0,0,1-13.3.9c-1.9,0-3.8,0-5.8-.1a28.86,28.86,0,0,1,3.3-6,22.29,22.29,0,0,1,6.9-6.5,16.78,16.78,0,0,1,8.7-2.4,14.37,14.37,0,0,1,4.9.8,8,8,0,0,1,3.3,2.2A5.58,5.58,0,0,1,298,61,5.91,5.91,0,0,1,295.9,65.7Z"/><path class="cls-2" d="M403.6,52.6a24.64,24.64,0,0,0-8.2-10.7A22,22,0,0,0,382.1,38,28.86,28.86,0,0,0,368,41.7a33.32,33.32,0,0,0-11.3,9.8L365.6,9H342.8L320.7,113.2h20l2.6-12.2a19.07,19.07,0,0,0,7.4,10.1c3.5,2.4,7.9,3.6,13.3,3.6a34.92,34.92,0,0,0,15.8-3.7,45.48,45.48,0,0,0,13.6-10.1A50.18,50.18,0,0,0,403,86a48,48,0,0,0,3.5-18.2A40.36,40.36,0,0,0,403.6,52.6ZM380.7,81.1a22.69,22.69,0,0,1-4.6,7.3,23,23,0,0,1-6.6,5,17.51,17.51,0,0,1-7.7,1.9,12.47,12.47,0,0,1-5.6-1.2,11.69,11.69,0,0,1-4.2-3.4,16.4,16.4,0,0,1-2.6-5.3l3.4-15.5a28.74,28.74,0,0,1,5.1-6.4,24.82,24.82,0,0,1,6.4-4.5,14.65,14.65,0,0,1,6.5-1.7,9.8,9.8,0,0,1,6.2,2,12.47,12.47,0,0,1,3.9,5.3,18.4,18.4,0,0,1,1.4,7.6A22,22,0,0,1,380.7,81.1Z"/></g></g></svg>