<svg width="41" height="40" viewBox="0 0 41 40" fill="none" xmlns="http://www.w3.org/2000/svg">
<path d="M20.5989 28.6821C23.635 28.6821 26.0962 26.2063 26.0962 23.1522C26.0962 20.0982 23.635 17.6224 20.5989 17.6224C17.5628 17.6224 15.1016 20.0982 15.1016 23.1522C15.1016 26.2063 17.5628 28.6821 20.5989 28.6821Z" fill="#F69320"/>
<path d="M0 36.7509C0 35.7396 0.278074 34.9435 0.834223 34.3841C1.39037 33.8246 2.18182 33.5449 3.18716 33.5449C4.2139 33.5449 5.00535 33.8246 5.5615 34.3841C6.11765 34.9435 6.39572 35.7181 6.39572 36.7294C6.39572 37.461 6.26738 38.0635 6.03209 38.5153C5.79679 38.9887 5.43315 39.333 4.98396 39.6127C4.51337 39.8709 3.95722 40 3.27273 40C2.56684 40 1.9893 39.8924 1.54011 39.6557C1.09091 39.4406 0.705882 39.0748 0.427808 38.6014C0.149733 38.128 0 37.4825 0 36.7509ZM1.92513 36.7509C1.92513 37.3749 2.03209 37.8268 2.26738 38.1065C2.50267 38.3862 2.82353 38.5153 3.20856 38.5153C3.61497 38.5153 3.93583 38.3862 4.17112 38.1065C4.40642 37.8483 4.51337 37.3534 4.51337 36.6649C4.51337 36.0839 4.40642 35.6536 4.17112 35.3739C3.93583 35.0941 3.61497 34.965 3.20856 34.965C2.82353 34.965 2.52406 35.0941 2.28877 35.3739C2.05348 35.6536 1.92513 36.127 1.92513 36.7509Z" fill="#F69320"/>
<path d="M7.42236 33.631H9.94643L10.909 37.418L11.8716 33.631H14.3742V39.8709H12.8127V35.1157L11.6149 39.8709H10.2031L9.00525 35.1157V39.8709H7.42236V33.631Z" fill="#F69320"/>
<path d="M15.615 33.631H20.3423V34.965H17.5401V36.0624H19.9358V37.3104H17.5401V39.8709H15.615V33.631Z" fill="#008100"/>
<path d="M24.3422 33.631H22.246L19.9358 39.8709H21.8823L23.2727 35.2663L24.6631 39.8709H26.6738L24.3422 33.631Z" fill="#008100"/>
<path d="M27.2942 39.8709V33.631H30.4814C31.0803 33.631 31.5295 33.674 31.829 33.7816C32.1498 33.8892 32.3851 34.0828 32.5776 34.341C32.7701 34.6208 32.8557 34.9435 32.8557 35.3523C32.8557 35.6966 32.7915 35.9979 32.6418 36.2561C32.4921 36.5143 32.2995 36.7079 32.0429 36.8585C31.8717 36.9661 31.6578 37.0307 31.3798 37.0952C31.615 37.1813 31.7648 37.2458 31.8717 37.3319C31.9359 37.3749 32.0429 37.4825 32.1712 37.6547C32.2995 37.8268 32.3851 37.9559 32.4493 38.042L33.3691 39.8494H31.2086L30.1819 37.9559C30.0535 37.7192 29.9466 37.5471 29.8396 37.4825C29.7113 37.3965 29.5402 37.3319 29.3691 37.3319H29.1979V39.8709H27.2942ZM29.2193 36.1485H30.0322C30.1177 36.1485 30.2888 36.127 30.5455 36.0624C30.6739 36.0409 30.7808 35.9763 30.8664 35.8687C30.9519 35.7612 30.9947 35.6536 30.9947 35.503C30.9947 35.3093 30.9306 35.1372 30.8022 35.0296C30.6739 34.922 30.4386 34.879 30.0963 34.879H29.2621V36.1485H29.2193Z" fill="#008100"/>
<path d="M33.9893 33.631H36.5133L37.4759 37.418L38.4385 33.631H40.9411V39.8709H39.3796V35.1157L38.1818 39.8709H36.77L35.5721 35.1157V39.8709H34.0106V33.631H33.9893Z" fill="#008100"/>
<path d="M38.631 2.86178C38.3102 2.75419 37.9679 2.71116 37.6471 2.71116C36.5775 2.71116 35.5936 3.24908 34.9733 4.15279L29.1337 13.6202L27.1016 16.8908L20.5989 27.4126C20.5775 27.4341 20.5561 27.4987 20.4706 27.4987C20.385 27.4987 20.3422 27.4556 20.3422 27.4126L13.8396 16.8908L11.8075 13.6202L5.9893 4.21734L5.96791 4.17431C5.34759 3.24908 4.36364 2.71116 3.29412 2.71116C2.97326 2.71116 2.63102 2.75419 2.31016 2.86178C0.898395 3.29212 0 4.51858 0 6.00325V28.0151C0 29.4998 0.898395 30.7262 2.31016 31.1566C2.63102 31.2641 2.97326 31.3072 3.29412 31.3072C4.36364 31.3072 5.34759 30.7693 5.96791 29.8655V29.844V29.8225L11.123 21.3233L9.09091 18.0527L3.40107 27.4341V6.58421L17.4118 29.2416C18.0749 30.3174 19.2086 30.9414 20.4492 30.9414C20.7701 30.9414 21.0695 30.8984 21.369 30.8338C21.9465 30.6832 22.4813 30.3819 22.9305 29.9731C23.1444 29.758 23.3369 29.5213 23.508 29.2631L37.4973 6.60572V27.4556L31.8289 18.1173L29.7968 21.3879L34.9091 29.801L34.9519 29.8655C35.5722 30.7908 36.5562 31.3287 37.6257 31.3287C37.9465 31.3287 38.2888 31.2857 38.6096 31.1781C40.0214 30.7477 40.9198 29.5213 40.9198 28.0366V6.00325C40.9412 4.51858 40.0428 3.29212 38.631 2.86178Z" fill="#008100"/>
<path d="M36.0642 3.55029C35.7648 3.55029 35.4867 3.63636 35.2514 3.8085C35.1658 3.91608 35.0589 4.02367 34.9947 4.15277L29.1337 13.6202L27.1017 16.8908L20.599 27.4126C20.5776 27.4341 20.5562 27.4987 20.4706 27.4987C20.3851 27.4987 20.3423 27.4556 20.3423 27.4126L13.8396 16.8908L11.8075 13.6202L5.98936 4.21732L5.96797 4.17428C5.9038 4.0667 5.83963 3.98063 5.75406 3.89457C5.49738 3.6794 5.19792 3.55029 4.83428 3.55029C4.04284 3.55029 3.40112 4.1958 3.40112 4.99193V6.58418L17.4118 29.2415C18.0749 30.3174 19.2086 30.9414 20.4493 30.9414C20.7701 30.9414 21.0696 30.8983 21.369 30.8338C21.9466 30.6832 22.4813 30.3819 22.9305 29.9731C23.1444 29.7579 23.337 29.5212 23.5081 29.263L37.4974 6.6057L37.4546 5.01345C37.476 4.1958 36.8343 3.55029 36.0642 3.55029Z" fill="#008100"/>
<path d="M37.4759 29.0479L37.4545 27.3265L31.8502 18.0958L29.8181 21.3663L34.9304 29.7795L34.9732 29.844C35.0801 29.9946 35.1871 30.1237 35.2941 30.2528C35.508 30.4035 35.7646 30.468 36.0641 30.468C36.8342 30.468 37.4759 29.8225 37.4759 29.0479Z" fill="#93C82A"/>
<path d="M4.85567 30.468C5.19792 30.468 5.49738 30.3604 5.73268 30.1668C5.81824 30.0592 5.9038 29.9731 5.96797 29.8655V29.844V29.8225L11.123 21.3233L9.09096 18.0527L3.4439 27.3696L3.40112 29.0479C3.42251 29.8225 4.06423 30.468 4.85567 30.468Z" fill="#93C82A"/>
<path d="M27.1017 16.9123L27.0161 17.0414L27.1017 16.9123Z" fill="#008100"/>
<path d="M37.4758 4.99193C37.4758 4.1958 36.8341 3.55029 36.0427 3.55029C35.7432 3.55029 35.4651 3.63636 35.2298 3.8085C35.1443 3.91608 35.0373 4.02367 34.9731 4.15277L20.6202 27.3911C20.5988 27.4126 20.5774 27.4771 20.4919 27.4771C20.4277 27.4771 20.3849 27.4556 20.3635 27.4341L20.7486 28.1226C21.6042 29.6073 23.2298 29.6288 23.8074 28.7036L24.171 28.2087L37.54 6.56266L37.4758 4.99193Z" fill="#008100"/>
<path d="M26.1819 4.81979C26.3531 4.81979 26.5028 4.66918 26.5028 4.49704C26.5028 4.3249 26.3531 4.17429 26.1819 4.17429C26.0108 4.17429 25.8611 4.3249 25.8611 4.49704C25.8611 4.66918 25.9894 4.81979 26.1819 4.81979Z" fill="#93C82A"/>
<path d="M25.1764 3.27058C25.4758 3.27058 25.7111 3.03389 25.7111 2.73266C25.7111 2.43142 25.4758 2.19473 25.1764 2.19473C24.8769 2.19473 24.6416 2.43142 24.6416 2.73266C24.6416 3.03389 24.8769 3.27058 25.1764 3.27058Z" fill="#93C82A"/>
<path d="M23.6362 2.10866C23.9999 2.10866 24.2993 1.80743 24.2993 1.44164C24.2993 1.07585 23.9999 0.774612 23.6362 0.774612C23.2726 0.774612 22.9731 1.07585 22.9731 1.44164C22.9731 1.80743 23.2726 2.10866 23.6362 2.10866Z" fill="#93C82A"/>
<path d="M21.7326 1.46315C22.1391 1.46315 22.4599 1.1404 22.4599 0.731576C22.4599 0.322754 22.1391 0 21.7326 0C21.3262 0 21.0054 0.322754 21.0054 0.731576C21.0268 1.1404 21.3476 1.46315 21.7326 1.46315Z" fill="#93C82A"/>
<path d="M19.7219 1.46315C20.1283 1.46315 20.4492 1.1404 20.4492 0.731576C20.4492 0.322754 20.1283 0 19.7219 0C19.3155 0 18.9946 0.322754 18.9946 0.731576C19.016 1.1404 19.3369 1.46315 19.7219 1.46315Z" fill="#93C82A"/>
<path d="M17.8396 2.10866C18.2032 2.10866 18.5027 1.80743 18.5027 1.44164C18.5027 1.07585 18.2032 0.774612 17.8396 0.774612C17.476 0.774612 17.1765 1.07585 17.1765 1.44164C17.1765 1.80743 17.476 2.10866 17.8396 2.10866Z" fill="#93C82A"/>
<path d="M16.2994 3.27058C16.5989 3.27058 16.8342 3.03389 16.8342 2.73266C16.8342 2.43142 16.5989 2.19473 16.2994 2.19473C15.9999 2.19473 15.7646 2.43142 15.7646 2.73266C15.7646 3.03389 15.9999 3.27058 16.2994 3.27058Z" fill="#93C82A"/>
<path d="M15.294 4.81979C15.4651 4.81979 15.6149 4.66918 15.6149 4.49704C15.6149 4.3249 15.4651 4.17429 15.294 4.17429C15.1229 4.17429 14.9731 4.3249 14.9731 4.49704C14.9731 4.66918 15.1015 4.81979 15.294 4.81979Z" fill="#93C82A"/>
<path fill-rule="evenodd" clip-rule="evenodd" d="M27.679 6.00323C27.679 6.00323 30.0748 14.3948 23.1229 16.3314C22.7379 15.8365 23.4651 12.7595 24.663 11.8989C22.2673 12.8886 21.925 17.1705 21.925 17.1705C21.925 17.1705 19.1229 11.5761 24.2352 8.84346C26.0534 7.85368 27.4223 6.99301 27.679 6.00323Z" fill="#008100"/>
<path fill-rule="evenodd" clip-rule="evenodd" d="M12.7487 4.60462C12.7487 4.60462 11.1016 12.9532 18.1177 14.6961C18.4599 14.1581 17.476 11.0812 16.2353 10.3281C18.9733 11.1673 19.3797 15.4492 19.3797 15.4492C19.3797 15.4492 21.754 9.46745 16.4065 7.18666C14.5455 6.32598 13.0909 5.5944 12.7487 4.60462Z" fill="#93C82A"/>
<path fill-rule="evenodd" clip-rule="evenodd" d="M19.6577 8.02582C19.6577 8.8865 20.3422 9.57504 21.1978 9.57504C22.0534 9.57504 22.7379 8.8865 22.7379 8.02582C22.7379 7.16514 22.0534 6.4766 21.1978 6.4766C20.3422 6.4766 19.6577 7.18666 19.6577 8.02582Z" fill="#93C82A"/>
</svg>
