<svg width="36" height="42" viewBox="0 0 36 42" fill="none" xmlns="http://www.w3.org/2000/svg">
<g clip-path="url(#clip0_82_74)">
<path d="M29.2591 5.24339C22.9874 -1.02827 12.796 -1.02827 6.5243 5.24339C0.252642 11.515 0.252642 21.7065 6.5243 27.9782C12.796 34.2498 22.9874 34.2498 29.2591 27.9782C35.5307 21.7065 35.5307 11.515 29.2591 5.24339ZM12.4775 22.025C9.48864 19.0361 9.48864 14.2099 12.4775 11.2211C15.4663 8.23223 20.2926 8.23223 23.2814 11.2211C26.2702 14.2099 26.2702 19.0361 23.2814 22.025C20.3171 25.0138 15.4663 25.0138 12.4775 22.025Z" fill="#F69320"/>
<path d="M25.8781 8.6242C21.4684 4.21444 14.3147 4.21444 9.90498 8.6242C5.49522 13.034 5.49522 20.1876 9.90498 24.6218C14.3147 29.0316 21.4684 29.0316 25.9026 24.6218C30.3124 20.1876 30.3124 13.034 25.8781 8.6242Z" fill="white"/>
<path d="M23.3058 22.025C20.317 25.0138 15.4907 25.0138 12.5019 22.025C9.51306 19.0361 9.51306 14.2099 12.5019 11.221C14.8293 8.89367 18.2591 8.3792 21.1009 9.67763C22.6688 10.3881 24.5307 10.0206 25.7557 8.79568C27.8136 6.73779 27.2256 3.20998 24.5552 2.00954C18.6266 -0.685311 11.424 0.417129 6.54872 5.29237C0.277056 11.564 0.277056 21.7555 6.54872 28.0271C12.8204 34.2988 23.0118 34.2988 29.2835 28.0271L23.3058 22.025Z" fill="#00953D"/>
<path d="M29.21 26.5573L18.7001 16.6109C18.9941 16.1699 19.1411 15.6309 19.1411 15.0919C19.1411 14.3325 18.8471 13.622 18.3081 13.0831L16.8382 11.6131L13.6534 8.72229C13.5309 8.5998 13.3349 8.5998 13.1879 8.72229C13.0409 8.84479 13.0409 9.06528 13.1634 9.21227L15.7113 12.0051L14.8048 12.9116L12.061 10.3392C11.9385 10.2167 11.718 10.2167 11.571 10.3392C11.424 10.4617 11.424 10.7067 11.5465 10.8292L14.0944 13.5975L13.1879 14.504L10.4196 11.9806C10.2971 11.8581 10.1011 11.8581 9.95409 11.9806C9.8071 12.1031 9.8071 12.3236 9.92959 12.4706L12.8449 15.6309L14.3149 17.1008C15.2703 18.0563 16.7402 18.1788 17.8427 17.4928L27.7891 27.9783C27.7891 27.9783 27.8136 28.0027 27.8381 28.0272C28.2301 28.4192 28.8671 28.3947 29.259 27.9783C29.6265 27.5618 29.602 26.9248 29.21 26.5573Z" fill="#F69320"/>
</g>
<path d="M4.33199 41.2441C3.86072 41.2441 3.48785 41.1613 3.21338 40.9956C2.93891 40.8298 2.74211 40.5916 2.623 40.2809C2.50389 39.9702 2.44434 39.5999 2.44434 39.1701V36.8319C2.44434 36.3968 2.50389 36.0266 2.623 35.721C2.74211 35.4155 2.93891 35.1824 3.21338 35.0219C3.48785 34.8562 3.86072 34.7733 4.33199 34.7733C4.80843 34.7733 5.18389 34.8562 5.45836 35.0219C5.73801 35.1824 5.93739 35.4155 6.0565 35.721C6.17562 36.0266 6.23517 36.3968 6.23517 36.8319V39.1701C6.23517 39.5999 6.17562 39.9702 6.0565 40.2809C5.93739 40.5916 5.73801 40.8298 5.45836 40.9956C5.18389 41.1613 4.80843 41.2441 4.33199 41.2441ZM4.33199 40.2576C4.47699 40.2576 4.58315 40.2213 4.65048 40.1488C4.7178 40.0763 4.76182 39.9831 4.78254 39.8692C4.80325 39.7553 4.81361 39.6387 4.81361 39.5196V36.4901C4.81361 36.3658 4.80325 36.2493 4.78254 36.1405C4.76182 36.0266 4.7178 35.9334 4.65048 35.8608C4.58315 35.7883 4.47699 35.7521 4.33199 35.7521C4.19734 35.7521 4.09635 35.7883 4.02903 35.8608C3.96171 35.9334 3.91769 36.0266 3.89697 36.1405C3.87626 36.2493 3.8659 36.3658 3.8659 36.4901V39.5196C3.8659 39.6387 3.87367 39.7553 3.8892 39.8692C3.90992 39.9831 3.95135 40.0763 4.01349 40.1488C4.08082 40.2213 4.18698 40.2576 4.33199 40.2576Z" fill="#F69320"/>
<path d="M7.99028 41.1509L8.09903 34.8588H9.59051L10.2819 38.5175L11.0276 34.8588H12.4647L12.5735 41.1509H11.5869L11.4704 36.9639L10.7402 41.1509H9.86239L9.08558 36.9328L8.99236 41.1509H7.99028Z" fill="#F69320"/>
<path d="M14.366 41.1509V34.8588H17.0848V35.7987H15.7565V37.3834H16.9139V38.3544H15.7565V41.1509H14.366Z" fill="#00953D"/>
<path d="M20.4685 41.2441C19.9973 41.2441 19.6244 41.1613 19.3499 40.9956C19.0755 40.8298 18.8787 40.5916 18.7596 40.2809C18.6404 39.9702 18.5809 39.5999 18.5809 39.1701V36.8319C18.5809 36.3968 18.6404 36.0266 18.7596 35.721C18.8787 35.4155 19.0755 35.1824 19.3499 35.0219C19.6244 34.8562 19.9973 34.7733 20.4685 34.7733C20.945 34.7733 21.3204 34.8562 21.5949 35.0219C21.8746 35.1824 22.0739 35.4155 22.1931 35.721C22.3122 36.0266 22.3717 36.3968 22.3717 36.8319V39.1701C22.3717 39.5999 22.3122 39.9702 22.1931 40.2809C22.0739 40.5916 21.8746 40.8298 21.5949 40.9956C21.3204 41.1613 20.945 41.2441 20.4685 41.2441ZM20.4685 40.2576C20.6135 40.2576 20.7197 40.2213 20.787 40.1488C20.8544 40.0763 20.8984 39.9831 20.9191 39.8692C20.9398 39.7553 20.9502 39.6387 20.9502 39.5196V36.4901C20.9502 36.3658 20.9398 36.2493 20.9191 36.1405C20.8984 36.0266 20.8544 35.9334 20.787 35.8608C20.7197 35.7883 20.6135 35.7521 20.4685 35.7521C20.3339 35.7521 20.2329 35.7883 20.1656 35.8608C20.0983 35.9334 20.0542 36.0266 20.0335 36.1405C20.0128 36.2493 20.0025 36.3658 20.0025 36.4901V39.5196C20.0025 39.6387 20.0102 39.7553 20.0258 39.8692C20.0465 39.9831 20.0879 40.0763 20.15 40.1488C20.2174 40.2213 20.3235 40.2576 20.4685 40.2576Z" fill="#00953D"/>
<path d="M25.9523 41.2441C25.4811 41.2441 25.1082 41.1613 24.8337 40.9956C24.5593 40.8298 24.3625 40.5916 24.2434 40.2809C24.1242 39.9702 24.0647 39.5999 24.0647 39.1701V36.8319C24.0647 36.3968 24.1242 36.0266 24.2434 35.721C24.3625 35.4155 24.5593 35.1824 24.8337 35.0219C25.1082 34.8562 25.4811 34.7733 25.9523 34.7733C26.4288 34.7733 26.8042 34.8562 27.0787 35.0219C27.3584 35.1824 27.5577 35.4155 27.6769 35.721C27.796 36.0266 27.8555 36.3968 27.8555 36.8319V39.1701C27.8555 39.5999 27.796 39.9702 27.6769 40.2809C27.5577 40.5916 27.3584 40.8298 27.0787 40.9956C26.8042 41.1613 26.4288 41.2441 25.9523 41.2441ZM25.9523 40.2576C26.0973 40.2576 26.2035 40.2213 26.2708 40.1488C26.3382 40.0763 26.3822 39.9831 26.4029 39.8692C26.4236 39.7553 26.434 39.6387 26.434 39.5196V36.4901C26.434 36.3658 26.4236 36.2493 26.4029 36.1405C26.3822 36.0266 26.3382 35.9334 26.2708 35.8608C26.2035 35.7883 26.0973 35.7521 25.9523 35.7521C25.8177 35.7521 25.7167 35.7883 25.6494 35.8608C25.5821 35.9334 25.538 36.0266 25.5173 36.1405C25.4966 36.2493 25.4863 36.3658 25.4863 36.4901V39.5196C25.4863 39.6387 25.494 39.7553 25.5096 39.8692C25.5303 39.9831 25.5717 40.0763 25.6338 40.1488C25.7012 40.2213 25.8073 40.2576 25.9523 40.2576Z" fill="#00953D"/>
<path d="M29.6339 41.1509V34.8588H31.2264C31.7753 34.8588 32.2026 34.9287 32.5081 35.0685C32.8137 35.2032 33.0286 35.4181 33.1529 35.7133C33.2772 36.0033 33.3393 36.3813 33.3393 36.8474V39.1312C33.3393 39.6025 33.2772 39.9883 33.1529 40.2887C33.0286 40.5839 32.8137 40.8014 32.5081 40.9412C32.2078 41.081 31.7857 41.1509 31.2419 41.1509H29.6339ZM31.0244 40.1877H31.2419C31.4543 40.1877 31.607 40.1566 31.7003 40.0945C31.7935 40.0323 31.8504 39.9391 31.8711 39.8148C31.897 39.6905 31.91 39.5352 31.91 39.3487V36.6066C31.91 36.4202 31.8945 36.27 31.8634 36.156C31.8375 36.0421 31.7779 35.9592 31.6847 35.9075C31.5915 35.8557 31.4413 35.8298 31.2342 35.8298H31.0244V40.1877Z" fill="#00953D"/>
<defs>
<clipPath id="clip0_82_74">
<rect width="32.1423" height="32.1423" fill="white" transform="translate(1.82056 0.539642)"/>
</clipPath>
</defs>
</svg>
