<svg width="33" height="41" viewBox="0 0 33 41" fill="none" xmlns="http://www.w3.org/2000/svg">
<path d="M12.7536 20.2585C12.7536 16.1135 16.1136 12.7535 20.2585 12.7535C21.6523 12.7535 22.9527 13.1395 24.0719 13.8027L30.5588 2.81598C27.5407 1.02847 24.0201 0 20.2585 0C9.06971 0 2.28882e-05 9.06969 2.28882e-05 20.2585C2.28882e-05 27.6858 3.9999 34.1752 9.95828 37.7036L16.4452 26.7169C14.238 25.4112 12.7536 23.0123 12.7536 20.2611V20.2585Z" fill="#005CF7"/>
<path d="M20.2586 27.7635C24.4035 27.7635 27.7635 24.4035 27.7635 20.2585C27.7635 17.5073 26.2791 15.1084 24.0719 13.8027L16.4478 26.7169C17.5669 27.3775 18.8674 27.7661 20.2611 27.7661L20.2586 27.7635Z" fill="#97C1FF"/>
<path d="M24.4915 27.6677L30.6105 36.4498C27.5173 38.4342 23.9578 39.4808 20.2558 39.4808C17.1626 39.4808 14.1161 38.7347 11.3882 37.3125L16.8388 28.0796C17.9165 28.551 19.0797 28.7972 20.2558 28.7972C21.7558 28.7972 23.2014 28.4086 24.4889 27.6677M24.7635 26.248C23.507 27.1936 21.9501 27.7609 20.2558 27.7609C18.8621 27.7609 17.5616 27.3749 16.4425 26.7117L9.95559 37.6985C12.9736 39.486 16.4943 40.5144 20.2558 40.5144C24.6624 40.5144 28.7349 39.1026 32.0586 36.7166L24.7609 26.248H24.7635Z" fill="#005CF7"/>
</svg>
