<svg width="31" height="41" viewBox="0 0 31 41" fill="none" xmlns="http://www.w3.org/2000/svg">
<path d="M15.0262 19.7886V18.7577C15.0262 13.1392 8.27226 8.5 0 8.5V30.0464C0 35.7165 6.70155 40.3041 15.0262 40.3041C23.2984 40.3041 30 35.7165 30 30.0464C30 24.3763 23.2984 19.7886 15.0262 19.7886Z" fill="url(#paint0_linear_20447_2864)"/>
<path d="M15.0262 29.875V30.8977C20.2618 30.8977 24.8691 32.7386 27.5393 35.5C29.11 33.8636 30 31.9716 30 29.875C30 24.25 23.2984 19.6988 15.0262 19.6988V18.6761C15.0262 13.1023 8.27226 8.5 0 8.5V19.6988C8.27226 19.6988 15.0262 24.25 15.0262 29.875Z" fill="url(#paint1_linear_20447_2864)"/>
<path d="M30.5131 0.5C22.2409 0.5 15.5393 5.08764 15.5393 10.7577V18.9536V19.9845V30.2423C15.5393 34.0567 12.5026 37.3557 8 39.1082C10.199 39.9845 12.7644 40.5 15.5393 40.5C23.8116 40.5 30.5131 35.9124 30.5131 30.2423V0.5Z" fill="url(#paint2_linear_20447_2864)"/>
<path d="M0.275035 4.89173C0.323062 4.89168 0.371088 4.89163 0.42057 4.89158C0.445704 4.89166 0.470839 4.89175 0.496736 4.89183C0.573553 4.89204 0.650361 4.89183 0.727178 4.89158C0.775204 4.89163 0.82323 4.89168 0.872712 4.89173C0.917139 4.89178 0.961565 4.89182 1.00734 4.89187C1.10939 4.89688 1.10939 4.89688 1.14764 4.93561C1.15813 4.99922 1.16749 5.06301 1.17633 5.12687C1.24467 5.51401 1.41341 5.81568 1.72141 6.05893C2.09114 6.28527 2.47207 6.3689 2.90182 6.26486C3.25877 6.1296 3.50029 5.91177 3.71048 5.59411C3.82552 5.65236 3.82904 5.73674 3.87066 5.85799C3.95511 6.08981 4.06142 6.29284 4.19041 6.50212C4.23955 6.58973 4.26689 6.65785 4.28425 6.75616C3.71354 7.21728 3.08949 7.55421 2.33375 7.48517C1.64771 7.39719 1.02528 7.09495 0.576264 6.55417C0.229117 6.07946 -0.0056694 5.53781 0.000104149 4.93561C0.070117 4.86472 0.181114 4.89183 0.275035 4.89173Z" fill="#2988C3"/>
<path d="M6.62932 0.515645C6.68577 0.515651 6.74222 0.515872 6.79867 0.51626C6.82834 0.516315 6.858 0.516369 6.88856 0.516426C6.98366 0.516643 7.07876 0.51713 7.17387 0.517622C7.23819 0.517816 7.30252 0.517992 7.36684 0.518151C7.52485 0.518579 7.68286 0.519248 7.84087 0.520042C7.79352 0.650577 7.74093 0.756624 7.65858 0.86775C7.63739 0.896586 7.6162 0.925422 7.59437 0.955131C7.57158 0.985715 7.54878 1.0163 7.5253 1.04781C7.47708 1.11327 7.42887 1.17874 7.38066 1.24421C7.35576 1.27787 7.33086 1.31154 7.30521 1.34623C7.18014 1.51569 7.0563 1.68606 6.9324 1.8564C6.89822 1.90326 6.89822 1.90326 6.86334 1.95107C6.84215 1.98015 6.82096 2.00922 6.79912 2.03918C6.7805 2.06472 6.76187 2.09027 6.74268 2.11658C6.69929 2.17731 6.65789 2.23949 6.61683 2.30186C6.65934 2.31124 6.70184 2.32063 6.74563 2.3303C7.49493 2.49944 8.14347 2.79881 8.58184 3.47344C8.84706 3.92751 8.97904 4.37786 9.00515 4.90437C9.03166 5.36542 9.20378 5.71508 9.53349 6.03011C9.83113 6.27163 10.1813 6.34133 10.5567 6.33031C10.9287 6.27794 11.2668 6.11149 11.5082 5.81707C11.7751 5.43114 11.8415 5.0509 11.7808 4.58723C11.6878 4.21628 11.4891 3.92111 11.1783 3.70358C10.8203 3.49601 10.437 3.4525 10.0403 3.54622C9.70908 3.64694 9.48464 3.82951 9.27186 4.10153C9.25406 4.1212 9.23626 4.14087 9.21792 4.16114C9.19267 4.16114 9.16743 4.16114 9.14142 4.16114C9.1284 4.12459 9.11538 4.08804 9.10197 4.05038C8.97433 3.70407 8.82298 3.4149 8.6059 3.11529C8.80118 2.78882 9.01929 2.48177 9.24093 2.1734C9.36305 2.00342 9.48332 1.83218 9.60282 1.66031C9.63065 1.62036 9.63065 1.62036 9.65903 1.57961C9.75819 1.43713 9.85692 1.29434 9.9553 1.1513C9.97594 1.12142 9.99657 1.09154 10.0178 1.06075C10.0572 1.00367 10.0965 0.946499 10.1357 0.889227C10.1624 0.850509 10.1624 0.850509 10.1897 0.81101C10.2052 0.788425 10.2208 0.76584 10.2367 0.742571C10.254 0.720267 10.2712 0.697963 10.289 0.674983C10.3082 0.648386 10.3274 0.62179 10.3472 0.594388C10.4882 0.483766 10.6122 0.499496 10.7859 0.502453C10.8206 0.50243 10.8553 0.502408 10.8911 0.502384C11.0058 0.502492 11.1204 0.503697 11.2351 0.504912C11.3146 0.505201 11.3942 0.505421 11.4737 0.505576C11.683 0.506167 11.8922 0.507689 12.1015 0.509404C12.3151 0.510989 12.5287 0.511696 12.7423 0.512477C13.1613 0.514138 13.5803 0.516783 13.9993 0.520042C13.9993 0.658768 13.971 0.68889 13.8903 0.797694C13.8671 0.829127 13.844 0.860559 13.8202 0.892943C13.7957 0.925674 13.7712 0.958404 13.7459 0.992126C13.7105 1.0401 13.7105 1.0401 13.6743 1.08904C13.6294 1.14989 13.5843 1.21066 13.539 1.27132C13.4646 1.3657 13.4646 1.3657 13.4216 1.45224C13.3663 1.54689 13.3187 1.61236 13.2343 1.6821C13.0664 1.72137 12.9043 1.70981 12.733 1.7004C12.6328 1.69844 12.5326 1.69655 12.4324 1.69473C12.2752 1.69042 12.118 1.68463 11.9608 1.67747C11.4036 1.62576 11.4036 1.62576 10.8871 1.77956C10.7325 1.93083 10.639 2.10246 10.5567 2.30186C10.6033 2.31055 10.6498 2.31924 10.6978 2.32819C11.461 2.47344 12.0611 2.80577 12.5258 3.44954C12.9432 4.10741 13.0522 4.81027 12.889 5.56953C12.7112 6.24342 12.2861 6.78044 11.711 7.15192C11.1028 7.49888 10.4452 7.57712 9.76943 7.41383C9.40118 7.30771 9.09918 7.14821 8.79716 6.91133C8.77368 6.89441 8.75021 6.87748 8.72603 6.86004C8.25887 6.49873 7.97446 5.85681 7.87912 5.28446C7.87142 5.18611 7.86509 5.08763 7.86 4.9891C7.83455 4.51251 7.69959 4.1505 7.35078 3.81979C7.06573 3.58146 6.74834 3.48693 6.38284 3.4919C5.94747 3.53432 5.61857 3.71078 5.33541 4.04009C5.3032 4.08017 5.27119 4.12042 5.23979 4.16114C5.12895 4.10503 5.1232 4.03277 5.07961 3.91663C4.99198 3.69491 4.88372 3.49612 4.75985 3.29323C4.70899 3.2013 4.67926 3.14115 4.66602 3.03782C4.69882 2.96791 4.69882 2.96791 4.75223 2.89605C4.77203 2.86888 4.79183 2.84172 4.81222 2.81374C4.83419 2.78463 4.85616 2.75551 4.87879 2.72552C4.9013 2.69486 4.92381 2.66421 4.947 2.63262C4.9947 2.5677 5.0426 2.50294 5.09068 2.43832C5.1829 2.31419 5.27382 2.18913 5.36468 2.06399C5.40905 2.00289 5.45349 1.94184 5.498 1.88085C5.655 1.66566 5.80996 1.44905 5.96417 1.2318C6.46896 0.521187 6.46896 0.521187 6.62932 0.515645Z" fill="#2988C3"/>
<path d="M1.76503 0.515425C1.80123 0.515419 1.83743 0.515413 1.87473 0.515408C1.99478 0.515435 2.11482 0.515736 2.23486 0.516039C2.31794 0.516112 2.40102 0.516167 2.4841 0.516206C2.70306 0.516354 2.92203 0.516734 3.14099 0.517162C3.3643 0.517558 3.58762 0.517735 3.81094 0.517931C4.24933 0.518347 4.68773 0.519008 5.12612 0.519822C5.08032 0.639002 5.03778 0.740638 4.96057 0.84211C4.94286 0.865666 4.92514 0.889221 4.9069 0.91349C4.87814 0.951108 4.87814 0.951108 4.8488 0.989485C4.80728 1.04464 4.76579 1.09982 4.72433 1.15502C4.70253 1.18397 4.68073 1.21291 4.65827 1.24274C4.54249 1.39762 4.42916 1.55432 4.31567 1.71093C4.06674 2.05434 4.06674 2.05434 3.94601 2.21509C3.92184 2.24731 3.92184 2.24731 3.89718 2.28019C3.85527 2.33586 3.81316 2.39139 3.77104 2.44689C3.7048 2.53396 3.7048 2.53396 3.67257 2.65025C3.70033 2.66019 3.72809 2.67013 3.7567 2.68036C4.27898 2.91124 4.63074 3.44906 4.86673 3.95C4.98846 4.2647 5.01231 4.59869 5.04144 4.93285C5.07925 5.32435 5.19883 5.65436 5.47038 5.94274C5.81276 6.22238 6.17157 6.35933 6.61299 6.3204C6.99534 6.26026 7.26463 6.10433 7.53595 5.82653C7.55622 5.79817 7.57649 5.76981 7.59737 5.74059C7.61497 5.71782 7.63257 5.69505 7.65071 5.67159C7.67595 5.67159 7.7012 5.67159 7.72721 5.67159C7.74067 5.70904 7.75413 5.74649 7.768 5.78507C7.87493 6.07333 7.98353 6.31881 8.17771 6.56053C8.22448 6.63997 8.22448 6.63997 8.22029 6.71986C8.0732 7.04391 7.65086 7.20497 7.3447 7.3372C7.10842 7.42071 6.86786 7.47638 6.61792 7.49214C6.57162 7.49521 6.57162 7.49521 6.52439 7.49834C5.7776 7.5237 5.14187 7.21571 4.60256 6.7126C4.16955 6.25761 3.93871 5.63508 3.88998 5.0137C3.85172 4.53564 3.75217 4.11895 3.37852 3.7881C2.99685 3.52444 2.60499 3.47864 2.15208 3.47337C2.10307 3.47223 2.05406 3.47108 2.00356 3.46989C1.88412 3.46719 1.76471 3.46513 1.64526 3.46369C1.7575 3.25311 1.88683 3.06826 2.03255 2.88024C2.25537 2.58915 2.46854 2.2928 2.67804 1.99176C2.74115 1.90228 2.80427 1.8128 2.8693 1.72061C1.73323 1.70144 1.73323 1.70144 0.574219 1.68188C0.632753 1.53369 0.668336 1.45362 0.760246 1.33477C0.781571 1.30691 0.802897 1.27905 0.824869 1.25034C0.847083 1.22178 0.869296 1.19322 0.892183 1.16379C0.935904 1.10703 0.979584 1.05024 1.02322 0.993419C1.04431 0.966069 1.06539 0.938719 1.08712 0.91054C1.1451 0.83354 1.20023 0.755154 1.25482 0.67567C1.39731 0.478004 1.53992 0.514514 1.76503 0.515425Z" fill="#2988C3"/>
<defs>
<linearGradient id="paint0_linear_20447_2864" x1="30" y1="43.5" x2="1" y2="21.5" gradientUnits="userSpaceOnUse">
<stop stop-color="#00BAEB"/>
<stop offset="1" stop-color="#565096"/>
</linearGradient>
<linearGradient id="paint1_linear_20447_2864" x1="3" y1="11.7784" x2="22.3566" y2="29.7893" gradientUnits="userSpaceOnUse">
<stop stop-color="#00BAEB"/>
<stop offset="1" stop-color="#565096"/>
</linearGradient>
<linearGradient id="paint2_linear_20447_2864" x1="24" y1="44" x2="24.5" y2="2.5" gradientUnits="userSpaceOnUse">
<stop stop-color="#00BAEB"/>
<stop offset="1" stop-color="#565096"/>
</linearGradient>
</defs>
</svg>
