<svg width="30" height="42" viewBox="0 0 30 42" fill="none" xmlns="http://www.w3.org/2000/svg">
<path d="M0 14.9305C0 23.1203 6.65462 29.7594 14.8819 29.7594V34.9117C14.8826 34.9453 14.8926 34.978 14.9109 35.0058C14.9292 35.0336 14.9549 35.0554 14.985 35.0684C15.015 35.0815 15.0481 35.0853 15.0802 35.0794C15.1123 35.0734 15.1421 35.0581 15.1659 35.0351L24.804 25.982L25.3652 25.4521L25.3829 25.4361C26.7649 24.0808 27.8657 22.451 28.6187 20.6454C29.3717 18.8397 29.7612 16.8956 29.7639 14.9305C29.7639 6.74066 23.1093 0.101562 14.8819 0.101562C6.65462 0.101562 0 6.74752 0 14.9305Z" fill="#00953D"/>
<path fill-rule="evenodd" clip-rule="evenodd" d="M23.1203 13.8339C22.9295 15.1243 22.6922 15.629 22.1598 16.8029C20.2987 20.8704 16.2194 26.7262 11.2329 23.4831C7.49301 21.044 4.55389 13.0894 5.12618 8.71131C5.5299 5.6464 8.05865 4.87219 10.1881 7.09664C12.0559 9.05388 13.9724 13.2379 15.1835 16.0881C17.5082 14.8708 21.45 10.7668 24.1096 9.75274C25.7134 9.13838 26.6162 10.1547 26.3034 11.8676C26.0416 13.3064 24.1406 17.415 23.2157 18.4724L22.8253 18.8287L22.8519 18.2897C23.0737 16.9514 24.7373 13.1214 24.7462 11.493C23.2467 12.3015 20.5871 14.9576 19.3981 16.0356C18.0849 17.23 14.4915 20.8682 13.023 18.0293C11.7653 15.5902 10.0373 11.9315 8.20505 9.89433C8.04978 12.2809 9.20546 16.2091 9.99958 17.9494C13.613 25.8538 17.9319 21.2221 21.2925 16.2776C21.9868 15.2568 22.2441 14.7452 23.1225 13.8339H23.1203ZM24.7107 11.139C24.7107 11.139 24.7107 11.123 24.7107 11.1162C24.7107 11.1093 24.7107 11.1322 24.7107 11.139ZM8.38473 8.8963C8.39842 8.87571 8.41101 8.85436 8.42244 8.83235C8.40526 8.8504 8.39236 8.87228 8.38473 8.8963Z" fill="white"/>
<g clip-path="url(#clip0_7453_15483)">
<path d="M15.8523 5.7168H15.09C14.9497 5.7168 14.8359 5.83393 14.8359 5.97842V6.76327C14.8359 6.90776 14.9497 7.02489 15.09 7.02489H15.8523C15.9927 7.02489 16.1064 6.90776 16.1064 6.76327V5.97842C16.1064 5.83393 15.9927 5.7168 15.8523 5.7168Z" stroke="white" stroke-width="0.525783" stroke-linecap="round" stroke-linejoin="round"/>
<path d="M19.1531 5.7168H18.3908C18.2505 5.7168 18.1367 5.83393 18.1367 5.97842V6.76327C18.1367 6.90776 18.2505 7.02489 18.3908 7.02489H19.1531C19.2935 7.02489 19.4072 6.90776 19.4072 6.76327V5.97842C19.4072 5.83393 19.2935 5.7168 19.1531 5.7168Z" stroke="white" stroke-width="0.525783" stroke-linecap="round" stroke-linejoin="round"/>
<path d="M15.8523 9.11719H15.09C14.9497 9.11719 14.8359 9.23432 14.8359 9.37881V10.1637C14.8359 10.3082 14.9497 10.4253 15.09 10.4253H15.8523C15.9927 10.4253 16.1064 10.3082 16.1064 10.1637V9.37881C16.1064 9.23432 15.9927 9.11719 15.8523 9.11719Z" stroke="white" stroke-width="0.525783" stroke-linecap="round" stroke-linejoin="round"/>
<path d="M19.4072 9.11719H18.6449C18.5101 9.11719 18.3809 9.17231 18.2856 9.27044C18.1903 9.36857 18.1367 9.50165 18.1367 9.64042V10.4253" stroke="white" stroke-width="0.525783" stroke-linecap="round" stroke-linejoin="round"/>
<path d="M19.4102 10.4258V10.4281" stroke="white" stroke-width="0.525783" stroke-linecap="round" stroke-linejoin="round"/>
<path d="M17.1221 6.76367V7.54853C17.1221 7.6873 17.0685 7.82039 16.9732 7.91851C16.8779 8.01664 16.7486 8.07176 16.6139 8.07176H15.8516" stroke="white" stroke-width="0.525783" stroke-linecap="round" stroke-linejoin="round"/>
<path d="M14.8359 8.07031H14.8383" stroke="white" stroke-width="0.525783" stroke-linecap="round" stroke-linejoin="round"/>
<path d="M17.125 5.7168H17.1273" stroke="white" stroke-width="0.525783" stroke-linecap="round" stroke-linejoin="round"/>
<path d="M17.125 9.11719V9.11951" stroke="white" stroke-width="0.525783" stroke-linecap="round" stroke-linejoin="round"/>
<path d="M18.1367 8.07031H18.3908" stroke="white" stroke-width="0.525783" stroke-linecap="round" stroke-linejoin="round"/>
<path d="M19.4102 8.07031V8.07263" stroke="white" stroke-width="0.525783" stroke-linecap="round" stroke-linejoin="round"/>
<path d="M17.125 10.4257V10.1641" stroke="white" stroke-width="0.525783" stroke-linecap="round" stroke-linejoin="round"/>
</g>
<path d="M0.828446 38.495C0.82322 38.125 0.881801 37.7569 1.00147 37.4079C1.10735 37.1018 1.27178 36.8207 1.48504 36.5812C1.68978 36.3542 1.93939 36.1751 2.21704 36.0559C2.51059 35.9326 2.825 35.8704 3.14204 35.8732C3.46199 35.87 3.77939 35.9321 4.0759 36.0559C4.35558 36.1749 4.60739 36.354 4.81456 36.5812C5.03 36.8194 5.19538 37.1008 5.30035 37.4079C5.42082 37.7567 5.48015 38.1248 5.47559 38.495C5.47923 38.8607 5.4199 39.2241 5.30035 39.5684C5.19389 39.8775 5.02875 40.1616 4.81456 40.4043C4.60829 40.6376 4.35661 40.8236 4.0759 40.9501C3.78142 41.082 3.46315 41.1482 3.14204 41.1442C2.82383 41.1477 2.50854 41.0815 2.21704 40.9501C1.93833 40.8235 1.68884 40.6374 1.48504 40.4043C1.27308 40.1603 1.10888 39.8765 1.00147 39.5684C0.882671 39.2239 0.824092 38.8605 0.828446 38.495ZM1.66471 38.495C1.66199 38.7483 1.69868 39.0004 1.7734 39.2418C1.83839 39.455 1.94229 39.6534 2.07951 39.8265C2.2072 39.9887 2.36767 40.1205 2.54977 40.2124C2.73697 40.3062 2.94276 40.3539 3.15091 40.3518C3.35974 40.3536 3.56618 40.3059 3.75426 40.2124C3.9377 40.1206 4.09964 39.9889 4.22896 39.8265C4.36468 39.6527 4.46774 39.4545 4.53285 39.2418C4.60612 39.0025 4.64205 38.7528 4.63932 38.5019C4.64142 38.2562 4.60548 38.0118 4.53285 37.7779C4.46801 37.567 4.36572 37.3703 4.23117 37.1978C4.10549 37.0359 3.94834 36.9029 3.76979 36.8073C3.57641 36.7108 3.36352 36.663 3.14869 36.6679C2.93806 36.665 2.72976 36.7135 2.5409 36.8095C2.36021 36.9048 2.2008 37.0378 2.07286 37.2001C1.94005 37.3725 1.8386 37.5683 1.7734 37.7779C1.70072 38.0095 1.66403 38.2516 1.66471 38.495Z" fill="#00953D"/>
<path d="M6.21094 36.0078H7.41542L8.53784 39.5706H8.55558L9.66468 36.0078H10.8736V41.0322H10.1216V36.9921H10.1105L8.79737 41.0231H8.26056L6.96513 36.9921V41.0231H6.21094V36.0078Z" fill="#00953D"/>
<path d="M14.9594 37.1847C14.8528 37.0107 14.6984 36.8732 14.5157 36.7896C14.3463 36.7109 14.1626 36.6697 13.9767 36.6685C13.7654 36.6659 13.5565 36.7144 13.3667 36.8101C13.1843 36.9047 13.0233 37.0378 12.8942 37.2007C12.7575 37.3724 12.6536 37.5692 12.5881 37.7808C12.5155 38.0147 12.4795 38.2591 12.4816 38.5047C12.4783 38.7593 12.5134 39.0128 12.5859 39.2561C12.6475 39.4684 12.7476 39.6668 12.8809 39.8408C13.0083 40.0047 13.1706 40.1363 13.3552 40.2253C13.5398 40.3144 13.7418 40.3587 13.9457 40.3546C14.1613 40.3585 14.3742 40.3034 14.5623 40.1948C14.7412 40.0929 14.8934 39.948 15.006 39.7723L15.6226 40.2747C15.4386 40.5547 15.1887 40.7821 14.8962 40.9359C14.6038 41.0896 14.2783 41.1647 13.9501 41.154C13.6297 41.1583 13.312 41.0922 13.0185 40.9599C12.7404 40.8332 12.4916 40.6471 12.2887 40.414C12.0788 40.1697 11.9169 39.8858 11.8117 39.5781C11.6948 39.2332 11.637 38.87 11.6409 38.5047C11.6356 38.1341 11.6965 37.7656 11.8206 37.4176C11.9304 37.1109 12.0985 36.8298 12.3153 36.5909C12.5249 36.3646 12.778 36.1857 13.0584 36.0656C13.3527 35.9423 13.6678 35.8802 13.9856 35.8829C14.1346 35.8834 14.2831 35.8987 14.4292 35.9286C14.582 35.9576 14.7309 36.0051 14.8729 36.0702C15.0106 36.1317 15.1414 36.2083 15.2633 36.2986C15.3856 36.3929 15.4913 36.5079 15.576 36.6388L14.9594 37.1847Z" fill="#F69320"/>
<path d="M17.6845 37.5247C17.8556 37.5199 18.0251 37.56 18.177 37.6412C18.3101 37.7162 18.4247 37.8217 18.5119 37.9495C18.6009 38.0828 18.6662 38.2313 18.7049 38.388C18.745 38.5554 18.7651 38.7272 18.7648 38.8996V41.0236H18.0328V39.1531C18.0322 39.0501 18.0262 38.9472 18.0151 38.8448C18.004 38.7445 17.9778 38.6467 17.9374 38.5547C17.9008 38.4696 17.8445 38.3951 17.7733 38.3378C17.6901 38.2785 17.5904 38.2488 17.4893 38.2533C17.3825 38.2513 17.277 38.2781 17.1832 38.3309C17.0952 38.3833 17.0195 38.4551 16.9614 38.541C16.9027 38.6311 16.8592 38.7307 16.8327 38.8356C16.8043 38.9436 16.7901 39.055 16.7906 39.1668V41.0236H16.0586V35.668H16.7906V38.098C16.8224 38.0218 16.865 37.951 16.917 37.8879C16.9732 37.8184 17.0381 37.7569 17.11 37.7051C17.2706 37.5838 17.4655 37.5204 17.6646 37.5247H17.6845Z" fill="#F69320"/>
<path d="M22.4026 39.366V39.4802C22.4048 39.5182 22.4048 39.5563 22.4026 39.5944H20.1843C20.1903 39.7107 20.2182 39.8247 20.2664 39.9301C20.3115 40.0292 20.3747 40.1184 20.4527 40.1927C20.5299 40.2653 20.6184 40.324 20.7145 40.3663C20.8115 40.408 20.9155 40.4298 21.0206 40.4302C21.1826 40.4357 21.3429 40.3955 21.4842 40.3138C21.6118 40.2333 21.7185 40.122 21.7948 39.9895L22.285 40.4462C22.1529 40.6648 21.967 40.8433 21.746 40.9637C21.525 41.0841 21.277 41.1419 21.0273 41.1314C20.8114 41.1339 20.5972 41.092 20.3973 41.0081C20.2102 40.9268 20.0411 40.8071 19.9004 40.6563C19.7513 40.4953 19.6364 40.3039 19.5632 40.0945C19.4808 39.8549 19.441 39.6019 19.4457 39.3477C19.4418 39.0936 19.4816 38.8407 19.5632 38.6009C19.6354 38.3895 19.7461 38.1941 19.8893 38.0254C20.0291 37.8659 20.2004 37.739 20.3917 37.6532C20.5829 37.5673 20.7898 37.5245 20.9984 37.5275C21.192 37.5257 21.3839 37.5654 21.5619 37.644C21.7335 37.7234 21.8852 37.8421 22.0055 37.9911C22.1389 38.1608 22.2391 38.3554 22.3005 38.5644C22.374 38.8247 22.4084 39.095 22.4026 39.366ZM21.6705 38.9846C21.6709 38.8789 21.6575 38.7737 21.6306 38.6717C21.6051 38.5771 21.563 38.4881 21.5064 38.4091C21.4463 38.3328 21.3705 38.2712 21.2846 38.2286C21.1879 38.1831 21.0825 38.1604 20.9762 38.1624C20.873 38.1602 20.7703 38.1792 20.6743 38.2184C20.5783 38.2576 20.4909 38.3162 20.4173 38.3908C20.2693 38.5512 20.1861 38.7634 20.1843 38.9846H21.6705Z" fill="#F69320"/>
<path d="M25.1222 38.5654C25.0582 38.4674 24.9702 38.3886 24.8671 38.337C24.7607 38.2753 24.6409 38.2423 24.5188 38.2411C24.3941 38.2382 24.2712 38.2714 24.1639 38.337C24.0622 38.3998 23.9757 38.4858 23.9111 38.5882C23.8421 38.6957 23.7918 38.8147 23.7624 38.9399C23.7296 39.0681 23.7132 39.2002 23.7136 39.3327C23.713 39.4655 23.7302 39.5977 23.7646 39.7255C23.7963 39.8504 23.8488 39.9687 23.9199 40.075C23.9871 40.1756 24.075 40.2598 24.1772 40.3216C24.2876 40.3874 24.4135 40.4206 24.541 40.4176C24.6591 40.4162 24.7756 40.3889 24.8826 40.3376C24.9933 40.2896 25.0887 40.2105 25.1577 40.1092L25.6146 40.6482C25.4885 40.8017 25.3289 40.9222 25.1488 40.9999C24.9541 41.083 24.7451 41.125 24.5344 41.1233C24.3239 41.1237 24.1153 41.0826 23.9199 41.0022C23.7286 40.9231 23.5561 40.8023 23.4142 40.6482C23.265 40.4881 23.1475 40.2996 23.0681 40.0932C22.9803 39.8509 22.9374 39.5937 22.9417 39.335C22.9382 39.0809 22.9811 38.8283 23.0681 38.5905C23.1441 38.3806 23.2594 38.1881 23.4075 38.0241C23.5486 37.8669 23.7203 37.7421 23.9114 37.6578C24.1025 37.5736 24.3088 37.5319 24.5166 37.5354C24.7327 37.5348 24.9462 37.5832 25.1422 37.677C25.332 37.7612 25.4971 37.895 25.6213 38.0652L25.1222 38.5654Z" fill="#F69320"/>
<path d="M26.1121 35.668H26.8397V39.0549H26.8574L27.9665 37.6229H28.9071L27.636 39.16L28.9869 41.0236H28.0153L26.8552 39.281H26.8397V41.0236H26.1055L26.1121 35.668Z" fill="#F69320"/>
<defs>
<clipPath id="clip0_7453_15483">
<rect width="6.09842" height="6.27885" fill="white" transform="translate(14.0742 4.93164)"/>
</clipPath>
</defs>
</svg>
