<svg width="215" height="56" viewBox="0 0 215 56" fill="none" xmlns="http://www.w3.org/2000/svg">
<path d="M49.4322 8.62995C51.802 8.62995 53.7471 6.70721 53.7471 4.31497C53.7471 1.94509 51.8244 0 49.4322 0C47.0623 0 45.1172 1.92273 45.1172 4.31497C45.1172 6.70721 47.0399 8.62995 49.4322 8.62995Z" fill="#32A1DA"/>
<path d="M49.4322 24.526C46.5704 24.526 43.8652 25.3085 41.5624 26.65C39.6173 27.7678 37.9405 29.3105 36.6438 31.1214C36.3531 31.5462 36.0625 31.971 35.7942 32.4405C34.9669 33.8938 34.3633 35.4811 34.0056 37.1579H31.1438C30.3166 33.0889 27.9244 29.5788 24.6155 27.2983C27.276 24.8837 28.9305 21.396 28.9305 17.5282C28.9305 10.2396 23.0057 4.31494 15.7172 4.31494C8.42873 4.31494 2.50403 10.2396 2.50403 17.5282C2.50403 17.7517 2.50403 17.9529 2.52639 18.1765C2.52639 18.4001 2.54874 18.6013 2.5711 18.8249C2.59346 19.0261 2.61581 19.2497 2.63817 19.4509C2.66053 19.6521 2.70524 19.8757 2.74996 20.0769C2.79467 20.2781 2.83939 20.4793 2.8841 20.6805C2.92882 20.8818 2.99589 21.083 3.04061 21.2842C3.08532 21.4183 3.13003 21.5525 3.17475 21.6643H10.0832C9.59132 21.0159 9.2336 20.2781 8.98767 19.4732C8.80881 18.8472 8.69702 18.1765 8.69702 17.5058C8.69702 13.638 11.8494 10.5079 15.6949 10.5079C19.5627 10.5079 22.6927 13.6603 22.6927 17.5058C22.6927 19.0485 22.1785 20.5017 21.3289 21.6643C20.0546 23.4081 17.9977 24.526 15.6949 24.526V30.719C17.9977 30.719 20.0993 31.5239 21.7537 32.8877C23.8777 34.6316 25.2415 37.2921 25.2415 40.2433C25.2415 45.4972 20.9712 49.7675 15.7172 49.7675C10.4633 49.7675 6.193 45.4972 6.193 40.2433C6.193 39.7067 6.23771 39.1925 6.32714 38.6782C6.41657 38.164 6.52836 37.6722 6.70722 37.1803C6.86372 36.7108 7.06493 36.2413 7.31086 35.7941C7.5568 35.347 7.82508 34.9222 8.13809 34.5198C8.38402 34.1844 8.67467 33.8714 8.96531 33.5584H1.49794C1.07315 34.4527 0.715438 35.4141 0.469506 36.3978C0.156503 37.6274 0 38.9242 0 40.2433C0 48.9179 7.04258 55.9605 15.7172 55.9605C23.3188 55.9605 29.6906 50.5277 31.1438 43.3286H34.0056C35.4588 50.5277 41.8083 55.9605 49.4098 55.9605C58.0845 55.9605 65.1271 48.8956 65.1271 40.2433C65.1494 31.5909 58.1068 24.526 49.4322 24.526ZM49.4322 49.7899C44.1782 49.7899 39.9079 45.5196 39.9079 40.2656C39.9079 38.6559 40.3104 37.1356 41.0258 35.7941C41.2717 35.3246 41.5624 34.8998 41.8754 34.4751C43.6193 32.1946 46.3692 30.719 49.4322 30.719C54.6862 30.719 58.9564 34.9893 58.9564 40.2433C58.9564 45.5196 54.6862 49.7899 49.4322 49.7899Z" fill="#32A1DA"/>
<path d="M49.4321 20.0542C58.1068 20.0542 65.1494 12.9892 65.1494 4.33691H58.9564C58.9564 9.5909 54.6861 13.8612 49.4321 13.8612C44.1782 13.8612 39.9079 9.5909 39.9079 4.33691H33.7149C33.6925 12.9892 40.7575 20.0542 49.4321 20.0542Z" fill="#32A1DA"/>
<g clip-path="url(#clip0_5913_94762)">
<path d="M83.3052 46.4805C80.7957 46.4805 78.7968 46.005 77.3086 45.054C75.8204 44.103 74.7553 42.7359 74.1133 40.9528C73.4714 39.1696 73.1504 37.0596 73.1504 34.6226V21.1154C73.1504 18.6785 73.4714 16.5981 74.1133 14.8744C74.7553 13.121 75.8204 11.7837 77.3086 10.8624C78.7968 9.94111 80.7957 9.48047 83.3052 9.48047C85.8731 9.48047 87.8865 9.94111 89.3455 10.8624C90.8337 11.7837 91.8988 13.121 92.5408 14.8744C93.2119 16.5981 93.5475 18.6785 93.5475 21.1154V34.6672C93.5475 37.0744 93.2119 39.1696 92.5408 40.9528C91.8988 42.7062 90.8337 44.0732 89.3455 45.054C87.8865 46.005 85.8731 46.4805 83.3052 46.4805ZM83.3052 41.6214C84.3849 41.6214 85.1727 41.3837 85.6688 40.9082C86.194 40.4327 86.5442 39.7789 86.7193 38.9467C86.8944 38.1146 86.9819 37.2082 86.9819 36.2275V19.5997C86.9819 18.5893 86.8944 17.6829 86.7193 16.8805C86.5442 16.0781 86.194 15.454 85.6688 15.0082C85.1727 14.5327 84.3849 14.2949 83.3052 14.2949C82.2839 14.2949 81.5106 14.5327 80.9853 15.0082C80.4601 15.454 80.1099 16.0781 79.9348 16.8805C79.7598 17.6829 79.6722 18.5893 79.6722 19.5997V36.2275C79.6722 37.2082 79.7452 38.1146 79.8911 38.9467C80.0662 39.7789 80.4163 40.4327 80.9416 40.9082C81.4668 41.3837 82.2547 41.6214 83.3052 41.6214Z" fill="#32A1DA"/>
<path d="M98.2518 45.9901L98.8646 9.88167H105.562L110.595 34.8901L115.848 9.88167H122.326L122.982 45.9901H118.167L117.642 20.8925L112.609 45.9901H108.713L103.592 20.8034L103.11 45.9901H98.2518Z" fill="#32A1DA"/>
<path d="M128.13 45.9901L128.743 9.88167H135.44L140.474 34.8901L145.726 9.88167H152.204L152.861 45.9901H148.046L147.521 20.8925L142.487 45.9901H138.592L133.47 20.8034L132.989 45.9901H128.13Z" fill="#32A1DA"/>
<path d="M156.302 45.9901L163.393 9.88167H170.309L177.399 45.9901H171.403L170.002 37.654H163.83L162.386 45.9901H156.302ZM164.487 33.4636H169.302L166.894 18.307L164.487 33.4636Z" fill="#32A1DA"/>
<path d="M180.965 45.9901V9.88167H185.473L194.096 30.4769V9.88167H199.436V45.9901H195.147L186.48 24.4142V45.9901H180.965Z" fill="#32A1DA"/>
<path d="M204.992 45.9901V9.88167H211.382V45.9901H204.992Z" fill="#32A1DA"/>
<path d="M216.258 45.9901V39.8829H222.036V45.9901H216.258Z" fill="#32A1DA"/>
<path d="M231.787 45.9901L224.653 9.88167H230.387L235.07 35.425L239.447 9.88167H245.313L238.178 45.9901H231.787Z" fill="#32A1DA"/>
<path d="M248.929 45.9901V9.88167H253.438L262.06 30.4769V9.88167H267.4V45.9901H263.111L254.444 24.4142V45.9901H248.929Z" fill="#32A1DA"/>
</g>
<defs>
<clipPath id="clip0_5913_94762">
<rect width="141.833" height="37" fill="white" transform="translate(73.1504 9.48047)"/>
</clipPath>
</defs>
</svg>
