<svg width="203" height="202" viewBox="0 0 203 202" fill="none" xmlns="http://www.w3.org/2000/svg">
<path d="M101.5 8.41666L25.75 42.0833V92.5833C25.75 139.296 58.07 182.978 101.5 193.583C144.93 182.978 177.25 139.296 177.25 92.5833V42.0833L101.5 8.41666ZM101.5 42.0833C108.197 42.0833 114.619 44.7436 119.354 49.4789C124.09 54.2142 126.75 60.6366 126.75 67.3333C126.75 74.03 124.09 80.4525 119.354 85.1878C114.619 89.9231 108.197 92.5833 101.5 92.5833C94.8033 92.5833 88.3808 89.9231 83.6456 85.1878C78.9103 80.4525 76.25 74.03 76.25 67.3333C76.25 60.6366 78.9103 54.2142 83.6456 49.4789C88.3808 44.7436 94.8033 42.0833 101.5 42.0833ZM144.677 143.083C134.48 158.693 119.241 170.338 101.5 176.077C83.7591 170.338 68.5203 158.693 58.3225 143.083C55.4608 138.875 53.02 134.667 51 130.206C51 116.318 73.8092 104.956 101.5 104.956C129.191 104.956 152 116.066 152 130.206C149.98 134.667 147.539 138.875 144.677 143.083Z" fill="#32A1DA"/>
<path d="M107.165 60.3898C108.036 60.3898 108.751 59.6833 108.751 58.8042C108.751 57.9334 108.044 57.2187 107.165 57.2187C106.294 57.2187 105.58 57.9252 105.58 58.8042C105.58 59.6833 106.286 60.3898 107.165 60.3898Z" fill="#32A1DA"/>
<path d="M107.164 66.2307C106.112 66.2307 105.118 66.5183 104.272 67.0112C103.557 67.4219 102.941 67.9888 102.465 68.6542C102.358 68.8103 102.251 68.9664 102.153 69.1389C101.849 69.6729 101.627 70.2562 101.495 70.8723H100.444C100.14 69.3772 99.2608 68.0874 98.0449 67.2494C99.0226 66.3622 99.6305 65.0806 99.6305 63.6594C99.6305 60.9812 97.4535 58.8042 94.7753 58.8042C92.0971 58.8042 89.9201 60.9812 89.9201 63.6594C89.9201 63.7415 89.9201 63.8155 89.9283 63.8976C89.9283 63.9798 89.9365 64.0537 89.9447 64.1359C89.953 64.2098 89.9612 64.2919 89.9694 64.3659C89.9776 64.4398 89.994 64.522 90.0105 64.5959C90.0269 64.6698 90.0433 64.7438 90.0598 64.8177C90.0762 64.8917 90.1008 64.9656 90.1173 65.0395C90.1337 65.0888 90.1501 65.1381 90.1666 65.1792H92.7051C92.5243 64.9409 92.3929 64.6698 92.3025 64.3741C92.2368 64.1441 92.1957 63.8976 92.1957 63.6512C92.1957 62.2299 93.3541 61.0798 94.7671 61.0798C96.1883 61.0798 97.3384 62.2381 97.3384 63.6512C97.3384 64.218 97.1495 64.752 96.8373 65.1792C96.369 65.82 95.6132 66.2307 94.7671 66.2307V68.5063C95.6132 68.5063 96.3855 68.8021 96.9934 69.3032C97.7738 69.944 98.275 70.9216 98.275 72.006C98.275 73.9366 96.7059 75.5057 94.7753 75.5057C92.8447 75.5057 91.2756 73.9366 91.2756 72.006C91.2756 71.8089 91.292 71.6199 91.3249 71.431C91.3578 71.242 91.3988 71.0613 91.4646 70.8805C91.5221 70.708 91.596 70.5355 91.6864 70.3712C91.7767 70.2069 91.8753 70.0508 91.9903 69.9029C92.0807 69.7797 92.1875 69.6647 92.2943 69.5497H89.5504C89.3943 69.8783 89.2629 70.2315 89.1725 70.593C89.0575 71.0448 89 71.5213 89 72.006C89 75.1935 91.5878 77.7813 94.7753 77.7813C97.5685 77.7813 99.9098 75.785 100.444 73.1397H101.495C102.029 75.785 104.362 77.7813 107.156 77.7813C110.343 77.7813 112.931 75.1853 112.931 72.006C112.939 68.8267 110.351 66.2307 107.164 66.2307ZM107.164 75.5139C105.233 75.5139 103.664 73.9448 103.664 72.0142C103.664 71.4227 103.812 70.8641 104.075 70.3712C104.165 70.1987 104.272 70.0426 104.387 69.8865C105.028 69.0486 106.038 68.5063 107.164 68.5063C109.094 68.5063 110.664 70.0755 110.664 72.006C110.664 73.9448 109.094 75.5139 107.164 75.5139Z" fill="#32A1DA"/>
<path d="M107.163 64.5877C110.351 64.5877 112.939 61.9917 112.939 58.8124H110.663C110.663 60.743 109.094 62.3121 107.163 62.3121C105.233 62.3121 103.664 60.743 103.664 58.8124H101.388C101.38 61.9917 103.976 64.5877 107.163 64.5877Z" fill="#32A1DA"/>
</svg>
