<svg width="60" height="60" viewBox="0 0 60 60" fill="none" xmlns="http://www.w3.org/2000/svg">
<path d="M52.3499 29.5743L28.484 5.71019C28.0628 5.28905 27.4686 5.08763 26.879 5.18193C26.2913 5.26982 25.7795 5.63237 25.5012 6.1588L13.7019 28.4482L7.27027 34.8789C4.34791 37.804 4.34791 42.562 7.27119 45.4844L12.5758 50.7889C13.9875 52.2007 15.8698 52.9779 17.8776 52.9779C19.8853 52.9779 21.7686 52.2007 23.1812 50.7889L29.6119 44.3583L51.9013 32.5571C52.4268 32.2788 52.7894 31.767 52.8791 31.1783C52.967 30.5906 52.7711 29.9946 52.3499 29.5743Z" fill="url(#paint0_linear_7256_8435)"/>
<path d="M11.25 54.311C9.24586 54.311 7.36263 53.5309 5.94539 52.1155C3.02211 49.1886 3.02211 44.4306 5.94539 41.5073C6.67781 40.7749 7.86433 40.7749 8.59676 41.5073L16.5527 49.4633C17.2851 50.1957 17.2851 51.3822 16.5527 52.1146C15.1373 53.5309 13.2531 54.311 11.25 54.311Z" fill="url(#paint1_linear_7256_8435)"/>
<path d="M33.1256 50.1261L27.1582 44.1587C26.4551 43.4556 25.21 43.4556 24.5068 44.1587L20.5298 48.1376C19.7974 48.87 19.7974 50.0574 20.5298 50.7889L26.4972 56.7545C27.3798 57.6371 28.5571 58.1241 29.8105 58.1241C31.0638 58.1241 32.2412 57.638 33.1256 56.7545C34.953 54.9271 34.953 51.9535 33.1256 50.1261Z" fill="url(#paint2_linear_7256_8435)"/>
<path d="M37.5 9.37598C36.4636 9.37598 35.625 8.53644 35.625 7.50098V3.75098C35.625 2.71552 36.4636 1.87598 37.5 1.87598C38.5364 1.87598 39.375 2.71552 39.375 3.75098V7.50098C39.375 8.53644 38.5364 9.37598 37.5 9.37598Z" fill="url(#paint3_linear_7256_8435)"/>
<path d="M54.375 22.5H50.625C49.5886 22.5 48.75 21.6605 48.75 20.625C48.75 19.5895 49.5886 18.75 50.625 18.75H54.375C55.4114 18.75 56.25 19.5895 56.25 20.625C56.25 21.6605 55.4114 22.5 54.375 22.5Z" fill="url(#paint4_linear_7256_8435)"/>
<path d="M45 15C44.5203 15 44.0405 14.8169 43.6743 14.4507C42.9419 13.7183 42.9419 12.5317 43.6743 11.7993L47.4243 8.04932C48.1567 7.31689 49.3433 7.31689 50.0757 8.04932C50.8081 8.78174 50.8081 9.96826 50.0757 10.7007L46.3257 14.4507C45.9595 14.8169 45.4797 15 45 15Z" fill="url(#paint5_linear_7256_8435)"/>
<path d="M29.8124 44.1558L23.1749 50.7934C21.7686 52.1996 19.8936 52.9687 17.8685 52.9687C15.8625 52.9687 13.9875 52.1996 12.5813 50.7934L7.27489 45.487C4.34978 42.5628 4.34978 37.8002 7.27489 34.8751L13.8941 28.2559H13.9125L29.8124 44.1558Z" fill="url(#paint6_linear_7256_8435)"/>
<defs>
<linearGradient id="paint0_linear_7256_8435" x1="5.07757" y1="29.0682" x2="52.8994" y2="29.0682" gradientUnits="userSpaceOnUse">
<stop stop-color="#BBDEFB"/>
<stop offset="1" stop-color="#64B5F6"/>
</linearGradient>
<linearGradient id="paint1_linear_7256_8435" x1="3.75183" y1="47.6344" x2="17.1018" y2="47.6344" gradientUnits="userSpaceOnUse">
<stop stop-color="#BBDEFB"/>
<stop offset="1" stop-color="#64B5F6"/>
</linearGradient>
<linearGradient id="paint2_linear_7256_8435" x1="19.98" y1="50.8782" x2="34.4963" y2="50.8782" gradientUnits="userSpaceOnUse">
<stop stop-color="#BBDEFB"/>
<stop offset="1" stop-color="#64B5F6"/>
</linearGradient>
<linearGradient id="paint3_linear_7256_8435" x1="35.625" y1="5.62506" x2="39.375" y2="5.62506" gradientUnits="userSpaceOnUse">
<stop stop-color="#BBDEFB"/>
<stop offset="1" stop-color="#64B5F6"/>
</linearGradient>
<linearGradient id="paint4_linear_7256_8435" x1="48.75" y1="20.625" x2="56.25" y2="20.625" gradientUnits="userSpaceOnUse">
<stop stop-color="#BBDEFB"/>
<stop offset="1" stop-color="#64B5F6"/>
</linearGradient>
<linearGradient id="paint5_linear_7256_8435" x1="43.125" y1="11.25" x2="50.625" y2="11.25" gradientUnits="userSpaceOnUse">
<stop stop-color="#BBDEFB"/>
<stop offset="1" stop-color="#64B5F6"/>
</linearGradient>
<linearGradient id="paint6_linear_7256_8435" x1="5.08136" y1="40.6124" x2="29.8126" y2="40.6124" gradientUnits="userSpaceOnUse">
<stop stop-color="#42A5F5"/>
<stop offset="1" stop-color="#1E88E5"/>
</linearGradient>
</defs>
</svg>
