<svg width="60" height="60" viewBox="0 0 60 60" fill="none" xmlns="http://www.w3.org/2000/svg">
<g clip-path="url(#clip0_7256_8968)">
<path d="M0.0356445 27.1716L6.78883 25.5237L12.0656 17.1424C12.1551 17.0008 12.3291 16.9486 12.4782 17.0057L22.393 20.918L32.2879 8.6121C32.4072 8.46297 32.621 8.4406 32.7701 8.5599C32.9167 8.67672 32.9391 8.89296 32.8198 9.03961L22.7783 21.5319C22.6888 21.6537 22.5247 21.7059 22.3781 21.6487L12.4931 17.7464L7.2934 26.0058C7.24617 26.0779 7.17409 26.1351 7.08461 26.155L0.0356445 27.875V27.1716Z" fill="#5098C2"/>
<path d="M7.00497 27.5343C7.9494 27.5343 8.71501 26.7687 8.71501 25.8243C8.71501 24.8799 7.9494 24.1143 7.00497 24.1143C6.06054 24.1143 5.29492 24.8799 5.29492 25.8243C5.29492 26.7687 6.06054 27.5343 7.00497 27.5343Z" fill="#FF576B"/>
<path d="M7.00546 26.6271C7.44885 26.6271 7.80829 26.2677 7.80829 25.8243C7.80829 25.3809 7.44885 25.0215 7.00546 25.0215C6.56207 25.0215 6.20264 25.3809 6.20264 25.8243C6.20264 26.2677 6.56207 26.6271 7.00546 26.6271Z" fill="#FF8593"/>
<path d="M12.3541 19.0339C13.2985 19.0339 14.0641 18.2682 14.0641 17.3238C14.0641 16.3794 13.2985 15.6138 12.3541 15.6138C11.4097 15.6138 10.644 16.3794 10.644 17.3238C10.644 18.2682 11.4097 19.0339 12.3541 19.0339Z" fill="#FF576B"/>
<path d="M12.3541 18.1266C12.7975 18.1266 13.1569 17.7672 13.1569 17.3238C13.1569 16.8804 12.7975 16.521 12.3541 16.521C11.9107 16.521 11.5513 16.8804 11.5513 17.3238C11.5513 17.7672 11.9107 18.1266 12.3541 18.1266Z" fill="#FF8593"/>
<path d="M22.5025 23.038C23.447 23.038 24.2126 22.2724 24.2126 21.328C24.2126 20.3835 23.447 19.6179 22.5025 19.6179C21.5581 19.6179 20.7925 20.3835 20.7925 21.328C20.7925 22.2724 21.5581 23.038 22.5025 23.038Z" fill="#FF576B"/>
<path d="M22.5025 22.1308C22.9459 22.1308 23.3054 21.7714 23.3054 21.328C23.3054 20.8846 22.9459 20.5251 22.5025 20.5251C22.0591 20.5251 21.6997 20.8846 21.6997 21.328C21.6997 21.7714 22.0591 22.1308 22.5025 22.1308Z" fill="#FF8593"/>
<path d="M28.9276 9.97156C28.7437 10.0113 28.5597 9.89451 28.52 9.71058C28.4802 9.52417 28.597 9.34272 28.7834 9.30295L32.4819 8.49019C32.6683 8.45042 32.8498 8.56724 32.8895 8.75365C32.8945 8.78099 32.897 8.80833 32.897 8.83567L33.0387 12.5764C33.0461 12.7653 32.8995 12.9219 32.7106 12.9293C32.5217 12.9368 32.3626 12.7877 32.3576 12.6013L32.2284 9.24827L28.9276 9.97156Z" fill="#5098C2"/>
<path fill-rule="evenodd" clip-rule="evenodd" d="M32.5044 18.2832H42.2402V20.7762H32.5044V18.2832Z" fill="#FFC42E"/>
<path fill-rule="evenodd" clip-rule="evenodd" d="M32.5044 18.574H33.424V20.3785H32.5044V18.574Z" fill="#FFD861"/>
<path fill-rule="evenodd" clip-rule="evenodd" d="M32.5044 18.2832H42.2402V18.574H32.5044V18.2832Z" fill="#FFD147"/>
<path fill-rule="evenodd" clip-rule="evenodd" d="M41.0122 18.7554C41.0395 19.0213 41.0545 19.2947 41.0545 19.5731C41.0545 19.849 41.0395 20.1174 41.0122 20.3784H42.2401V18.7554H41.0122Z" fill="#FAAA20"/>
<path fill-rule="evenodd" clip-rule="evenodd" d="M32.5044 18.7554H42.2402V18.574H32.5044V18.7554Z" fill="#FFAF26"/>
<path fill-rule="evenodd" clip-rule="evenodd" d="M32.5044 18.574H33.424V18.7554H32.5044V18.574Z" fill="#FFC42E"/>
<path fill-rule="evenodd" clip-rule="evenodd" d="M32.5044 20.3784H42.2402V20.7761H32.5044V20.3784Z" fill="#FFAF26"/>
<path fill-rule="evenodd" clip-rule="evenodd" d="M33.5435 20.7761H43.2793V23.2666H33.5435V20.7761Z" fill="#FFC42E"/>
<path fill-rule="evenodd" clip-rule="evenodd" d="M33.5435 21.0645H34.4631V22.8689H33.5435V21.0645Z" fill="#FFD861"/>
<path fill-rule="evenodd" clip-rule="evenodd" d="M33.5435 20.7761H43.2793V21.0644H33.5435V20.7761Z" fill="#FFD147"/>
<path fill-rule="evenodd" clip-rule="evenodd" d="M42.0513 21.2485C42.0786 21.5145 42.0935 21.7879 42.0935 22.0663C42.0935 22.3397 42.0786 22.6081 42.0513 22.8691H43.2791V21.2485H42.0513Z" fill="#FAAA20"/>
<path fill-rule="evenodd" clip-rule="evenodd" d="M33.5435 21.2484H43.2793V21.0645H33.5435V21.2484Z" fill="#FFAF26"/>
<path fill-rule="evenodd" clip-rule="evenodd" d="M33.5435 21.0645H34.4631V21.2484H33.5435V21.0645Z" fill="#FFC42E"/>
<path fill-rule="evenodd" clip-rule="evenodd" d="M33.5435 22.8691H43.2793V23.2668H33.5435V22.8691Z" fill="#FFAF26"/>
<path fill-rule="evenodd" clip-rule="evenodd" d="M32.5044 23.2666H42.2402V25.7571H32.5044V23.2666Z" fill="#FFC42E"/>
<path fill-rule="evenodd" clip-rule="evenodd" d="M32.5044 23.5576H33.424V25.3621H32.5044V23.5576Z" fill="#FFD861"/>
<path fill-rule="evenodd" clip-rule="evenodd" d="M32.5044 23.2666H42.2402V23.5574H32.5044V23.2666Z" fill="#FFD147"/>
<path fill-rule="evenodd" clip-rule="evenodd" d="M41.0122 23.739C41.0395 24.005 41.0545 24.2784 41.0545 24.5568C41.0545 24.8302 41.0395 25.1011 41.0122 25.3621H42.2401V23.739H41.0122Z" fill="#FAAA20"/>
<path fill-rule="evenodd" clip-rule="evenodd" d="M32.5044 23.7391H42.2402V23.5576H32.5044V23.7391Z" fill="#FFAF26"/>
<path fill-rule="evenodd" clip-rule="evenodd" d="M32.5044 23.5576H33.424V23.7391H32.5044V23.5576Z" fill="#FFC42E"/>
<path fill-rule="evenodd" clip-rule="evenodd" d="M32.5044 25.3621H42.2402V25.7573H32.5044V25.3621Z" fill="#FFAF26"/>
<path fill-rule="evenodd" clip-rule="evenodd" d="M32.5044 25.7573H42.2402V28.2503H32.5044V25.7573Z" fill="#FFC42E"/>
<path fill-rule="evenodd" clip-rule="evenodd" d="M32.5044 26.0481H33.424V27.8526H32.5044V26.0481Z" fill="#FFD861"/>
<path fill-rule="evenodd" clip-rule="evenodd" d="M32.5044 25.7573H42.2402V26.0481H32.5044V25.7573Z" fill="#FFD147"/>
<path fill-rule="evenodd" clip-rule="evenodd" d="M41.0122 26.2319C41.0395 26.4979 41.0545 26.7688 41.0545 27.0497C41.0545 27.3231 41.0395 27.5915 41.0122 27.8525H42.2401V26.2319H41.0122Z" fill="#FAAA20"/>
<path fill-rule="evenodd" clip-rule="evenodd" d="M32.5044 26.232H42.2402V26.0481H32.5044V26.232Z" fill="#FFAF26"/>
<path fill-rule="evenodd" clip-rule="evenodd" d="M32.5044 26.0481H33.424V26.232H32.5044V26.0481Z" fill="#FFC42E"/>
<path fill-rule="evenodd" clip-rule="evenodd" d="M32.5044 27.8525H42.2402V28.2502H32.5044V27.8525Z" fill="#FFAF26"/>
<path fill-rule="evenodd" clip-rule="evenodd" d="M31.7339 28.2502H41.4697V30.7407H31.7339V28.2502Z" fill="#FFC42E"/>
<path fill-rule="evenodd" clip-rule="evenodd" d="M31.7339 28.541H32.656V30.343H31.7339V28.541Z" fill="#FFD861"/>
<path fill-rule="evenodd" clip-rule="evenodd" d="M31.7339 28.2502H41.4697V28.5411H31.7339V28.2502Z" fill="#FFD147"/>
<path fill-rule="evenodd" clip-rule="evenodd" d="M40.2417 28.7224C40.269 28.9884 40.284 29.2618 40.284 29.5402C40.284 29.8136 40.269 30.082 40.2417 30.343H41.4696V28.7224H40.2417Z" fill="#FAAA20"/>
<path fill-rule="evenodd" clip-rule="evenodd" d="M31.7339 28.7225H41.4697V28.541H31.7339V28.7225Z" fill="#FFAF26"/>
<path fill-rule="evenodd" clip-rule="evenodd" d="M31.7339 28.541H32.656V28.7225H31.7339V28.541Z" fill="#FFC42E"/>
<path fill-rule="evenodd" clip-rule="evenodd" d="M31.7339 30.343H41.4697V30.7407H31.7339V30.343Z" fill="#FFAF26"/>
<path fill-rule="evenodd" clip-rule="evenodd" d="M32.5044 30.7407H42.2402V33.2337H32.5044V30.7407Z" fill="#FFC42E"/>
<path fill-rule="evenodd" clip-rule="evenodd" d="M32.5044 31.0315H33.424V32.836H32.5044V31.0315Z" fill="#FFD861"/>
<path fill-rule="evenodd" clip-rule="evenodd" d="M32.5044 30.7407H42.2402V31.0315H32.5044V30.7407Z" fill="#FFD147"/>
<path fill-rule="evenodd" clip-rule="evenodd" d="M41.0122 31.2153C41.0395 31.4788 41.0545 31.7522 41.0545 32.0331C41.0545 32.3065 41.0395 32.5749 41.0122 32.8359H42.2401V31.2153H41.0122Z" fill="#FAAA20"/>
<path fill-rule="evenodd" clip-rule="evenodd" d="M32.5044 31.2154H42.2402V31.0315H32.5044V31.2154Z" fill="#FFAF26"/>
<path fill-rule="evenodd" clip-rule="evenodd" d="M32.5044 31.0315H33.424V31.2154H32.5044V31.0315Z" fill="#FFC42E"/>
<path fill-rule="evenodd" clip-rule="evenodd" d="M32.5044 32.8359H42.2402V33.2336H32.5044V32.8359Z" fill="#FFAF26"/>
<path fill-rule="evenodd" clip-rule="evenodd" d="M31.6465 33.2336H41.3823V35.7241H31.6465V33.2336Z" fill="#FFC42E"/>
<path fill-rule="evenodd" clip-rule="evenodd" d="M31.6465 33.5244H32.5686V35.3264H31.6465V33.5244Z" fill="#FFD861"/>
<path fill-rule="evenodd" clip-rule="evenodd" d="M31.6465 33.2336H41.3823V33.5244H31.6465V33.2336Z" fill="#FFD147"/>
<path fill-rule="evenodd" clip-rule="evenodd" d="M40.1548 33.7061C40.1821 33.972 40.197 34.2454 40.197 34.5238C40.197 34.7972 40.1846 35.0656 40.1573 35.3266H41.3826V33.7061H40.1548Z" fill="#FAAA20"/>
<path fill-rule="evenodd" clip-rule="evenodd" d="M31.6465 33.7059H41.3823V33.5244H31.6465V33.7059Z" fill="#FFAF26"/>
<path fill-rule="evenodd" clip-rule="evenodd" d="M31.6465 33.5244H32.5686V33.7059H31.6465V33.5244Z" fill="#FFC42E"/>
<path fill-rule="evenodd" clip-rule="evenodd" d="M31.6465 35.3264H41.3823V35.7241H31.6465V35.3264Z" fill="#FFAF26"/>
<path fill-rule="evenodd" clip-rule="evenodd" d="M32.5044 35.7241H42.2402V38.2171H32.5044V35.7241Z" fill="#FFC42E"/>
<path fill-rule="evenodd" clip-rule="evenodd" d="M32.5044 36.0149H33.424V37.8194H32.5044V36.0149Z" fill="#FFD861"/>
<path fill-rule="evenodd" clip-rule="evenodd" d="M32.5044 35.7241H42.2402V36.0149H32.5044V35.7241Z" fill="#FFD147"/>
<path fill-rule="evenodd" clip-rule="evenodd" d="M41.0122 36.199C41.0395 36.4624 41.0545 36.7358 41.0545 37.0142C41.0545 37.2901 41.0395 37.5586 41.0122 37.8195H42.2401V36.199H41.0122Z" fill="#FAAA20"/>
<path fill-rule="evenodd" clip-rule="evenodd" d="M32.5044 36.1988H42.2402V36.0149H32.5044V36.1988Z" fill="#FFAF26"/>
<path fill-rule="evenodd" clip-rule="evenodd" d="M32.5044 36.0149H33.424V36.1988H32.5044V36.0149Z" fill="#FFC42E"/>
<path fill-rule="evenodd" clip-rule="evenodd" d="M32.5044 37.8196H42.2402V38.2173H32.5044V37.8196Z" fill="#FFAF26"/>
<path fill-rule="evenodd" clip-rule="evenodd" d="M33.1279 15.7927H42.8638V18.2832H33.1279V15.7927Z" fill="#FFC42E"/>
<path fill-rule="evenodd" clip-rule="evenodd" d="M33.1279 16.0835H34.0476V17.8855H33.1279V16.0835Z" fill="#FFD861"/>
<path fill-rule="evenodd" clip-rule="evenodd" d="M33.1279 15.7927H42.8638V16.0835H33.1279V15.7927Z" fill="#FFD147"/>
<path fill-rule="evenodd" clip-rule="evenodd" d="M41.6362 16.2649C41.6636 16.5308 41.6785 16.8043 41.6785 17.0826C41.6785 17.356 41.6636 17.6245 41.6362 17.8855H42.8641V16.2649H41.6362Z" fill="#FAAA20"/>
<path fill-rule="evenodd" clip-rule="evenodd" d="M33.1279 16.2649H42.8638V16.0835H33.1279V16.2649Z" fill="#FFAF26"/>
<path fill-rule="evenodd" clip-rule="evenodd" d="M33.1279 16.0835H34.0476V16.2649H33.1279V16.0835Z" fill="#FFC42E"/>
<path fill-rule="evenodd" clip-rule="evenodd" d="M33.1279 17.8855H42.8638V18.2832H33.1279V17.8855Z" fill="#FFAF26"/>
<path fill-rule="evenodd" clip-rule="evenodd" d="M21.4956 25.7573H31.2314V28.2503H21.4956V25.7573Z" fill="#FFC42E"/>
<path fill-rule="evenodd" clip-rule="evenodd" d="M21.4956 26.0481H22.4177V27.8526H21.4956V26.0481Z" fill="#FFD861"/>
<path fill-rule="evenodd" clip-rule="evenodd" d="M21.4956 25.7573H31.2314V26.0481H21.4956V25.7573Z" fill="#FFD147"/>
<path fill-rule="evenodd" clip-rule="evenodd" d="M30.0039 26.2319C30.0312 26.4979 30.0462 26.7688 30.0462 27.0497C30.0462 27.3231 30.0337 27.5915 30.0064 27.8525H31.2318V26.2319H30.0039Z" fill="#FAAA20"/>
<path fill-rule="evenodd" clip-rule="evenodd" d="M21.4956 26.232H31.2314V26.0481H21.4956V26.232Z" fill="#FFAF26"/>
<path fill-rule="evenodd" clip-rule="evenodd" d="M21.4956 26.0481H22.4177V26.232H21.4956V26.0481Z" fill="#FFC42E"/>
<path fill-rule="evenodd" clip-rule="evenodd" d="M21.4956 27.8525H31.2314V28.2502H21.4956V27.8525Z" fill="#FFAF26"/>
<path fill-rule="evenodd" clip-rule="evenodd" d="M19.689 28.2502H29.4248V30.7407H19.689V28.2502Z" fill="#FFC42E"/>
<path fill-rule="evenodd" clip-rule="evenodd" d="M19.689 28.541H20.6111V30.343H19.689V28.541Z" fill="#FFD861"/>
<path fill-rule="evenodd" clip-rule="evenodd" d="M19.689 28.2502H29.4248V28.5411H19.689V28.2502Z" fill="#FFD147"/>
<path fill-rule="evenodd" clip-rule="evenodd" d="M28.1968 28.7224C28.2241 28.9884 28.239 29.2618 28.239 29.5402C28.239 29.8136 28.2266 30.082 28.1993 30.343H29.4246V28.7224H28.1968Z" fill="#FAAA20"/>
<path fill-rule="evenodd" clip-rule="evenodd" d="M19.689 28.7225H29.4248V28.541H19.689V28.7225Z" fill="#FFAF26"/>
<path fill-rule="evenodd" clip-rule="evenodd" d="M19.689 28.541H20.6111V28.7225H19.689V28.541Z" fill="#FFC42E"/>
<path fill-rule="evenodd" clip-rule="evenodd" d="M19.689 30.343H29.4248V30.7407H19.689V30.343Z" fill="#FFAF26"/>
<path fill-rule="evenodd" clip-rule="evenodd" d="M20.6709 30.7407H30.4067V33.2337H20.6709V30.7407Z" fill="#FFC42E"/>
<path fill-rule="evenodd" clip-rule="evenodd" d="M20.6709 31.0315H21.5905V32.836H20.6709V31.0315Z" fill="#FFD861"/>
<path fill-rule="evenodd" clip-rule="evenodd" d="M20.6709 30.7407H30.4067V31.0315H20.6709V30.7407Z" fill="#FFD147"/>
<path fill-rule="evenodd" clip-rule="evenodd" d="M29.1787 31.2153C29.2061 31.4788 29.221 31.7522 29.221 32.0331C29.221 32.3065 29.2061 32.5749 29.1787 32.8359H30.4066V31.2153H29.1787Z" fill="#FAAA20"/>
<path fill-rule="evenodd" clip-rule="evenodd" d="M20.6709 31.2154H30.4067V31.0315H20.6709V31.2154Z" fill="#FFAF26"/>
<path fill-rule="evenodd" clip-rule="evenodd" d="M20.6709 31.0315H21.5905V31.2154H20.6709V31.0315Z" fill="#FFC42E"/>
<path fill-rule="evenodd" clip-rule="evenodd" d="M20.6709 32.8359H30.4067V33.2336H20.6709V32.8359Z" fill="#FFAF26"/>
<path fill-rule="evenodd" clip-rule="evenodd" d="M19.813 33.2336H29.5488V35.7241H19.813V33.2336Z" fill="#FFC42E"/>
<path fill-rule="evenodd" clip-rule="evenodd" d="M19.813 33.5244H20.7351V35.3264H19.813V33.5244Z" fill="#FFD861"/>
<path fill-rule="evenodd" clip-rule="evenodd" d="M19.813 33.2336H29.5488V33.5244H19.813V33.2336Z" fill="#FFD147"/>
<path fill-rule="evenodd" clip-rule="evenodd" d="M28.3213 33.7061C28.3486 33.972 28.3635 34.2454 28.3635 34.5238C28.3635 34.7972 28.3486 35.0656 28.3238 35.3266H29.5491V33.7061H28.3213Z" fill="#FAAA20"/>
<path fill-rule="evenodd" clip-rule="evenodd" d="M19.813 33.7059H29.5488V33.5244H19.813V33.7059Z" fill="#FFAF26"/>
<path fill-rule="evenodd" clip-rule="evenodd" d="M19.813 33.5244H20.7351V33.7059H19.813V33.5244Z" fill="#FFC42E"/>
<path fill-rule="evenodd" clip-rule="evenodd" d="M19.813 35.3264H29.5488V35.7241H19.813V35.3264Z" fill="#FFAF26"/>
<path fill-rule="evenodd" clip-rule="evenodd" d="M20.6709 35.7241H30.4067V38.2171H20.6709V35.7241Z" fill="#FFC42E"/>
<path fill-rule="evenodd" clip-rule="evenodd" d="M20.6709 36.0149H21.5905V37.8194H20.6709V36.0149Z" fill="#FFD861"/>
<path fill-rule="evenodd" clip-rule="evenodd" d="M20.6709 35.7241H30.4067V36.0149H20.6709V35.7241Z" fill="#FFD147"/>
<path fill-rule="evenodd" clip-rule="evenodd" d="M29.1787 36.199C29.2061 36.4624 29.221 36.7358 29.221 37.0142C29.221 37.2901 29.2061 37.5586 29.1787 37.8195H30.4066V36.199H29.1787Z" fill="#FAAA20"/>
<path fill-rule="evenodd" clip-rule="evenodd" d="M20.6709 36.1988H30.4067V36.0149H20.6709V36.1988Z" fill="#FFAF26"/>
<path fill-rule="evenodd" clip-rule="evenodd" d="M20.6709 36.0149H21.5905V36.1988H20.6709V36.0149Z" fill="#FFC42E"/>
<path fill-rule="evenodd" clip-rule="evenodd" d="M20.6709 37.8196H30.4067V38.2173H20.6709V37.8196Z" fill="#FFAF26"/>
<path fill-rule="evenodd" clip-rule="evenodd" d="M8.72754 30.7407H18.4658V33.2337H8.72754V30.7407Z" fill="#FFC42E"/>
<path fill-rule="evenodd" clip-rule="evenodd" d="M8.72754 31.0315H9.64967V32.836H8.72754V31.0315Z" fill="#FFD861"/>
<path fill-rule="evenodd" clip-rule="evenodd" d="M8.72754 30.7407H18.4658V31.0315H8.72754V30.7407Z" fill="#FFD147"/>
<path fill-rule="evenodd" clip-rule="evenodd" d="M17.2358 31.2153C17.2657 31.4788 17.2806 31.7522 17.2806 32.0331C17.2806 32.3065 17.2657 32.5749 17.2383 32.8359H18.4662V31.2153H17.2358Z" fill="#FAAA20"/>
<path fill-rule="evenodd" clip-rule="evenodd" d="M8.72754 31.2154H18.4658V31.0315H8.72754V31.2154Z" fill="#FFAF26"/>
<path fill-rule="evenodd" clip-rule="evenodd" d="M8.72754 31.0315H9.64967V31.2154H8.72754V31.0315Z" fill="#FFC42E"/>
<path fill-rule="evenodd" clip-rule="evenodd" d="M8.72754 32.8359H18.4658V33.2336H8.72754V32.8359Z" fill="#FFAF26"/>
<path fill-rule="evenodd" clip-rule="evenodd" d="M9.27441 33.2336H19.0127V35.7241H9.27441V33.2336Z" fill="#FFC42E"/>
<path fill-rule="evenodd" clip-rule="evenodd" d="M9.27441 33.5244H10.1965V35.3264H9.27441V33.5244Z" fill="#FFD861"/>
<path fill-rule="evenodd" clip-rule="evenodd" d="M9.27441 33.2336H19.0127V33.5244H9.27441V33.2336Z" fill="#FFD147"/>
<path fill-rule="evenodd" clip-rule="evenodd" d="M17.7852 33.7061C17.8125 33.972 17.8274 34.2454 17.8274 34.5238C17.8274 34.7972 17.8125 35.0656 17.7852 35.3266H19.013V33.7061H17.7852Z" fill="#FAAA20"/>
<path fill-rule="evenodd" clip-rule="evenodd" d="M9.27441 33.7059H19.0127V33.5244H9.27441V33.7059Z" fill="#FFAF26"/>
<path fill-rule="evenodd" clip-rule="evenodd" d="M9.27441 33.5244H10.1965V33.7059H9.27441V33.5244Z" fill="#FFC42E"/>
<path fill-rule="evenodd" clip-rule="evenodd" d="M9.27441 35.3264H19.0127V35.7241H9.27441V35.3264Z" fill="#FFAF26"/>
<path fill-rule="evenodd" clip-rule="evenodd" d="M8.29004 35.7241H18.0259V38.2171H8.29004V35.7241Z" fill="#FFC42E"/>
<path fill-rule="evenodd" clip-rule="evenodd" d="M8.29004 36.0149H9.20969V37.8194H8.29004V36.0149Z" fill="#FFD861"/>
<path fill-rule="evenodd" clip-rule="evenodd" d="M8.29004 35.7241H18.0259V36.0149H8.29004V35.7241Z" fill="#FFD147"/>
<path fill-rule="evenodd" clip-rule="evenodd" d="M16.7983 36.199C16.8257 36.4624 16.8406 36.7358 16.8406 37.0142C16.8406 37.2901 16.8257 37.5586 16.7983 37.8195H18.0262V36.199H16.7983Z" fill="#FAAA20"/>
<path fill-rule="evenodd" clip-rule="evenodd" d="M8.29004 36.1988H18.0259V36.0149H8.29004V36.1988Z" fill="#FFAF26"/>
<path fill-rule="evenodd" clip-rule="evenodd" d="M8.29004 36.0149H9.20969V36.1988H8.29004V36.0149Z" fill="#FFC42E"/>
<path fill-rule="evenodd" clip-rule="evenodd" d="M8.29004 37.8196H18.0259V38.2173H8.29004V37.8196Z" fill="#FFAF26"/>
<path fill-rule="evenodd" clip-rule="evenodd" d="M21.7496 24.9021L22.0031 26.1772L23.3503 26.4158L22.0031 26.6569L21.7496 27.932L21.4961 26.6569L20.1489 26.4158L21.4961 26.1772L21.7496 24.9021Z" fill="#ECF0F1"/>
<path fill-rule="evenodd" clip-rule="evenodd" d="M3.16504 41.3613H58.5452V44.7466H3.16504V41.3613Z" fill="#1AB594"/>
<path fill-rule="evenodd" clip-rule="evenodd" d="M3.16504 41.3614H58.5452L49.9924 36.8477H11.7178L3.16504 41.3614Z" fill="#00DCAB"/>
<path fill-rule="evenodd" clip-rule="evenodd" d="M6.49561 40.556H55.217L49.6991 37.2925L11.9861 37.28L6.49561 40.556Z" fill="#49EBC8"/>
<path fill-rule="evenodd" clip-rule="evenodd" d="M31.0503 40.8467C26.2881 40.8716 22.341 40.0464 22.2341 39.005C22.1273 37.9635 25.9003 37.101 30.6626 37.0787C35.4224 37.0538 39.3694 37.879 39.4763 38.9205C39.5856 39.9619 35.8101 40.8244 31.0503 40.8467Z" fill="#00DCAB"/>
<path fill-rule="evenodd" clip-rule="evenodd" d="M34.0404 39.619C34.0603 39.8054 33.8888 39.9545 33.5259 40.0713C33.163 40.1857 32.6088 40.2627 31.8656 40.3L31.8855 40.5038L30.1431 40.5113L30.1232 40.3075C29.3577 40.2801 28.7786 40.2105 28.3883 40.0987C27.9956 39.9893 27.7893 39.8377 27.7694 39.6513L27.762 39.5643L29.7752 39.5543L29.7852 39.6687C29.7951 39.7681 29.897 39.8377 30.0884 39.8775C30.2798 39.9148 30.5433 39.9346 30.8788 39.9321C31.2144 39.9321 31.4729 39.9098 31.6568 39.8675C31.8382 39.8278 31.9252 39.7582 31.9153 39.6587C31.9053 39.5643 31.7935 39.4848 31.5797 39.4176C31.366 39.3505 31.1025 39.2884 30.7869 39.2312C30.4712 39.1741 30.1332 39.1194 29.7728 39.0647C29.4124 39.01 29.0718 38.9479 28.7562 38.8783C28.438 38.8112 28.1721 38.7292 27.9558 38.6397C27.7396 38.5477 27.6253 38.4359 27.6128 38.3066C27.593 38.1177 27.7694 37.9661 28.1447 37.8493C28.5201 37.7325 29.0868 37.6579 29.8473 37.6231L29.825 37.4218L31.5673 37.4143L31.5872 37.6131C32.3652 37.6405 32.9518 37.7101 33.3445 37.8244C33.7347 37.9363 33.941 38.0879 33.9609 38.2743L33.9808 38.4632L31.9675 38.4731L31.9451 38.2569C31.9352 38.1575 31.8283 38.0904 31.6245 38.0506C31.4207 38.0133 31.1497 37.9959 30.8142 37.9959C30.4787 37.9984 30.2127 38.0183 30.0163 38.0581C29.82 38.1003 29.728 38.1699 29.738 38.2668C29.7479 38.3613 29.8598 38.4433 30.0735 38.5079C30.2873 38.575 30.5507 38.6372 30.8664 38.6944C31.1821 38.7515 31.5201 38.8087 31.883 38.8609C32.2434 38.9156 32.5814 38.9777 32.8971 39.0473C33.2152 39.1144 33.4812 39.1964 33.6974 39.2884C33.9137 39.3779 34.028 39.4897 34.0404 39.619Z" fill="#49EBC8"/>
<path fill-rule="evenodd" clip-rule="evenodd" d="M3.16504 44.2271H58.5452V44.7465H3.16504V44.2271Z" fill="#00AD88"/>
<path fill-rule="evenodd" clip-rule="evenodd" d="M4.58447 44.7466H59.9646V48.1319H4.58447V44.7466Z" fill="#1AB594"/>
<path fill-rule="evenodd" clip-rule="evenodd" d="M4.58447 47.6101H59.9646V48.1321H4.58447V47.6101Z" fill="#00AD88"/>
<path fill-rule="evenodd" clip-rule="evenodd" d="M3.5752 48.1318H58.9553V51.5171H3.5752V48.1318Z" fill="#1AB594"/>
<path fill-rule="evenodd" clip-rule="evenodd" d="M3.5752 50.9954H58.9553V51.5173H3.5752V50.9954Z" fill="#00AD88"/>
<path fill-rule="evenodd" clip-rule="evenodd" d="M24.2124 41.3613H37.4976V51.5172H24.2124V41.3613Z" fill="#C2CBD6"/>
<path fill-rule="evenodd" clip-rule="evenodd" d="M24.2124 41.3614H37.4976L34.5124 36.8477H27.1975L24.2124 41.3614Z" fill="#EFF3F7"/>
<path fill-rule="evenodd" clip-rule="evenodd" d="M19.9724 39.3083C19.9053 39.4301 19.7189 39.527 19.4181 39.604C19.1174 39.6786 18.6998 39.7283 18.1704 39.7532L18.0933 39.8849L16.8854 39.8924L16.9624 39.7581C16.4454 39.7407 16.0776 39.696 15.8539 39.6214C15.6327 39.5494 15.5581 39.4524 15.6277 39.3306L15.66 39.2735L17.0544 39.266L17.0121 39.3406C16.9749 39.4052 17.0146 39.4499 17.129 39.4773C17.2433 39.5021 17.4173 39.5146 17.6484 39.5146C17.8821 39.5121 18.071 39.4996 18.2151 39.4723C18.3593 39.445 18.4513 39.3977 18.4885 39.3331C18.5233 39.2735 18.4811 39.2213 18.3618 39.1765C18.245 39.1343 18.0909 39.092 17.897 39.0547C17.3179 38.9429 17.2781 38.9081 16.8531 38.8062C16.6667 38.7614 16.5175 38.7093 16.4082 38.6496C16.2988 38.5899 16.269 38.5179 16.3187 38.4309C16.3883 38.3091 16.5772 38.2097 16.8879 38.1351C17.1986 38.058 17.4198 38.0282 17.9591 38.0058L18.0337 37.8741L19.2392 37.8691L19.1671 38.0009C19.6915 38.0183 20.0644 38.063 20.2856 38.1376C20.5068 38.2097 20.5814 38.3091 20.5118 38.4309L20.4422 38.5527L19.0478 38.5601L19.1273 38.4209C19.1646 38.3563 19.1224 38.3116 18.9956 38.2867C18.8738 38.2619 18.6948 38.2494 18.4612 38.2494C18.2301 38.2519 18.0362 38.2643 17.8821 38.2917C17.7305 38.3165 17.636 38.3613 17.5987 38.4259C17.5639 38.488 17.6062 38.5402 17.723 38.585C17.8423 38.6272 17.9964 38.667 18.1903 38.7043C18.3817 38.7416 18.5905 38.7788 18.8166 38.8136C19.0428 38.8509 19.2491 38.8907 19.438 38.9354C19.6269 38.9802 19.7736 39.0324 19.8829 39.092C19.9923 39.1517 20.0221 39.2238 19.9724 39.3083Z" fill="#00DCAB"/>
<path fill-rule="evenodd" clip-rule="evenodd" d="M41.273 39.3083C41.3401 39.4301 41.5265 39.527 41.8273 39.604C42.128 39.6786 42.5456 39.7283 43.0775 39.7532L43.1521 39.8849L44.36 39.8924L44.283 39.7581C44.8 39.7407 45.1678 39.696 45.3915 39.6214C45.6128 39.5494 45.6873 39.4524 45.6202 39.3306L45.5879 39.2735L44.191 39.266L44.2333 39.3406C44.2706 39.4052 44.2308 39.4499 44.1165 39.4773C44.0021 39.5021 43.8281 39.5146 43.597 39.5146C43.3634 39.5121 43.1745 39.4996 43.0303 39.4723C42.8861 39.445 42.7942 39.3977 42.7569 39.3331C42.7221 39.2735 42.7643 39.2213 42.8836 39.1765C43.0005 39.1343 43.1571 39.092 43.3484 39.0547C43.9276 38.9429 43.9673 38.9081 44.3924 38.8062C44.5788 38.7614 44.7279 38.7093 44.8373 38.6496C44.9466 38.5899 44.9765 38.5179 44.9292 38.4309C44.8596 38.3091 44.6683 38.2097 44.3576 38.1351C44.0469 38.058 43.8257 38.0282 43.2863 38.0058L43.2142 37.8741L42.0063 37.8691L42.0808 38.0009C41.5539 38.0183 41.1811 38.063 40.9598 38.1376C40.7386 38.2097 40.6641 38.3091 40.7337 38.4309L40.8033 38.5527L42.1976 38.5601L42.1181 38.4209C42.0808 38.3563 42.1256 38.3116 42.2498 38.2867C42.3716 38.2619 42.5506 38.2494 42.7842 38.2494C43.0154 38.2519 43.2092 38.2643 43.3634 38.2917C43.515 38.3165 43.6094 38.3613 43.6467 38.4259C43.6815 38.488 43.6417 38.5402 43.5224 38.585C43.4056 38.6272 43.249 38.667 43.0576 38.7043C42.8638 38.7416 42.655 38.7788 42.4288 38.8136C42.2051 38.8509 41.9963 38.8907 41.8074 38.9354C41.621 38.9802 41.4719 39.0324 41.3625 39.092C41.2531 39.1517 41.2233 39.2238 41.273 39.3083Z" fill="#00DCAB"/>
<path fill-rule="evenodd" clip-rule="evenodd" d="M24.2124 41.3613H37.4976L37.3012 41.063H24.4112L24.2124 41.3613Z" fill="white"/>
<path fill-rule="evenodd" clip-rule="evenodd" d="M40.8381 51.5172L37.4976 41.3613V51.5172H40.8381Z" fill="#00AD88"/>
<path fill-rule="evenodd" clip-rule="evenodd" d="M33.0761 30.4573C35.8972 30.4573 38.1863 32.744 38.1863 35.565C38.1863 38.3886 35.8972 40.6753 33.0761 40.6753C30.2525 40.6753 27.9658 38.3886 27.9658 35.565C27.9658 32.744 30.2525 30.4573 33.0761 30.4573Z" fill="#FAAA20"/>
<path fill-rule="evenodd" clip-rule="evenodd" d="M33.0758 31.541C35.2979 31.541 37.0999 33.343 37.0999 35.5651C37.0999 37.7896 35.2979 39.5917 33.0758 39.5917C30.8538 39.5917 29.0518 37.7896 29.0518 35.5651C29.0518 33.343 30.8538 31.541 33.0758 31.541Z" fill="#FCE379"/>
<path fill-rule="evenodd" clip-rule="evenodd" d="M33.0758 31.541C33.9383 31.541 34.7362 31.8119 35.3899 32.2742C34.7958 31.9263 34.1024 31.7249 33.3617 31.7249C31.1396 31.7249 29.3376 33.527 29.3376 35.7515C29.3376 37.1111 30.0137 38.3141 31.0452 39.0423C29.8521 38.3439 29.0518 37.049 29.0518 35.5651C29.0518 33.343 30.8538 31.541 33.0758 31.541Z" fill="#F7CF56"/>
<path fill-rule="evenodd" clip-rule="evenodd" d="M31.7734 34.2551C31.7734 33.9022 31.8504 33.6164 32.007 33.4001C32.1636 33.1839 32.3997 33.0422 32.7104 32.9776V32.5898H33.4387V32.9776C33.7568 33.0372 33.9955 33.1764 34.1545 33.3927C34.3136 33.6089 34.3931 33.8972 34.3931 34.2551V34.4192H33.553V34.203C33.553 34.0141 33.5133 33.8798 33.4362 33.8028C33.3567 33.7257 33.2473 33.6884 33.1081 33.6884C32.9689 33.6884 32.8596 33.7257 32.78 33.8028C32.703 33.8798 32.6632 34.0141 32.6632 34.203C32.6632 34.3819 32.7055 34.5385 32.7925 34.6677C32.8795 34.797 32.9863 34.9163 33.1156 35.0281C33.2448 35.1425 33.384 35.2518 33.5331 35.3587C33.6798 35.4656 33.819 35.5874 33.9482 35.7216C34.0775 35.8558 34.1868 36.0099 34.2713 36.1889C34.3583 36.3654 34.4006 36.5766 34.4006 36.8277C34.4006 37.1856 34.3211 37.4739 34.1595 37.6926C33.9979 37.9139 33.7568 38.053 33.4387 38.1127V38.493H32.7104V38.1127C32.3873 38.053 32.1462 37.9139 31.9871 37.6926C31.8281 37.4739 31.7485 37.1856 31.7485 36.8277V36.4673H32.5911V36.8799C32.5911 37.0688 32.6309 37.2005 32.7154 37.2751C32.7999 37.3496 32.9118 37.3869 33.051 37.3869C33.1901 37.3869 33.302 37.3496 33.3865 37.2751C33.471 37.2005 33.5133 37.0688 33.5133 36.8799C33.5133 36.7009 33.4685 36.5443 33.384 36.4151C33.297 36.2858 33.1877 36.164 33.0584 36.0522C32.9292 35.9403 32.79 35.831 32.6433 35.7241C32.4942 35.6172 32.355 35.4954 32.2258 35.3612C32.0965 35.227 31.9896 35.0729 31.9026 34.8939C31.8156 34.7175 31.7734 34.5062 31.7734 34.2551Z" fill="#FAAA20"/>
<path fill-rule="evenodd" clip-rule="evenodd" d="M31.4331 13.6826L31.6518 15.4449L33.4141 15.6636L31.6518 15.8848L31.4331 17.6446L31.2119 15.8848L29.4521 15.6636L31.2119 15.4449L31.4331 13.6826Z" fill="#ECF0F1"/>
</g>
<defs>
<clipPath id="clip0_7256_8968">
<rect width="60" height="43.0345" fill="white" transform="translate(0 8.48267)"/>
</clipPath>
</defs>
</svg>
