<svg width="61" height="60" viewBox="0 0 61 60" fill="none" xmlns="http://www.w3.org/2000/svg">
<path d="M3.53564 32.6656L15.9843 37.8457L7.97736 43.7079C6.84249 44.5388 5.23095 43.8682 5.02049 42.4775L3.53564 32.6656Z" fill="url(#paint0_linear_7256_8418)"/>
<path d="M18.5754 1.64397L27.4067 5.31622C28.3615 5.71326 28.8136 6.80926 28.4163 7.76399L17.6315 33.6819L5.3457 28.5661L16.1282 2.65335C16.5253 1.69894 17.6209 1.24707 18.5754 1.64397Z" fill="url(#paint1_linear_7256_8418)"/>
<path d="M55.1075 58.5H40.674C36.52 58.5 33.1406 55.1205 33.1406 50.9666C33.1406 49.1296 31.6462 47.6354 29.8094 47.6354H13.208C12.0476 47.6354 11.1069 46.6947 11.1069 45.5343C11.1069 44.3739 12.0476 43.4332 13.208 43.4332H29.8094C33.9634 43.4332 37.3428 46.8128 37.3428 50.9666C37.3428 52.8037 38.8372 54.2979 40.674 54.2979H55.1075C56.2679 54.2979 57.2086 55.2385 57.2086 56.399C57.2086 57.5594 56.2679 58.5 55.1075 58.5Z" fill="url(#paint2_linear_7256_8418)"/>
<defs>
<linearGradient id="paint0_linear_7256_8418" x1="-15.678" y1="11.7072" x2="39.5322" y2="72.2112" gradientUnits="userSpaceOnUse">
<stop stop-color="#97E0FF"/>
<stop offset="1" stop-color="#1075FF"/>
</linearGradient>
<linearGradient id="paint1_linear_7256_8418" x1="-0.727911" y1="-1.9344" x2="54.4817" y2="58.5702" gradientUnits="userSpaceOnUse">
<stop stop-color="#97E0FF"/>
<stop offset="1" stop-color="#1075FF"/>
</linearGradient>
<linearGradient id="paint2_linear_7256_8418" x1="-8.03259" y1="4.73104" x2="47.1776" y2="65.235" gradientUnits="userSpaceOnUse">
<stop stop-color="#97E0FF"/>
<stop offset="1" stop-color="#1075FF"/>
</linearGradient>
</defs>
</svg>
