<svg width="120" height="121" viewBox="0 0 120 121" fill="none" xmlns="http://www.w3.org/2000/svg">
<rect y="0.25" width="120" height="120" rx="60" fill="#E9F4FF"/>
<g clip-path="url(#clip0_7256_8574)">
<path d="M71.7566 67.6339C74.3359 70.3744 78.5559 70.3744 81.1352 67.6339L82.1016 66.607L80.6489 66.045C80.3209 65.9178 80.1047 65.602 80.1047 65.25V62.564C79.091 63.2628 77.8632 63.6738 76.5413 63.6738C75.1578 63.6738 73.9422 63.2938 72.9478 62.6586V65.2195C72.9478 65.5898 72.72 65.9224 72.3746 66.0562L70.834 66.6533L71.7566 67.6339Z" fill="#FFBEAB"/>
<path d="M76.9527 63.6599C76.8164 63.6686 76.6796 63.6742 76.5418 63.6742C75.1578 63.6742 73.9422 63.2942 72.9478 62.6589V65.2194C72.9478 65.5901 72.72 65.9223 72.3746 66.0566L70.834 66.6537L71.7566 67.6343C73.1747 69.1409 75.0881 69.8173 76.9527 69.6673V63.6599Z" fill="#F7AF9F"/>
<path d="M89.5719 69.5004L81.8871 66.5244L80.8968 67.5768C78.4518 70.1748 74.4505 70.1748 72.005 67.5768L71.0554 66.5676L63.4911 69.5004C63.4911 69.5004 59.9902 70.9398 59.9902 74.9315V91.9877C59.9902 92.8687 60.7043 93.5833 61.5858 93.5833H91.4777C92.3586 93.5833 93.0733 92.8687 93.0733 91.9877V74.9315C93.0733 70.9398 89.5719 69.5004 89.5719 69.5004Z" fill="#54A0FF"/>
<path d="M64.0145 91.9876V72.9075C64.0145 70.8079 64.9834 69.4153 65.902 68.5659L63.4911 69.5003C63.4911 69.5003 59.9902 70.9397 59.9902 74.9314V91.9876C59.9902 92.8691 60.7043 93.5832 61.5858 93.5832H65.61C64.7291 93.5832 64.0145 92.8685 64.0145 91.9876Z" fill="#338DEF"/>
<path d="M69.4361 40.4677H54.718C54.1626 40.4677 53.7119 40.0176 53.7119 39.4616C53.7119 38.9057 54.1626 38.4556 54.718 38.4556H69.4361C69.9915 38.4556 70.4421 38.9057 70.4421 39.4616C70.4421 40.0176 69.9915 40.4677 69.4361 40.4677Z" fill="#54A0FF"/>
<path d="M54.0576 36.4271L50.1773 39.1157C49.9357 39.2831 49.9357 39.6401 50.1773 39.8075L54.0576 42.496C54.3368 42.6893 54.7178 42.4894 54.7178 42.1502V36.773C54.7178 36.4337 54.3368 36.2339 54.0576 36.4271Z" fill="#54A0FF"/>
<path d="M64.7139 31.0329H49.9963C49.4404 31.0329 48.9902 30.5822 48.9902 30.0268C48.9902 29.4709 49.4404 29.0208 49.9963 29.0208H64.7139C65.2693 29.0208 65.7199 29.4709 65.7199 30.0268C65.7199 30.5822 65.2693 31.0329 64.7139 31.0329Z" fill="#FF6B6B"/>
<path d="M65.3741 26.9926L69.2544 29.6812C69.496 29.8486 69.496 30.2056 69.2544 30.373L65.3741 33.0616C65.0948 33.2548 64.7134 33.0549 64.7134 32.7157V27.3385C64.7134 26.9987 65.0948 26.7994 65.3741 26.9926Z" fill="#FF6B6B"/>
<path d="M53.2626 39.8075C53.021 39.6402 53.021 39.2831 53.2626 39.1158L54.7183 38.1072V36.7731C54.7183 36.4333 54.3368 36.2339 54.0576 36.4272L50.1773 39.1158C49.9357 39.2831 49.9357 39.6402 50.1773 39.8075L54.0576 42.4961C54.3368 42.6894 54.7183 42.4895 54.7183 42.1503V40.8156L53.2626 39.8075Z" fill="#338DEF"/>
<path d="M67.7987 28.6726L65.3741 26.9926C65.0948 26.7994 64.7134 26.9987 64.7134 27.3385V32.7157C64.7134 33.0549 65.0948 33.2548 65.3741 33.0616L67.7987 31.3811V28.6726Z" fill="#EE5253"/>
<path d="M66.955 93.5832V76.3032C66.955 75.7478 66.5049 75.2971 65.9489 75.2971C65.393 75.2971 64.9429 75.7478 64.9429 76.3032V93.5832H66.955Z" fill="#338DEF"/>
<path d="M88.1195 93.5832V76.3032C88.1195 75.7478 87.6694 75.2971 87.1135 75.2971C86.5576 75.2971 86.1074 75.7478 86.1074 76.3032V93.5832H88.1195Z" fill="#338DEF"/>
<path d="M76.531 41.948C71.8013 41.948 67.9678 45.7815 67.9678 50.5112V53.6728C68.54 53.1423 69.3538 53.0391 70.1488 53.1454V52.7186C70.1488 52.3794 70.4387 52.1114 70.7744 52.1368C74.085 52.3748 77.4547 51.3225 80.0024 49.6582C80.2404 49.5026 80.5552 49.5413 80.7485 49.7493C82.9264 52.0905 82.9137 52 82.9137 52.3056V53.1434C83.7845 53.0126 84.5576 53.0971 85.0942 53.5965V50.5112C85.0942 45.7815 81.2602 41.948 76.531 41.948Z" fill="#576574"/>
<path d="M71.992 50.5112C71.992 46.4748 74.7849 43.0934 78.5431 42.1881C77.8977 42.0324 77.2242 41.948 76.531 41.948C71.8013 41.948 67.9678 45.7815 67.9678 50.5112V53.6728C68.54 53.1423 69.3538 53.0391 70.1488 53.1454V52.7186C70.1488 52.3794 70.4387 52.1114 70.7744 52.1368C71.1797 52.1658 71.5866 52.1749 71.992 52.1668V50.5112Z" fill="#3E4B5A"/>
<path d="M82.8542 52.9097V57.6959C82.8542 57.7478 82.8516 57.7991 82.8501 57.8505C84.5438 58.1074 85.8703 56.8836 85.8703 55.3806C85.8703 53.8746 84.5428 52.6564 82.8542 52.9097Z" fill="#FFBEAB"/>
<path d="M70.2324 57.7133V52.8926C68.7467 52.6942 67.1934 53.8345 67.1934 55.3802C67.1934 56.8929 68.527 58.1283 70.2365 57.8695C70.2349 57.8176 70.2324 57.7657 70.2324 57.7133Z" fill="#FFBEAB"/>
<path d="M85.0845 53.5648C84.5362 53.0526 83.7458 52.7759 82.8542 52.9097V57.6959C82.8542 57.7478 82.8516 57.7991 82.8501 57.8505C83.7443 57.9858 84.5362 57.7086 85.0845 57.1954V53.5648Z" fill="#F7AF9F"/>
<path d="M70.2324 57.225C69.7283 56.7617 69.4232 56.103 69.4232 55.3802C69.4232 54.6788 69.7441 54.0614 70.2324 53.6138V52.8926C68.7467 52.6942 67.1934 53.8345 67.1934 55.3802C67.1934 56.8929 68.527 58.1278 70.2365 57.8695C70.2349 57.8176 70.2324 57.7657 70.2324 57.7133V57.225Z" fill="#F7AF9F"/>
<path d="M80.7491 49.5643C80.5559 49.3567 80.241 49.3181 80.0035 49.4732C77.4558 51.1374 74.0862 52.1898 70.7755 51.9518C70.4393 51.9263 70.1499 52.1944 70.1499 52.5336V57.6494C70.1499 60.9376 72.7261 63.9406 76.6232 63.9406C80.092 63.9406 82.9144 61.1182 82.9144 57.6494V52.1206C82.9144 51.8149 82.9276 51.9055 80.7491 49.5643Z" fill="#FFCDBF"/>
<path d="M74.1741 57.6497V51.7649C73.0582 51.9602 71.9138 52.034 70.7755 51.9526C70.4398 51.9271 70.1499 52.1947 70.1499 52.5339V57.6502C70.1499 60.938 72.7261 63.9409 76.6232 63.9409C77.3027 63.9409 77.9568 63.8315 78.5702 63.6311C75.8618 62.7838 74.1741 60.3103 74.1741 57.6497Z" fill="#FFBEAB"/>
<path d="M38.6942 67.6339C41.2729 70.3744 45.4935 70.3744 48.0722 67.6339L49.0386 66.607L47.5864 66.045C47.2579 65.9178 47.0417 65.602 47.0417 65.25V62.564C46.028 63.2628 44.8007 63.6738 43.4788 63.6738C42.0953 63.6738 40.8792 63.2938 39.8848 62.6586V65.2195C39.8848 65.5898 39.657 65.9224 39.3116 66.0562L37.771 66.6533L38.6942 67.6339Z" fill="#FFBEAB"/>
<path d="M43.8898 63.6599C43.754 63.6686 43.6171 63.6742 43.4788 63.6742C42.0953 63.6742 40.8792 63.2942 39.8848 62.6589V65.2194C39.8848 65.5901 39.6575 65.9223 39.3121 66.0566L37.771 66.6537L38.6942 67.6343C40.1117 69.1409 42.0256 69.8173 43.8898 69.6673V63.6599Z" fill="#F7AF9F"/>
<path d="M56.5094 69.5004L48.8246 66.5244L47.8343 67.5768C45.3888 70.1748 41.3875 70.1748 38.9425 67.5768L37.9929 66.5676L30.4286 69.5004C30.4286 69.5004 26.9272 70.9398 26.9272 74.9315V91.9877C26.9272 92.8687 27.6419 93.5833 28.5233 93.5833H58.4152C59.2962 93.5833 60.0108 92.8687 60.0108 91.9877V74.9315C60.0108 70.9398 56.5094 69.5004 56.5094 69.5004Z" fill="#FF6B6B"/>
<path d="M30.9515 91.9876V72.9075C30.9515 70.8079 31.9204 69.4153 32.839 68.5659L30.4286 69.5003C30.4286 69.5003 26.9272 70.9397 26.9272 74.9314V91.9876C26.9272 92.8691 27.6419 93.5832 28.5228 93.5832H32.5476C31.6661 93.5832 30.9515 92.8685 30.9515 91.9876Z" fill="#EE5253"/>
<path d="M33.8925 93.5832V76.3032C33.8925 75.7478 33.4419 75.2971 32.8859 75.2971C32.3305 75.2971 31.8799 75.7478 31.8799 76.3032V93.5832H33.8925Z" fill="#EE5253"/>
<path d="M55.0571 93.5832V76.3032C55.0571 75.7478 54.6064 75.2971 54.0505 75.2971C53.4951 75.2971 53.0444 75.7478 53.0444 76.3032V93.5832H55.0571Z" fill="#EE5253"/>
<path d="M43.468 41.948C38.7383 41.948 34.9048 45.7815 34.9048 50.5112V53.6728C35.477 53.1423 36.2913 53.0391 37.0863 53.1454V52.7186C37.0863 52.3794 37.3757 52.1114 37.7119 52.1368C41.0225 52.3748 44.3922 51.3225 46.9399 49.6582C47.1774 49.5026 47.4922 49.5413 47.6855 49.7493C49.864 52.0905 49.8507 52 49.8507 52.3056V53.1434C50.722 53.0126 51.4946 53.0971 52.0317 53.5965V50.5112C52.0312 45.7815 48.1977 41.948 43.468 41.948Z" fill="#576574"/>
<path d="M38.929 50.5112C38.929 46.4748 41.7219 43.0934 45.4801 42.1881C44.8347 42.0324 44.1613 41.948 43.468 41.948C38.7383 41.948 34.9048 45.7815 34.9048 50.5112V53.6728C35.477 53.1423 36.2913 53.0391 37.0863 53.1454V52.7186C37.0863 52.3794 37.3757 52.1114 37.7119 52.1368C38.1173 52.1658 38.5237 52.1749 38.929 52.1668V50.5112Z" fill="#3E4B5A"/>
<path d="M49.7912 52.9097V57.6959C49.7912 57.7478 49.7886 57.7991 49.7876 57.8505C51.4813 58.1074 52.8078 56.8836 52.8078 55.3806C52.8078 53.8746 51.4798 52.6564 49.7912 52.9097Z" fill="#FFBEAB"/>
<path d="M37.1694 57.7133V52.8926C35.6832 52.6942 34.1299 53.8345 34.1299 55.3802C34.1299 56.8929 35.4635 58.1283 37.173 57.8695C37.172 57.8176 37.1694 57.7657 37.1694 57.7133Z" fill="#FFBEAB"/>
<path d="M52.0215 53.5648C51.4737 53.0526 50.6828 52.7759 49.7912 52.9097V57.6959C49.7912 57.7478 49.7886 57.7991 49.7876 57.8505C50.6818 57.9858 51.4732 57.7086 52.0215 57.1954V53.5648Z" fill="#F7AF9F"/>
<path d="M37.1694 57.225C36.6649 56.7617 36.3602 56.103 36.3602 55.3802C36.3602 54.6788 36.6806 54.0614 37.1694 53.6138V52.8926C35.6832 52.6942 34.1299 53.8345 34.1299 55.3802C34.1299 56.8929 35.4635 58.1278 37.173 57.8695C37.1715 57.8176 37.1694 57.7657 37.1694 57.7133V57.225Z" fill="#F7AF9F"/>
<path d="M47.6857 49.5643C47.4924 49.3567 47.1776 49.3181 46.9395 49.4732C44.3918 51.1374 41.0227 52.1898 37.7115 51.9518C37.3759 51.9263 37.0859 52.1944 37.0859 52.5336V57.6494C37.0859 60.9376 39.6621 63.9406 43.5592 63.9406C47.0285 63.9406 49.8504 61.1182 49.8504 57.6494V52.1206C49.8504 51.8149 49.8636 51.9055 47.6857 49.5643Z" fill="#FFCDBF"/>
<path d="M41.1107 57.6497V51.7649C39.9943 51.9602 38.8499 52.034 37.7115 51.9526C37.3759 51.9271 37.0859 52.1947 37.0859 52.5339V57.6502C37.0859 60.938 39.6621 63.9409 43.5592 63.9409C44.2387 63.9409 44.8928 63.8315 45.5062 63.6311C42.7978 62.7838 41.1107 60.3103 41.1107 57.6497Z" fill="#FFBEAB"/>
</g>
<defs>
<clipPath id="clip0_7256_8574">
<rect width="66.6667" height="66.6667" fill="white" transform="translate(26.6665 26.9167)"/>
</clipPath>
</defs>
</svg>
